<?xml version="1.0" encoding="utf-8" standalone="no"?>
<!DOCTYPE svg PUBLIC "-//W3C//DTD SVG 1.1//EN"
  "http://www.w3.org/Graphics/SVG/1.1/DTD/svg11.dtd">
<svg height="325.986375pt" version="1.1" viewBox="0 0 408.10125 325.986375" width="408.10125pt" xmlns="http://www.w3.org/2000/svg" xmlns:xlink="http://www.w3.org/1999/xlink">
 <metadata>
  <rdf:RDF xmlns:cc="http://creativecommons.org/ns#" xmlns:dc="http://purl.org/dc/elements/1.1/" xmlns:rdf="http://www.w3.org/1999/02/22-rdf-syntax-ns#">
   <cc:Work>
    <dc:type rdf:resource="http://purl.org/dc/dcmitype/StillImage"/>
    <dc:date>2022-02-21T14:17:25.257349</dc:date>
    <dc:format>image/svg+xml</dc:format>
    <dc:creator>
     <cc:Agent>
      <dc:title>Matplotlib v3.4.1, https://matplotlib.org/</dc:title>
     </cc:Agent>
    </dc:creator>
   </cc:Work>
  </rdf:RDF>
 </metadata>
 <defs>
  <style type="text/css">*{stroke-linecap:butt;stroke-linejoin:round;}</style>
 </defs>
 <g id="figure_1">
  <g id="patch_1">
   <path d="M 0 325.986375 
L 408.10125 325.986375 
L 408.10125 0 
L 0 0 
z
" style="fill:#ffffff;"/>
  </g>
  <g id="axes_1">
   <g id="patch_2">
    <path d="M 43.78125 288.430125 
L 400.90125 288.430125 
L 400.90125 22.318125 
L 43.78125 22.318125 
z
" style="fill:#ffffff;"/>
   </g>
   <g id="matplotlib.axis_1">
    <g id="xtick_1">
     <g id="line2d_1">
      <defs>
       <path d="M 0 0 
L 0 3.5 
" id="m834c263669" style="stroke:#000000;stroke-width:0.8;"/>
      </defs>
      <g>
       <use style="stroke:#000000;stroke-width:0.8;" x="60.013977" xlink:href="#m834c263669" y="288.430125"/>
      </g>
     </g>
     <g id="text_1">
      <!-- 0 -->
      <g transform="translate(56.832727 303.028562)scale(0.1 -0.1)">
       <defs>
        <path d="M 2034 4250 
Q 1547 4250 1301 3770 
Q 1056 3291 1056 2328 
Q 1056 1369 1301 889 
Q 1547 409 2034 409 
Q 2525 409 2770 889 
Q 3016 1369 3016 2328 
Q 3016 3291 2770 3770 
Q 2525 4250 2034 4250 
z
M 2034 4750 
Q 2819 4750 3233 4129 
Q 3647 3509 3647 2328 
Q 3647 1150 3233 529 
Q 2819 -91 2034 -91 
Q 1250 -91 836 529 
Q 422 1150 422 2328 
Q 422 3509 836 4129 
Q 1250 4750 2034 4750 
z
" id="DejaVuSans-30" transform="scale(0.015625)"/>
       </defs>
       <use xlink:href="#DejaVuSans-30"/>
      </g>
     </g>
    </g>
    <g id="xtick_2">
     <g id="line2d_2">
      <g>
       <use style="stroke:#000000;stroke-width:0.8;" x="125.075008" xlink:href="#m834c263669" y="288.430125"/>
      </g>
     </g>
     <g id="text_2">
      <!-- 200 -->
      <g transform="translate(115.531258 303.028562)scale(0.1 -0.1)">
       <defs>
        <path d="M 1228 531 
L 3431 531 
L 3431 0 
L 469 0 
L 469 531 
Q 828 903 1448 1529 
Q 2069 2156 2228 2338 
Q 2531 2678 2651 2914 
Q 2772 3150 2772 3378 
Q 2772 3750 2511 3984 
Q 2250 4219 1831 4219 
Q 1534 4219 1204 4116 
Q 875 4013 500 3803 
L 500 4441 
Q 881 4594 1212 4672 
Q 1544 4750 1819 4750 
Q 2544 4750 2975 4387 
Q 3406 4025 3406 3419 
Q 3406 3131 3298 2873 
Q 3191 2616 2906 2266 
Q 2828 2175 2409 1742 
Q 1991 1309 1228 531 
z
" id="DejaVuSans-32" transform="scale(0.015625)"/>
       </defs>
       <use xlink:href="#DejaVuSans-32"/>
       <use x="63.623047" xlink:href="#DejaVuSans-30"/>
       <use x="127.246094" xlink:href="#DejaVuSans-30"/>
      </g>
     </g>
    </g>
    <g id="xtick_3">
     <g id="line2d_3">
      <g>
       <use style="stroke:#000000;stroke-width:0.8;" x="190.13604" xlink:href="#m834c263669" y="288.430125"/>
      </g>
     </g>
     <g id="text_3">
      <!-- 400 -->
      <g transform="translate(180.59229 303.028562)scale(0.1 -0.1)">
       <defs>
        <path d="M 2419 4116 
L 825 1625 
L 2419 1625 
L 2419 4116 
z
M 2253 4666 
L 3047 4666 
L 3047 1625 
L 3713 1625 
L 3713 1100 
L 3047 1100 
L 3047 0 
L 2419 0 
L 2419 1100 
L 313 1100 
L 313 1709 
L 2253 4666 
z
" id="DejaVuSans-34" transform="scale(0.015625)"/>
       </defs>
       <use xlink:href="#DejaVuSans-34"/>
       <use x="63.623047" xlink:href="#DejaVuSans-30"/>
       <use x="127.246094" xlink:href="#DejaVuSans-30"/>
      </g>
     </g>
    </g>
    <g id="xtick_4">
     <g id="line2d_4">
      <g>
       <use style="stroke:#000000;stroke-width:0.8;" x="255.197071" xlink:href="#m834c263669" y="288.430125"/>
      </g>
     </g>
     <g id="text_4">
      <!-- 600 -->
      <g transform="translate(245.653321 303.028562)scale(0.1 -0.1)">
       <defs>
        <path d="M 2113 2584 
Q 1688 2584 1439 2293 
Q 1191 2003 1191 1497 
Q 1191 994 1439 701 
Q 1688 409 2113 409 
Q 2538 409 2786 701 
Q 3034 994 3034 1497 
Q 3034 2003 2786 2293 
Q 2538 2584 2113 2584 
z
M 3366 4563 
L 3366 3988 
Q 3128 4100 2886 4159 
Q 2644 4219 2406 4219 
Q 1781 4219 1451 3797 
Q 1122 3375 1075 2522 
Q 1259 2794 1537 2939 
Q 1816 3084 2150 3084 
Q 2853 3084 3261 2657 
Q 3669 2231 3669 1497 
Q 3669 778 3244 343 
Q 2819 -91 2113 -91 
Q 1303 -91 875 529 
Q 447 1150 447 2328 
Q 447 3434 972 4092 
Q 1497 4750 2381 4750 
Q 2619 4750 2861 4703 
Q 3103 4656 3366 4563 
z
" id="DejaVuSans-36" transform="scale(0.015625)"/>
       </defs>
       <use xlink:href="#DejaVuSans-36"/>
       <use x="63.623047" xlink:href="#DejaVuSans-30"/>
       <use x="127.246094" xlink:href="#DejaVuSans-30"/>
      </g>
     </g>
    </g>
    <g id="xtick_5">
     <g id="line2d_5">
      <g>
       <use style="stroke:#000000;stroke-width:0.8;" x="320.258102" xlink:href="#m834c263669" y="288.430125"/>
      </g>
     </g>
     <g id="text_5">
      <!-- 800 -->
      <g transform="translate(310.714352 303.028562)scale(0.1 -0.1)">
       <defs>
        <path d="M 2034 2216 
Q 1584 2216 1326 1975 
Q 1069 1734 1069 1313 
Q 1069 891 1326 650 
Q 1584 409 2034 409 
Q 2484 409 2743 651 
Q 3003 894 3003 1313 
Q 3003 1734 2745 1975 
Q 2488 2216 2034 2216 
z
M 1403 2484 
Q 997 2584 770 2862 
Q 544 3141 544 3541 
Q 544 4100 942 4425 
Q 1341 4750 2034 4750 
Q 2731 4750 3128 4425 
Q 3525 4100 3525 3541 
Q 3525 3141 3298 2862 
Q 3072 2584 2669 2484 
Q 3125 2378 3379 2068 
Q 3634 1759 3634 1313 
Q 3634 634 3220 271 
Q 2806 -91 2034 -91 
Q 1263 -91 848 271 
Q 434 634 434 1313 
Q 434 1759 690 2068 
Q 947 2378 1403 2484 
z
M 1172 3481 
Q 1172 3119 1398 2916 
Q 1625 2713 2034 2713 
Q 2441 2713 2670 2916 
Q 2900 3119 2900 3481 
Q 2900 3844 2670 4047 
Q 2441 4250 2034 4250 
Q 1625 4250 1398 4047 
Q 1172 3844 1172 3481 
z
" id="DejaVuSans-38" transform="scale(0.015625)"/>
       </defs>
       <use xlink:href="#DejaVuSans-38"/>
       <use x="63.623047" xlink:href="#DejaVuSans-30"/>
       <use x="127.246094" xlink:href="#DejaVuSans-30"/>
      </g>
     </g>
    </g>
    <g id="xtick_6">
     <g id="line2d_6">
      <g>
       <use style="stroke:#000000;stroke-width:0.8;" x="385.319133" xlink:href="#m834c263669" y="288.430125"/>
      </g>
     </g>
     <g id="text_6">
      <!-- 1000 -->
      <g transform="translate(372.594133 303.028562)scale(0.1 -0.1)">
       <defs>
        <path d="M 794 531 
L 1825 531 
L 1825 4091 
L 703 3866 
L 703 4441 
L 1819 4666 
L 2450 4666 
L 2450 531 
L 3481 531 
L 3481 0 
L 794 0 
L 794 531 
z
" id="DejaVuSans-31" transform="scale(0.015625)"/>
       </defs>
       <use xlink:href="#DejaVuSans-31"/>
       <use x="63.623047" xlink:href="#DejaVuSans-30"/>
       <use x="127.246094" xlink:href="#DejaVuSans-30"/>
       <use x="190.869141" xlink:href="#DejaVuSans-30"/>
      </g>
     </g>
    </g>
    <g id="text_7">
     <!-- Number of Generation -->
     <g transform="translate(166.364688 316.706687)scale(0.1 -0.1)">
      <defs>
       <path d="M 628 4666 
L 1478 4666 
L 3547 763 
L 3547 4666 
L 4159 4666 
L 4159 0 
L 3309 0 
L 1241 3903 
L 1241 0 
L 628 0 
L 628 4666 
z
" id="DejaVuSans-4e" transform="scale(0.015625)"/>
       <path d="M 544 1381 
L 544 3500 
L 1119 3500 
L 1119 1403 
Q 1119 906 1312 657 
Q 1506 409 1894 409 
Q 2359 409 2629 706 
Q 2900 1003 2900 1516 
L 2900 3500 
L 3475 3500 
L 3475 0 
L 2900 0 
L 2900 538 
Q 2691 219 2414 64 
Q 2138 -91 1772 -91 
Q 1169 -91 856 284 
Q 544 659 544 1381 
z
M 1991 3584 
L 1991 3584 
z
" id="DejaVuSans-75" transform="scale(0.015625)"/>
       <path d="M 3328 2828 
Q 3544 3216 3844 3400 
Q 4144 3584 4550 3584 
Q 5097 3584 5394 3201 
Q 5691 2819 5691 2113 
L 5691 0 
L 5113 0 
L 5113 2094 
Q 5113 2597 4934 2840 
Q 4756 3084 4391 3084 
Q 3944 3084 3684 2787 
Q 3425 2491 3425 1978 
L 3425 0 
L 2847 0 
L 2847 2094 
Q 2847 2600 2669 2842 
Q 2491 3084 2119 3084 
Q 1678 3084 1418 2786 
Q 1159 2488 1159 1978 
L 1159 0 
L 581 0 
L 581 3500 
L 1159 3500 
L 1159 2956 
Q 1356 3278 1631 3431 
Q 1906 3584 2284 3584 
Q 2666 3584 2933 3390 
Q 3200 3197 3328 2828 
z
" id="DejaVuSans-6d" transform="scale(0.015625)"/>
       <path d="M 3116 1747 
Q 3116 2381 2855 2742 
Q 2594 3103 2138 3103 
Q 1681 3103 1420 2742 
Q 1159 2381 1159 1747 
Q 1159 1113 1420 752 
Q 1681 391 2138 391 
Q 2594 391 2855 752 
Q 3116 1113 3116 1747 
z
M 1159 2969 
Q 1341 3281 1617 3432 
Q 1894 3584 2278 3584 
Q 2916 3584 3314 3078 
Q 3713 2572 3713 1747 
Q 3713 922 3314 415 
Q 2916 -91 2278 -91 
Q 1894 -91 1617 61 
Q 1341 213 1159 525 
L 1159 0 
L 581 0 
L 581 4863 
L 1159 4863 
L 1159 2969 
z
" id="DejaVuSans-62" transform="scale(0.015625)"/>
       <path d="M 3597 1894 
L 3597 1613 
L 953 1613 
Q 991 1019 1311 708 
Q 1631 397 2203 397 
Q 2534 397 2845 478 
Q 3156 559 3463 722 
L 3463 178 
Q 3153 47 2828 -22 
Q 2503 -91 2169 -91 
Q 1331 -91 842 396 
Q 353 884 353 1716 
Q 353 2575 817 3079 
Q 1281 3584 2069 3584 
Q 2775 3584 3186 3129 
Q 3597 2675 3597 1894 
z
M 3022 2063 
Q 3016 2534 2758 2815 
Q 2500 3097 2075 3097 
Q 1594 3097 1305 2825 
Q 1016 2553 972 2059 
L 3022 2063 
z
" id="DejaVuSans-65" transform="scale(0.015625)"/>
       <path d="M 2631 2963 
Q 2534 3019 2420 3045 
Q 2306 3072 2169 3072 
Q 1681 3072 1420 2755 
Q 1159 2438 1159 1844 
L 1159 0 
L 581 0 
L 581 3500 
L 1159 3500 
L 1159 2956 
Q 1341 3275 1631 3429 
Q 1922 3584 2338 3584 
Q 2397 3584 2469 3576 
Q 2541 3569 2628 3553 
L 2631 2963 
z
" id="DejaVuSans-72" transform="scale(0.015625)"/>
       <path id="DejaVuSans-20" transform="scale(0.015625)"/>
       <path d="M 1959 3097 
Q 1497 3097 1228 2736 
Q 959 2375 959 1747 
Q 959 1119 1226 758 
Q 1494 397 1959 397 
Q 2419 397 2687 759 
Q 2956 1122 2956 1747 
Q 2956 2369 2687 2733 
Q 2419 3097 1959 3097 
z
M 1959 3584 
Q 2709 3584 3137 3096 
Q 3566 2609 3566 1747 
Q 3566 888 3137 398 
Q 2709 -91 1959 -91 
Q 1206 -91 779 398 
Q 353 888 353 1747 
Q 353 2609 779 3096 
Q 1206 3584 1959 3584 
z
" id="DejaVuSans-6f" transform="scale(0.015625)"/>
       <path d="M 2375 4863 
L 2375 4384 
L 1825 4384 
Q 1516 4384 1395 4259 
Q 1275 4134 1275 3809 
L 1275 3500 
L 2222 3500 
L 2222 3053 
L 1275 3053 
L 1275 0 
L 697 0 
L 697 3053 
L 147 3053 
L 147 3500 
L 697 3500 
L 697 3744 
Q 697 4328 969 4595 
Q 1241 4863 1831 4863 
L 2375 4863 
z
" id="DejaVuSans-66" transform="scale(0.015625)"/>
       <path d="M 3809 666 
L 3809 1919 
L 2778 1919 
L 2778 2438 
L 4434 2438 
L 4434 434 
Q 4069 175 3628 42 
Q 3188 -91 2688 -91 
Q 1594 -91 976 548 
Q 359 1188 359 2328 
Q 359 3472 976 4111 
Q 1594 4750 2688 4750 
Q 3144 4750 3555 4637 
Q 3966 4525 4313 4306 
L 4313 3634 
Q 3963 3931 3569 4081 
Q 3175 4231 2741 4231 
Q 1884 4231 1454 3753 
Q 1025 3275 1025 2328 
Q 1025 1384 1454 906 
Q 1884 428 2741 428 
Q 3075 428 3337 486 
Q 3600 544 3809 666 
z
" id="DejaVuSans-47" transform="scale(0.015625)"/>
       <path d="M 3513 2113 
L 3513 0 
L 2938 0 
L 2938 2094 
Q 2938 2591 2744 2837 
Q 2550 3084 2163 3084 
Q 1697 3084 1428 2787 
Q 1159 2491 1159 1978 
L 1159 0 
L 581 0 
L 581 3500 
L 1159 3500 
L 1159 2956 
Q 1366 3272 1645 3428 
Q 1925 3584 2291 3584 
Q 2894 3584 3203 3211 
Q 3513 2838 3513 2113 
z
" id="DejaVuSans-6e" transform="scale(0.015625)"/>
       <path d="M 2194 1759 
Q 1497 1759 1228 1600 
Q 959 1441 959 1056 
Q 959 750 1161 570 
Q 1363 391 1709 391 
Q 2188 391 2477 730 
Q 2766 1069 2766 1631 
L 2766 1759 
L 2194 1759 
z
M 3341 1997 
L 3341 0 
L 2766 0 
L 2766 531 
Q 2569 213 2275 61 
Q 1981 -91 1556 -91 
Q 1019 -91 701 211 
Q 384 513 384 1019 
Q 384 1609 779 1909 
Q 1175 2209 1959 2209 
L 2766 2209 
L 2766 2266 
Q 2766 2663 2505 2880 
Q 2244 3097 1772 3097 
Q 1472 3097 1187 3025 
Q 903 2953 641 2809 
L 641 3341 
Q 956 3463 1253 3523 
Q 1550 3584 1831 3584 
Q 2591 3584 2966 3190 
Q 3341 2797 3341 1997 
z
" id="DejaVuSans-61" transform="scale(0.015625)"/>
       <path d="M 1172 4494 
L 1172 3500 
L 2356 3500 
L 2356 3053 
L 1172 3053 
L 1172 1153 
Q 1172 725 1289 603 
Q 1406 481 1766 481 
L 2356 481 
L 2356 0 
L 1766 0 
Q 1100 0 847 248 
Q 594 497 594 1153 
L 594 3053 
L 172 3053 
L 172 3500 
L 594 3500 
L 594 4494 
L 1172 4494 
z
" id="DejaVuSans-74" transform="scale(0.015625)"/>
       <path d="M 603 3500 
L 1178 3500 
L 1178 0 
L 603 0 
L 603 3500 
z
M 603 4863 
L 1178 4863 
L 1178 4134 
L 603 4134 
L 603 4863 
z
" id="DejaVuSans-69" transform="scale(0.015625)"/>
      </defs>
      <use xlink:href="#DejaVuSans-4e"/>
      <use x="74.804688" xlink:href="#DejaVuSans-75"/>
      <use x="138.183594" xlink:href="#DejaVuSans-6d"/>
      <use x="235.595703" xlink:href="#DejaVuSans-62"/>
      <use x="299.072266" xlink:href="#DejaVuSans-65"/>
      <use x="360.595703" xlink:href="#DejaVuSans-72"/>
      <use x="401.708984" xlink:href="#DejaVuSans-20"/>
      <use x="433.496094" xlink:href="#DejaVuSans-6f"/>
      <use x="494.677734" xlink:href="#DejaVuSans-66"/>
      <use x="529.882812" xlink:href="#DejaVuSans-20"/>
      <use x="561.669922" xlink:href="#DejaVuSans-47"/>
      <use x="639.160156" xlink:href="#DejaVuSans-65"/>
      <use x="700.683594" xlink:href="#DejaVuSans-6e"/>
      <use x="764.0625" xlink:href="#DejaVuSans-65"/>
      <use x="825.585938" xlink:href="#DejaVuSans-72"/>
      <use x="866.699219" xlink:href="#DejaVuSans-61"/>
      <use x="927.978516" xlink:href="#DejaVuSans-74"/>
      <use x="967.1875" xlink:href="#DejaVuSans-69"/>
      <use x="994.970703" xlink:href="#DejaVuSans-6f"/>
      <use x="1056.152344" xlink:href="#DejaVuSans-6e"/>
     </g>
    </g>
   </g>
   <g id="matplotlib.axis_2">
    <g id="ytick_1">
     <g id="line2d_7">
      <defs>
       <path d="M 0 0 
L -3.5 0 
" id="m2a60fbabe1" style="stroke:#000000;stroke-width:0.8;"/>
      </defs>
      <g>
       <use style="stroke:#000000;stroke-width:0.8;" x="43.78125" xlink:href="#m2a60fbabe1" y="276.610225"/>
      </g>
     </g>
     <g id="text_8">
      <!-- 0.0 -->
      <g transform="translate(20.878125 280.409444)scale(0.1 -0.1)">
       <defs>
        <path d="M 684 794 
L 1344 794 
L 1344 0 
L 684 0 
L 684 794 
z
" id="DejaVuSans-2e" transform="scale(0.015625)"/>
       </defs>
       <use xlink:href="#DejaVuSans-30"/>
       <use x="63.623047" xlink:href="#DejaVuSans-2e"/>
       <use x="95.410156" xlink:href="#DejaVuSans-30"/>
      </g>
     </g>
    </g>
    <g id="ytick_2">
     <g id="line2d_8">
      <g>
       <use style="stroke:#000000;stroke-width:0.8;" x="43.78125" xlink:href="#m2a60fbabe1" y="221.78492"/>
      </g>
     </g>
     <g id="text_9">
      <!-- 0.1 -->
      <g transform="translate(20.878125 225.584139)scale(0.1 -0.1)">
       <use xlink:href="#DejaVuSans-30"/>
       <use x="63.623047" xlink:href="#DejaVuSans-2e"/>
       <use x="95.410156" xlink:href="#DejaVuSans-31"/>
      </g>
     </g>
    </g>
    <g id="ytick_3">
     <g id="line2d_9">
      <g>
       <use style="stroke:#000000;stroke-width:0.8;" x="43.78125" xlink:href="#m2a60fbabe1" y="166.959615"/>
      </g>
     </g>
     <g id="text_10">
      <!-- 0.2 -->
      <g transform="translate(20.878125 170.758834)scale(0.1 -0.1)">
       <use xlink:href="#DejaVuSans-30"/>
       <use x="63.623047" xlink:href="#DejaVuSans-2e"/>
       <use x="95.410156" xlink:href="#DejaVuSans-32"/>
      </g>
     </g>
    </g>
    <g id="ytick_4">
     <g id="line2d_10">
      <g>
       <use style="stroke:#000000;stroke-width:0.8;" x="43.78125" xlink:href="#m2a60fbabe1" y="112.13431"/>
      </g>
     </g>
     <g id="text_11">
      <!-- 0.3 -->
      <g transform="translate(20.878125 115.933529)scale(0.1 -0.1)">
       <defs>
        <path d="M 2597 2516 
Q 3050 2419 3304 2112 
Q 3559 1806 3559 1356 
Q 3559 666 3084 287 
Q 2609 -91 1734 -91 
Q 1441 -91 1130 -33 
Q 819 25 488 141 
L 488 750 
Q 750 597 1062 519 
Q 1375 441 1716 441 
Q 2309 441 2620 675 
Q 2931 909 2931 1356 
Q 2931 1769 2642 2001 
Q 2353 2234 1838 2234 
L 1294 2234 
L 1294 2753 
L 1863 2753 
Q 2328 2753 2575 2939 
Q 2822 3125 2822 3475 
Q 2822 3834 2567 4026 
Q 2313 4219 1838 4219 
Q 1578 4219 1281 4162 
Q 984 4106 628 3988 
L 628 4550 
Q 988 4650 1302 4700 
Q 1616 4750 1894 4750 
Q 2613 4750 3031 4423 
Q 3450 4097 3450 3541 
Q 3450 3153 3228 2886 
Q 3006 2619 2597 2516 
z
" id="DejaVuSans-33" transform="scale(0.015625)"/>
       </defs>
       <use xlink:href="#DejaVuSans-30"/>
       <use x="63.623047" xlink:href="#DejaVuSans-2e"/>
       <use x="95.410156" xlink:href="#DejaVuSans-33"/>
      </g>
     </g>
    </g>
    <g id="ytick_5">
     <g id="line2d_11">
      <g>
       <use style="stroke:#000000;stroke-width:0.8;" x="43.78125" xlink:href="#m2a60fbabe1" y="57.309005"/>
      </g>
     </g>
     <g id="text_12">
      <!-- 0.4 -->
      <g transform="translate(20.878125 61.108223)scale(0.1 -0.1)">
       <use xlink:href="#DejaVuSans-30"/>
       <use x="63.623047" xlink:href="#DejaVuSans-2e"/>
       <use x="95.410156" xlink:href="#DejaVuSans-34"/>
      </g>
     </g>
    </g>
    <g id="text_13">
     <!-- Value -->
     <g transform="translate(14.798438 169.105375)rotate(-90)scale(0.1 -0.1)">
      <defs>
       <path d="M 1831 0 
L 50 4666 
L 709 4666 
L 2188 738 
L 3669 4666 
L 4325 4666 
L 2547 0 
L 1831 0 
z
" id="DejaVuSans-56" transform="scale(0.015625)"/>
       <path d="M 603 4863 
L 1178 4863 
L 1178 0 
L 603 0 
L 603 4863 
z
" id="DejaVuSans-6c" transform="scale(0.015625)"/>
      </defs>
      <use xlink:href="#DejaVuSans-56"/>
      <use x="60.658203" xlink:href="#DejaVuSans-61"/>
      <use x="121.9375" xlink:href="#DejaVuSans-6c"/>
      <use x="149.720703" xlink:href="#DejaVuSans-75"/>
      <use x="213.099609" xlink:href="#DejaVuSans-65"/>
     </g>
    </g>
   </g>
   <g id="line2d_12">
    <path clip-path="url(#paba55567d7)" d="M 60.013977 276.198314 
L 60.339282 276.334125 
L 60.664588 269.038998 
L 60.989893 232.160678 
L 61.640503 203.404852 
L 61.965808 190.740302 
L 62.616419 182.719986 
L 62.941724 187.633977 
L 63.267029 185.945804 
L 63.592334 181.061002 
L 63.917639 179.604401 
L 64.242944 173.616993 
L 64.568249 163.67368 
L 64.893555 165.657529 
L 65.21886 163.941933 
L 65.544165 153.103357 
L 66.194775 151.510446 
L 66.52008 151.592791 
L 66.845386 151.983705 
L 67.170691 151.267937 
L 67.495996 150.187776 
L 67.821301 150.983677 
L 68.146606 149.476871 
L 68.471911 153.14131 
L 68.797216 148.987038 
L 69.122522 148.172795 
L 69.447827 135.583624 
L 69.773132 137.351676 
L 70.098437 133.863703 
L 70.423742 134.873455 
L 70.749047 136.875181 
L 71.399658 126.098194 
L 72.050268 119.600061 
L 72.375573 119.883662 
L 72.700878 110.209956 
L 73.026184 109.831027 
L 73.351489 106.958987 
L 73.676794 108.04893 
L 74.002099 110.897103 
L 74.327404 111.235224 
L 74.652709 113.299751 
L 74.978014 112.422497 
L 75.30332 114.370048 
L 75.628625 113.150545 
L 75.95393 111.027718 
L 76.60454 112.550009 
L 76.929845 106.713334 
L 77.255151 106.995625 
L 77.580456 110.766227 
L 77.905761 109.362837 
L 78.231066 111.754246 
L 78.556371 108.433293 
L 78.881676 109.92137 
L 79.206981 107.596502 
L 79.532287 113.480254 
L 79.857592 114.071049 
L 80.182897 111.889343 
L 80.833507 110.425462 
L 81.158812 108.382454 
L 81.484118 103.879383 
L 81.809423 103.68945 
L 82.134728 98.300283 
L 82.460033 98.102054 
L 82.785338 98.273157 
L 83.110643 103.54187 
L 83.435948 101.627305 
L 83.761254 101.833832 
L 84.086559 98.569252 
L 84.411864 100.315265 
L 84.737169 98.246439 
L 85.387779 99.291814 
L 85.713085 99.36618 
L 86.363695 92.519742 
L 86.689 91.524915 
L 87.014305 91.790346 
L 87.33961 91.693238 
L 87.664916 90.203696 
L 87.990221 87.293132 
L 88.315526 86.906216 
L 88.640831 87.212705 
L 88.966136 88.10609 
L 89.291441 87.062721 
L 89.616746 86.608421 
L 89.942052 84.110857 
L 90.267357 86.451916 
L 90.592662 87.612663 
L 90.917967 87.375732 
L 91.243272 85.578094 
L 91.568577 86.375837 
L 91.893883 81.881123 
L 92.219188 79.038385 
L 92.544493 78.605993 
L 92.869798 80.035351 
L 93.195103 80.319879 
L 93.520408 79.654488 
L 93.845713 80.636404 
L 94.171019 83.433499 
L 94.496324 82.213752 
L 94.821629 81.874785 
L 95.146934 82.804138 
L 95.472239 82.765976 
L 95.797544 83.654923 
L 96.77346 78.371009 
L 97.098765 79.084529 
L 97.42407 77.95804 
L 97.749375 74.315698 
L 98.07468 73.062914 
L 98.399986 74.375794 
L 99.050596 73.737846 
L 99.701206 76.920656 
L 100.026511 74.219892 
L 100.351817 77.798748 
L 100.677122 77.540552 
L 101.002427 77.642506 
L 101.327732 76.275396 
L 101.978342 75.392568 
L 102.628953 73.232998 
L 102.954258 70.856078 
L 103.279563 66.491425 
L 103.604868 70.575477 
L 103.930173 69.969471 
L 104.255478 67.993469 
L 104.580784 68.116085 
L 104.906089 67.997382 
L 105.231394 65.842458 
L 105.556699 65.173776 
L 105.882004 67.958844 
L 106.207309 68.793687 
L 106.532615 67.429952 
L 106.85792 68.720164 
L 107.183225 65.793471 
L 107.50853 65.295411 
L 107.833835 68.399983 
L 108.15914 69.773204 
L 108.484445 70.415938 
L 108.809751 69.865701 
L 109.135056 70.975662 
L 109.460361 69.656182 
L 109.785666 69.410521 
L 110.110971 68.234686 
L 110.436276 68.280003 
L 110.761582 68.153594 
L 111.086887 67.619341 
L 111.737497 65.59681 
L 112.062802 66.00704 
L 112.388107 65.918793 
L 113.038718 68.046267 
L 113.364023 69.162475 
L 113.689328 68.668767 
L 114.339938 64.194395 
L 114.990549 63.917728 
L 115.315854 62.646491 
L 115.641159 63.369164 
L 115.966464 62.799135 
L 116.291769 62.794365 
L 116.617074 61.82126 
L 116.94238 61.279851 
L 117.267685 61.716317 
L 117.918295 60.910167 
L 118.2436 59.109447 
L 118.568905 58.424935 
L 118.89421 60.736058 
L 119.219516 61.787869 
L 119.544821 60.745598 
L 119.870126 61.22261 
L 120.195431 60.41169 
L 120.520736 60.519017 
L 120.846041 61.635225 
L 121.171347 63.152124 
L 121.821957 59.278786 
L 122.147262 58.918642 
L 123.448483 61.995369 
L 123.773788 63.631521 
L 124.424398 61.575599 
L 124.749703 64.375659 
L 125.075008 65.162729 
L 125.400314 64.368504 
L 125.725619 64.974309 
L 126.376229 62.455484 
L 126.701534 61.071139 
L 127.026839 65.204464 
L 127.352145 65.447882 
L 127.67745 64.877521 
L 128.32806 61.141505 
L 128.653365 60.374457 
L 128.97867 62.286102 
L 129.303975 62.81758 
L 129.629281 61.260796 
L 129.954586 62.294654 
L 130.605196 60.601142 
L 130.930501 60.354072 
L 131.255806 61.303974 
L 131.581112 58.245354 
L 131.906417 52.470424 
L 132.231722 52.869895 
L 132.557027 51.847936 
L 132.882332 52.945868 
L 133.207637 52.894402 
L 133.532942 50.723046 
L 133.858248 51.725399 
L 134.183553 52.301323 
L 134.834163 52.727752 
L 135.159468 52.661582 
L 135.484773 52.338084 
L 136.135384 55.425283 
L 136.460689 54.731437 
L 136.785994 55.58075 
L 137.111299 54.791201 
L 137.436604 55.698446 
L 137.76191 55.254632 
L 138.087215 51.679595 
L 138.41252 52.834494 
L 138.737825 51.842624 
L 139.06313 53.464086 
L 139.388435 53.890916 
L 139.71374 56.110922 
L 140.039046 55.995629 
L 140.364351 54.612111 
L 141.014961 46.937577 
L 141.340266 46.688131 
L 141.665571 44.695055 
L 141.990877 46.812854 
L 142.316182 47.306758 
L 142.641487 47.244396 
L 142.966792 47.556204 
L 143.292097 46.658197 
L 143.617402 46.478596 
L 143.942707 47.478876 
L 144.918623 48.284587 
L 145.243928 47.987746 
L 145.569233 47.239407 
L 146.219844 47.840573 
L 146.545149 47.299274 
L 147.195759 49.546785 
L 147.521064 47.109695 
L 147.846369 48.813413 
L 148.49698 48.080041 
L 148.822285 46.39129 
L 149.14759 47.0174 
L 149.472895 47.947835 
L 149.7982 47.466403 
L 150.123505 47.351658 
L 150.448811 46.585858 
L 150.774116 46.406257 
L 151.099421 47.27433 
L 151.424726 46.678153 
L 151.750031 47.476381 
L 152.400642 49.519346 
L 152.725947 50.439803 
L 153.051252 50.085589 
L 153.376557 49.481929 
L 154.027167 47.703377 
L 154.352472 47.35255 
L 154.677778 45.210795 
L 155.003083 44.501869 
L 155.328388 45.435454 
L 155.978998 48.523276 
L 156.304303 46.454262 
L 156.954914 47.638341 
L 157.280219 47.545913 
L 157.605524 48.277844 
L 157.930829 47.930614 
L 158.256134 48.045524 
L 158.581439 47.168706 
L 158.906745 45.082829 
L 159.557355 46.489235 
L 160.207965 48.842405 
L 160.53327 48.312816 
L 160.858576 48.987292 
L 161.183881 48.854895 
L 161.509186 49.534366 
L 161.834491 48.957315 
L 162.159796 49.202125 
L 162.485101 50.303768 
L 162.810406 47.098761 
L 163.135712 45.739818 
L 163.461017 45.54497 
L 163.786322 46.744037 
L 164.111627 46.760502 
L 164.436932 49.010328 
L 164.762237 49.172816 
L 165.087543 49.935257 
L 165.412848 53.232502 
L 165.738153 53.26 
L 166.063458 53.447485 
L 166.388763 53.052516 
L 166.714068 53.010019 
L 167.364679 54.399911 
L 167.689984 53.982444 
L 168.340594 50.460216 
L 168.991204 52.385067 
L 169.31651 52.725041 
L 169.641815 50.602705 
L 169.96712 46.66301 
L 170.292425 45.298115 
L 170.61773 45.595592 
L 170.943035 46.568017 
L 171.268341 48.455187 
L 171.593646 47.091761 
L 171.918951 48.109953 
L 172.569561 48.81293 
L 172.894866 47.648624 
L 173.545477 49.002714 
L 173.870782 49.366312 
L 174.196087 49.098002 
L 174.521392 47.625634 
L 175.497308 47.547396 
L 175.822613 47.078777 
L 176.147918 44.819038 
L 176.473223 46.876789 
L 176.798528 47.407007 
L 177.123833 47.540824 
L 177.449139 47.159572 
L 178.099749 48.326052 
L 178.425054 50.141418 
L 178.750359 48.071042 
L 179.075664 48.803248 
L 179.400969 50.532126 
L 179.726275 46.37846 
L 180.05158 47.348069 
L 180.376885 45.325524 
L 180.70219 44.39379 
L 181.027495 46.009806 
L 181.3528 44.593267 
L 181.678106 44.292789 
L 182.003411 45.41895 
L 182.328716 45.903755 
L 182.654021 45.913552 
L 182.979326 45.75897 
L 183.304631 44.311984 
L 183.629936 43.49853 
L 184.280547 42.711881 
L 184.605852 43.568642 
L 184.931157 41.196072 
L 185.256462 39.877978 
L 185.581767 39.619429 
L 185.907073 39.733495 
L 186.232378 40.577582 
L 186.557683 39.639707 
L 187.208293 44.648465 
L 187.533598 43.59399 
L 187.858903 43.21884 
L 188.184209 42.027486 
L 188.509514 41.690358 
L 188.834819 42.570586 
L 189.160124 40.214746 
L 189.485429 41.959437 
L 189.810734 42.545227 
L 190.13604 43.655946 
L 190.461345 41.272211 
L 190.78665 41.429436 
L 191.111955 40.420153 
L 191.43726 40.648383 
L 191.762565 41.464939 
L 192.087871 41.792068 
L 192.413176 41.934078 
L 192.738481 41.794604 
L 193.063786 42.75317 
L 193.389091 40.410009 
L 193.714396 41.548623 
L 194.039701 42.16738 
L 194.365007 40.425225 
L 194.690312 40.643311 
L 195.015617 41.419293 
L 195.340922 40.653455 
L 195.666227 40.49623 
L 195.991532 42.466615 
L 196.316838 41.677953 
L 196.642143 41.88336 
L 196.967448 43.037189 
L 197.292753 42.001919 
L 197.618058 42.892711 
L 197.943363 42.684606 
L 198.268668 42.775969 
L 198.919279 39.784316 
L 199.244584 40.09465 
L 199.569889 39.63678 
L 199.895194 40.112457 
L 200.220499 40.898468 
L 200.545805 41.300376 
L 200.87111 39.832647 
L 201.196415 40.089563 
L 201.52172 40.784 
L 201.847025 42.783368 
L 202.17233 42.055863 
L 202.497635 43.401493 
L 202.822941 42.434878 
L 203.148246 42.002444 
L 203.473551 42.72995 
L 203.798856 42.656182 
L 204.124161 43.950938 
L 204.774772 43.612623 
L 205.100077 42.49084 
L 205.425382 42.223749 
L 205.750687 41.28257 
L 206.075992 41.791315 
L 206.401297 40.191312 
L 206.726603 40.946798 
L 207.051908 43.170014 
L 207.377213 43.907695 
L 207.702518 43.195452 
L 208.027823 43.144577 
L 208.353128 43.523592 
L 209.003739 42.218661 
L 209.329044 42.091475 
L 209.654349 40.641551 
L 210.304959 43.434562 
L 210.630264 41.791315 
L 210.95557 42.203399 
L 211.280875 40.438053 
L 211.60618 39.743616 
L 212.25679 35.543926 
L 212.582095 39.972552 
L 212.9074 38.563328 
L 213.558011 39.374776 
L 213.883316 41.536943 
L 214.208621 41.369057 
L 215.184537 42.658726 
L 215.509842 42.455228 
L 215.835147 42.475577 
L 216.160452 43.760159 
L 216.485757 44.149349 
L 216.811062 44.022162 
L 217.136368 42.630745 
L 217.461673 40.532171 
L 217.786978 39.438369 
L 218.112283 39.283202 
L 218.437588 38.235187 
L 218.762893 37.695918 
L 219.088198 37.871435 
L 219.413504 40.028514 
L 220.064114 38.634552 
L 220.389419 38.807526 
L 220.714724 35.742337 
L 221.040029 36.322306 
L 221.365335 38.76937 
L 221.69064 42.488296 
L 222.015945 42.933459 
L 222.34125 41.941385 
L 222.99186 41.483504 
L 223.317165 41.535967 
L 223.642471 40.994064 
L 223.967776 40.89993 
L 224.293081 38.363414 
L 224.943691 40.129053 
L 225.268996 40.386012 
L 225.919607 40.472513 
L 226.244912 40.284246 
L 226.570217 39.676195 
L 226.895522 40.988975 
L 227.546132 41.223037 
L 227.871438 40.988975 
L 228.196743 41.332435 
L 228.522048 40.045096 
L 228.847353 40.538661 
L 229.172658 38.635638 
L 229.497963 39.174997 
L 229.823269 40.083258 
L 230.148574 39.269131 
L 230.473879 38.126808 
L 230.799184 38.587299 
L 231.124489 38.147161 
L 231.449794 39.083408 
L 231.7751 40.584456 
L 232.100405 41.133992 
L 232.42571 42.63504 
L 232.751015 43.421182 
L 233.401625 43.403372 
L 233.72693 42.029532 
L 234.052236 41.546144 
L 234.702846 39.129914 
L 235.028151 39.632944 
L 235.353456 41.245934 
L 236.004067 43.001397 
L 236.329372 41.981193 
L 236.654677 42.848748 
L 236.979982 40.945725 
L 237.305287 42.014267 
L 237.955897 41.299361 
L 238.281203 39.686371 
L 238.606508 40.398733 
L 238.931813 40.469969 
L 239.257118 40.294423 
L 239.582423 40.467425 
L 239.907728 41.230669 
L 240.558339 44.543151 
L 240.883644 43.996159 
L 241.208949 44.583857 
L 241.534254 44.858626 
L 241.859559 44.864735 
L 242.184865 44.533841 
L 242.51017 43.192374 
L 243.16078 39.543867 
L 243.486085 39.493132 
L 243.81139 39.834425 
L 244.136695 38.830921 
L 244.462001 39.814049 
L 244.787306 39.949774 
L 245.112611 40.252897 
L 245.437916 39.983855 
L 245.763221 39.994987 
L 246.088526 38.866379 
L 246.413832 40.030654 
L 246.739137 39.225597 
L 247.064442 39.248526 
L 247.389747 39.4931 
L 247.715052 40.591136 
L 248.040357 40.303252 
L 248.365662 39.254749 
L 248.690968 39.114461 
L 249.016273 36.864743 
L 249.341578 37.005031 
L 249.666883 38.134992 
L 249.992188 37.193783 
L 250.317493 36.987176 
L 250.642799 37.132566 
L 250.968104 37.007094 
L 251.293409 36.73927 
L 251.618714 36.295447 
L 251.944019 36.428084 
L 252.269324 38.374273 
L 252.594629 36.994341 
L 252.919935 37.82332 
L 253.24524 39.30528 
L 253.89585 36.999442 
L 254.221155 39.381801 
L 254.871766 39.05276 
L 255.197071 39.761857 
L 255.522376 41.134137 
L 255.847681 41.340744 
L 256.498291 40.215756 
L 256.823597 40.412341 
L 257.148902 40.820829 
L 257.474207 39.950239 
L 257.799512 40.180014 
L 258.124817 41.420795 
L 258.450122 42.125437 
L 258.775427 41.359522 
L 259.100733 41.987572 
L 259.426038 39.863435 
L 259.751343 39.227726 
L 260.076648 38.888171 
L 260.401953 37.768105 
L 260.727258 38.957835 
L 261.052564 38.896562 
L 261.377869 39.128891 
L 261.703174 39.131444 
L 262.028479 39.476108 
L 262.679089 41.750892 
L 263.004394 40.351811 
L 263.3297 39.87694 
L 263.655005 40.724559 
L 263.98031 40.476911 
L 264.305615 41.434312 
L 264.63092 41.676853 
L 264.956225 39.218248 
L 265.281531 39.3025 
L 265.606836 41.005396 
L 266.257446 42.077685 
L 266.582751 41.636004 
L 266.908056 41.853015 
L 267.233361 41.697278 
L 267.558667 42.488729 
L 267.883972 42.235975 
L 268.534582 42.299802 
L 268.859887 41.697278 
L 269.185192 39.381645 
L 269.510498 39.874387 
L 270.486413 38.388501 
L 270.811718 39.016556 
L 271.137023 38.747286 
L 271.462329 40.400319 
L 271.787634 41.12847 
L 272.112939 41.302205 
L 272.438244 41.268991 
L 272.763549 41.067152 
L 273.088854 38.706407 
L 273.414159 38.536211 
L 273.739465 37.930619 
L 274.06477 37.736421 
L 274.71538 36.80376 
L 275.040685 37.39402 
L 275.36599 37.181935 
L 275.691296 38.500437 
L 276.016601 37.074615 
L 276.341906 38.04305 
L 276.667211 38.462109 
L 276.992516 40.186894 
L 277.317821 40.447528 
L 277.643126 41.216655 
L 277.968432 40.309545 
L 278.293737 38.689525 
L 278.619042 39.083031 
L 278.944347 38.386294 
L 279.594957 40.384546 
L 280.245568 37.387167 
L 280.570873 37.622256 
L 280.896178 38.772146 
L 281.221483 37.819015 
L 281.546788 39.658838 
L 281.872094 39.916925 
L 282.197399 41.432224 
L 282.848009 39.865818 
L 283.173314 40.836836 
L 283.498619 39.694613 
L 283.823924 39.518296 
L 284.14923 38.138429 
L 284.474535 35.118052 
L 284.79984 38.841139 
L 285.125145 34.440894 
L 285.45045 35.514125 
L 285.775755 40.801062 
L 286.101061 40.062577 
L 286.426366 38.930575 
L 286.751671 36.880739 
L 287.402281 39.032338 
L 287.727586 38.804912 
L 288.052891 37.667785 
L 288.378197 39.701838 
L 288.703502 39.221433 
L 289.028807 37.89521 
L 289.679417 39.778498 
L 290.004722 37.683117 
L 290.330028 38.505937 
L 290.655333 37.601346 
L 290.980638 38.697588 
L 291.305943 38.858575 
L 291.956553 38.671766 
L 292.281858 37.868506 
L 292.932469 37.771357 
L 293.257774 37.354637 
L 293.583079 35.570159 
L 293.908384 36.050792 
L 294.233689 36.96604 
L 294.558995 36.656697 
L 295.209605 37.725339 
L 295.53491 37.495248 
L 295.860215 35.669865 
L 296.836131 38.226424 
L 297.161436 37.68699 
L 297.486741 39.307849 
L 297.812046 39.898414 
L 298.137351 39.100767 
L 298.462656 37.597511 
L 298.787962 38.044908 
L 299.113267 37.69466 
L 299.438572 40.102939 
L 299.763877 40.07993 
L 300.089182 40.708843 
L 300.414487 39.964884 
L 301.065098 39.629975 
L 301.390403 40.233323 
L 301.715708 39.307849 
L 302.366318 38.648256 
L 302.691623 36.562104 
L 303.016929 36.434276 
L 303.342234 36.457285 
L 303.992844 38.050022 
L 304.318149 36.447059 
L 304.643454 35.953643 
L 304.96876 36.411267 
L 305.294065 36.209299 
L 305.61937 35.314503 
L 305.944675 36.393371 
L 306.26998 36.173507 
L 306.595285 36.301335 
L 306.92059 35.685204 
L 307.245896 36.135159 
L 307.571201 36.958371 
L 307.896506 37.267714 
L 308.547116 37.497805 
L 308.872421 37.124547 
L 309.197727 38.540881 
L 309.523032 38.231537 
L 310.173642 38.58673 
L 310.498947 38.231356 
L 310.824252 38.54071 
L 311.149558 38.658316 
L 311.474863 36.72805 
L 311.800168 38.351518 
L 312.125473 38.15977 
L 312.450778 38.589286 
L 312.776083 38.763138 
L 313.426694 36.730607 
L 313.751999 36.418696 
L 314.077304 36.72038 
L 314.402609 37.773717 
L 315.053219 36.801287 
L 315.378525 37.422554 
L 315.70383 37.189898 
L 316.35444 39.30425 
L 316.679745 38.961659 
L 317.00505 37.601519 
L 317.330355 39.864157 
L 317.655661 39.483216 
L 318.306271 39.89995 
L 318.631576 39.109006 
L 318.956881 39.080877 
L 319.282186 37.712782 
L 319.607492 37.239703 
L 319.932797 36.490447 
L 320.258102 36.909826 
L 320.583407 36.2424 
L 321.234017 36.421403 
L 321.559323 37.308747 
L 321.884628 36.602964 
L 322.209933 36.825439 
L 322.535238 37.372677 
L 322.860543 39.236865 
L 323.185848 39.625336 
L 323.511153 39.791553 
L 323.836459 39.561406 
L 324.161764 39.147142 
L 324.487069 38.993711 
L 325.137679 36.950517 
L 325.78829 36.980303 
L 326.113595 38.527425 
L 326.4389 37.297399 
L 326.764205 36.78084 
L 327.08951 35.929284 
L 327.414815 36.537903 
L 327.74012 38.376548 
L 328.065426 38.762689 
L 328.390731 38.622042 
L 328.716036 38.131055 
L 329.041341 39.384095 
L 329.366646 39.072114 
L 329.691951 39.644932 
L 330.017257 39.312493 
L 330.342562 39.187189 
L 330.667867 41.307129 
L 331.318477 39.230662 
L 331.643782 38.995397 
L 331.969087 38.555554 
L 332.294393 38.954481 
L 332.619698 38.294717 
L 332.945003 39.627031 
L 333.270308 39.685848 
L 333.595613 40.701066 
L 333.920918 40.96446 
L 334.246224 40.701066 
L 334.571529 40.089889 
L 334.896834 39.72733 
L 335.222139 39.082904 
L 335.547444 40.719542 
L 335.872749 40.307825 
L 336.198055 40.090459 
L 336.52336 40.233665 
L 336.848665 39.425575 
L 337.17397 42.112461 
L 337.82458 41.475704 
L 338.149885 40.555092 
L 338.475191 39.028411 
L 338.800496 40.301924 
L 339.451106 40.639482 
L 339.776411 41.22765 
L 340.427022 40.450245 
L 340.752327 40.913108 
L 341.077632 37.670508 
L 341.402937 37.534973 
L 341.728242 37.734439 
L 342.053547 39.156273 
L 342.378852 38.371196 
L 342.704158 38.690853 
L 343.029463 38.849403 
L 343.680073 38.000394 
L 344.005378 38.772685 
L 344.330683 39.151159 
L 344.655989 39.897877 
L 344.981294 38.445356 
L 345.306599 37.987608 
L 345.631904 35.66562 
L 345.957209 37.560546 
L 346.282514 38.542532 
L 346.60782 38.164058 
L 346.933125 37.419897 
L 347.25843 37.056767 
L 347.583735 38.501616 
L 347.90904 38.882647 
L 348.234345 37.933905 
L 348.55965 40.038527 
L 348.884956 39.626808 
L 349.210261 37.450584 
L 349.860871 40.590894 
L 350.186176 35.84207 
L 350.511481 39.189454 
L 350.836787 40.41438 
L 351.162092 39.437508 
L 351.487397 39.061591 
L 351.812702 39.253385 
L 352.463312 39.199683 
L 352.788617 38.644759 
L 353.113923 40.243044 
L 353.439228 39.923387 
L 353.764533 40.209799 
L 354.089838 39.739264 
L 354.415143 40.025677 
L 355.065754 39.041133 
L 355.391059 40.161211 
L 356.366974 38.238155 
L 356.692279 37.095061 
L 357.017584 37.15827 
L 357.34289 37.945907 
L 357.668195 35.854065 
L 357.9935 41.510733 
L 358.318805 40.198856 
L 358.64411 39.377975 
L 358.969415 39.528853 
L 359.294721 40.426453 
L 359.620026 40.393208 
L 359.945331 40.053092 
L 360.270636 38.812768 
L 360.595941 39.66178 
L 360.921246 39.127311 
L 361.246552 39.296091 
L 361.571857 40.357356 
L 361.897162 38.316659 
L 362.222467 38.828111 
L 362.547772 41.162894 
L 362.873077 40.137431 
L 363.198382 41.124535 
L 363.523688 43.543707 
L 363.848993 41.592514 
L 364.174298 41.168008 
L 364.499603 40.124644 
L 364.824908 40.799762 
L 365.150213 40.597738 
L 365.475519 41.004343 
L 365.800824 38.434293 
L 366.126129 39.022318 
L 366.451434 37.766701 
L 366.776739 38.055672 
L 367.102044 39.247358 
L 367.427349 38.6464 
L 367.752655 37.007193 
L 368.07796 34.414125 
L 368.403265 36.137722 
L 368.72857 35.715773 
L 369.053875 37.450121 
L 369.37918 37.184163 
L 369.704486 37.250653 
L 370.355096 37.976922 
L 370.680401 37.843943 
L 371.005706 37.232752 
L 371.331011 37.475694 
L 371.656316 36.777554 
L 371.981622 38.132917 
L 372.306927 40.022752 
L 372.632232 39.907675 
L 372.957537 41.032881 
L 373.282842 40.286048 
L 373.608147 38.442242 
L 373.933453 38.281133 
L 374.258758 37.738988 
L 374.584063 38.099566 
L 374.909368 38.030519 
L 375.234673 38.590565 
L 375.559978 37.915441 
L 375.885284 39.777147 
L 376.535894 38.321713 
L 376.861199 38.127359 
L 377.186504 38.493052 
L 377.511809 38.198696 
L 378.16242 39.073291 
L 378.81303 38.456983 
L 379.138335 37.856019 
L 379.46364 37.884149 
L 379.788945 38.096404 
L 380.114251 36.280725 
L 380.439556 37.224367 
L 381.090166 37.206466 
L 381.415471 37.285742 
L 381.740776 38.173123 
L 382.066081 38.009456 
L 382.391387 38.46977 
L 382.716692 38.395608 
L 383.367302 37.024898 
L 383.692607 37.569581 
L 384.017912 37.472404 
L 384.343218 38.474863 
L 384.668523 37.441716 
L 384.668523 37.441716 
" style="fill:none;stroke:#1f77b4;stroke-linecap:square;stroke-width:1.5;"/>
   </g>
   <g id="patch_3">
    <path d="M 43.78125 288.430125 
L 43.78125 22.318125 
" style="fill:none;stroke:#000000;stroke-linecap:square;stroke-linejoin:miter;stroke-width:0.8;"/>
   </g>
   <g id="patch_4">
    <path d="M 400.90125 288.430125 
L 400.90125 22.318125 
" style="fill:none;stroke:#000000;stroke-linecap:square;stroke-linejoin:miter;stroke-width:0.8;"/>
   </g>
   <g id="patch_5">
    <path d="M 43.78125 288.430125 
L 400.90125 288.430125 
" style="fill:none;stroke:#000000;stroke-linecap:square;stroke-linejoin:miter;stroke-width:0.8;"/>
   </g>
   <g id="patch_6">
    <path d="M 43.78125 22.318125 
L 400.90125 22.318125 
" style="fill:none;stroke:#000000;stroke-linecap:square;stroke-linejoin:miter;stroke-width:0.8;"/>
   </g>
   <g id="text_14">
    <!-- hv -->
    <g transform="translate(214.9875 16.318125)scale(0.12 -0.12)">
     <defs>
      <path d="M 3513 2113 
L 3513 0 
L 2938 0 
L 2938 2094 
Q 2938 2591 2744 2837 
Q 2550 3084 2163 3084 
Q 1697 3084 1428 2787 
Q 1159 2491 1159 1978 
L 1159 0 
L 581 0 
L 581 4863 
L 1159 4863 
L 1159 2956 
Q 1366 3272 1645 3428 
Q 1925 3584 2291 3584 
Q 2894 3584 3203 3211 
Q 3513 2838 3513 2113 
z
" id="DejaVuSans-68" transform="scale(0.015625)"/>
      <path d="M 191 3500 
L 800 3500 
L 1894 563 
L 2988 3500 
L 3597 3500 
L 2284 0 
L 1503 0 
L 191 3500 
z
" id="DejaVuSans-76" transform="scale(0.015625)"/>
     </defs>
     <use xlink:href="#DejaVuSans-68"/>
     <use x="63.378906" xlink:href="#DejaVuSans-76"/>
    </g>
   </g>
   <g id="legend_1">
    <g id="patch_7">
     <path d="M 50.78125 44.99625 
L 95.0375 44.99625 
Q 97.0375 44.99625 97.0375 42.99625 
L 97.0375 29.318125 
Q 97.0375 27.318125 95.0375 27.318125 
L 50.78125 27.318125 
Q 48.78125 27.318125 48.78125 29.318125 
L 48.78125 42.99625 
Q 48.78125 44.99625 50.78125 44.99625 
z
" style="fill:#ffffff;opacity:0.8;stroke:#cccccc;stroke-linejoin:miter;"/>
    </g>
    <g id="line2d_13">
     <path d="M 52.78125 35.416562 
L 72.78125 35.416562 
" style="fill:none;stroke:#1f77b4;stroke-linecap:square;stroke-width:1.5;"/>
    </g>
    <g id="line2d_14"/>
    <g id="text_15">
     <!-- hv -->
     <g transform="translate(80.78125 38.916562)scale(0.1 -0.1)">
      <use xlink:href="#DejaVuSans-68"/>
      <use x="63.378906" xlink:href="#DejaVuSans-76"/>
     </g>
    </g>
   </g>
  </g>
 </g>
 <defs>
  <clipPath id="paba55567d7">
   <rect height="266.112" width="357.12" x="43.78125" y="22.318125"/>
  </clipPath>
 </defs>
</svg>
