<?xml version="1.0" encoding="utf-8" standalone="no"?>
<!DOCTYPE svg PUBLIC "-//W3C//DTD SVG 1.1//EN"
  "http://www.w3.org/Graphics/SVG/1.1/DTD/svg11.dtd">
<svg height="325.986375pt" version="1.1" viewBox="0 0 419.665312 325.986375" width="419.665312pt" xmlns="http://www.w3.org/2000/svg" xmlns:xlink="http://www.w3.org/1999/xlink">
 <metadata>
  <rdf:RDF xmlns:cc="http://creativecommons.org/ns#" xmlns:dc="http://purl.org/dc/elements/1.1/" xmlns:rdf="http://www.w3.org/1999/02/22-rdf-syntax-ns#">
   <cc:Work>
    <dc:type rdf:resource="http://purl.org/dc/dcmitype/StillImage"/>
    <dc:date>2022-02-21T16:52:58.237533</dc:date>
    <dc:format>image/svg+xml</dc:format>
    <dc:creator>
     <cc:Agent>
      <dc:title>Matplotlib v3.4.1, https://matplotlib.org/</dc:title>
     </cc:Agent>
    </dc:creator>
   </cc:Work>
  </rdf:RDF>
 </metadata>
 <defs>
  <style type="text/css">*{stroke-linecap:butt;stroke-linejoin:round;}</style>
 </defs>
 <g id="figure_1">
  <g id="patch_1">
   <path d="M 0 325.986375 
L 419.665312 325.986375 
L 419.665312 0 
L 0 0 
z
" style="fill:#ffffff;"/>
  </g>
  <g id="axes_1">
   <g id="patch_2">
    <path d="M 55.345313 288.430125 
L 412.465312 288.430125 
L 412.465312 22.318125 
L 55.345313 22.318125 
z
" style="fill:#ffffff;"/>
   </g>
   <g id="matplotlib.axis_1">
    <g id="xtick_1">
     <g id="line2d_1">
      <path clip-path="url(#pf939dd2b53)" d="M 71.57804 288.430125 
L 71.57804 22.318125 
" style="fill:none;stroke:#b0b0b0;stroke-linecap:square;stroke-width:0.8;"/>
     </g>
     <g id="line2d_2">
      <defs>
       <path d="M 0 0 
L 0 3.5 
" id="ma8b59ca178" style="stroke:#000000;stroke-width:0.8;"/>
      </defs>
      <g>
       <use style="stroke:#000000;stroke-width:0.8;" x="71.57804" xlink:href="#ma8b59ca178" y="288.430125"/>
      </g>
     </g>
     <g id="text_1">
      <!-- 1.0 -->
      <g transform="translate(63.626477 303.028562)scale(0.1 -0.1)">
       <defs>
        <path d="M 794 531 
L 1825 531 
L 1825 4091 
L 703 3866 
L 703 4441 
L 1819 4666 
L 2450 4666 
L 2450 531 
L 3481 531 
L 3481 0 
L 794 0 
L 794 531 
z
" id="DejaVuSans-31" transform="scale(0.015625)"/>
        <path d="M 684 794 
L 1344 794 
L 1344 0 
L 684 0 
L 684 794 
z
" id="DejaVuSans-2e" transform="scale(0.015625)"/>
        <path d="M 2034 4250 
Q 1547 4250 1301 3770 
Q 1056 3291 1056 2328 
Q 1056 1369 1301 889 
Q 1547 409 2034 409 
Q 2525 409 2770 889 
Q 3016 1369 3016 2328 
Q 3016 3291 2770 3770 
Q 2525 4250 2034 4250 
z
M 2034 4750 
Q 2819 4750 3233 4129 
Q 3647 3509 3647 2328 
Q 3647 1150 3233 529 
Q 2819 -91 2034 -91 
Q 1250 -91 836 529 
Q 422 1150 422 2328 
Q 422 3509 836 4129 
Q 1250 4750 2034 4750 
z
" id="DejaVuSans-30" transform="scale(0.015625)"/>
       </defs>
       <use xlink:href="#DejaVuSans-31"/>
       <use x="63.623047" xlink:href="#DejaVuSans-2e"/>
       <use x="95.410156" xlink:href="#DejaVuSans-30"/>
      </g>
     </g>
    </g>
    <g id="xtick_2">
     <g id="line2d_3">
      <path clip-path="url(#pf939dd2b53)" d="M 112.159858 288.430125 
L 112.159858 22.318125 
" style="fill:none;stroke:#b0b0b0;stroke-linecap:square;stroke-width:0.8;"/>
     </g>
     <g id="line2d_4">
      <g>
       <use style="stroke:#000000;stroke-width:0.8;" x="112.159858" xlink:href="#ma8b59ca178" y="288.430125"/>
      </g>
     </g>
     <g id="text_2">
      <!-- 1.5 -->
      <g transform="translate(104.208295 303.028562)scale(0.1 -0.1)">
       <defs>
        <path d="M 691 4666 
L 3169 4666 
L 3169 4134 
L 1269 4134 
L 1269 2991 
Q 1406 3038 1543 3061 
Q 1681 3084 1819 3084 
Q 2600 3084 3056 2656 
Q 3513 2228 3513 1497 
Q 3513 744 3044 326 
Q 2575 -91 1722 -91 
Q 1428 -91 1123 -41 
Q 819 9 494 109 
L 494 744 
Q 775 591 1075 516 
Q 1375 441 1709 441 
Q 2250 441 2565 725 
Q 2881 1009 2881 1497 
Q 2881 1984 2565 2268 
Q 2250 2553 1709 2553 
Q 1456 2553 1204 2497 
Q 953 2441 691 2322 
L 691 4666 
z
" id="DejaVuSans-35" transform="scale(0.015625)"/>
       </defs>
       <use xlink:href="#DejaVuSans-31"/>
       <use x="63.623047" xlink:href="#DejaVuSans-2e"/>
       <use x="95.410156" xlink:href="#DejaVuSans-35"/>
      </g>
     </g>
    </g>
    <g id="xtick_3">
     <g id="line2d_5">
      <path clip-path="url(#pf939dd2b53)" d="M 152.741676 288.430125 
L 152.741676 22.318125 
" style="fill:none;stroke:#b0b0b0;stroke-linecap:square;stroke-width:0.8;"/>
     </g>
     <g id="line2d_6">
      <g>
       <use style="stroke:#000000;stroke-width:0.8;" x="152.741676" xlink:href="#ma8b59ca178" y="288.430125"/>
      </g>
     </g>
     <g id="text_3">
      <!-- 2.0 -->
      <g transform="translate(144.790114 303.028562)scale(0.1 -0.1)">
       <defs>
        <path d="M 1228 531 
L 3431 531 
L 3431 0 
L 469 0 
L 469 531 
Q 828 903 1448 1529 
Q 2069 2156 2228 2338 
Q 2531 2678 2651 2914 
Q 2772 3150 2772 3378 
Q 2772 3750 2511 3984 
Q 2250 4219 1831 4219 
Q 1534 4219 1204 4116 
Q 875 4013 500 3803 
L 500 4441 
Q 881 4594 1212 4672 
Q 1544 4750 1819 4750 
Q 2544 4750 2975 4387 
Q 3406 4025 3406 3419 
Q 3406 3131 3298 2873 
Q 3191 2616 2906 2266 
Q 2828 2175 2409 1742 
Q 1991 1309 1228 531 
z
" id="DejaVuSans-32" transform="scale(0.015625)"/>
       </defs>
       <use xlink:href="#DejaVuSans-32"/>
       <use x="63.623047" xlink:href="#DejaVuSans-2e"/>
       <use x="95.410156" xlink:href="#DejaVuSans-30"/>
      </g>
     </g>
    </g>
    <g id="xtick_4">
     <g id="line2d_7">
      <path clip-path="url(#pf939dd2b53)" d="M 193.323494 288.430125 
L 193.323494 22.318125 
" style="fill:none;stroke:#b0b0b0;stroke-linecap:square;stroke-width:0.8;"/>
     </g>
     <g id="line2d_8">
      <g>
       <use style="stroke:#000000;stroke-width:0.8;" x="193.323494" xlink:href="#ma8b59ca178" y="288.430125"/>
      </g>
     </g>
     <g id="text_4">
      <!-- 2.5 -->
      <g transform="translate(185.371932 303.028562)scale(0.1 -0.1)">
       <use xlink:href="#DejaVuSans-32"/>
       <use x="63.623047" xlink:href="#DejaVuSans-2e"/>
       <use x="95.410156" xlink:href="#DejaVuSans-35"/>
      </g>
     </g>
    </g>
    <g id="xtick_5">
     <g id="line2d_9">
      <path clip-path="url(#pf939dd2b53)" d="M 233.905312 288.430125 
L 233.905312 22.318125 
" style="fill:none;stroke:#b0b0b0;stroke-linecap:square;stroke-width:0.8;"/>
     </g>
     <g id="line2d_10">
      <g>
       <use style="stroke:#000000;stroke-width:0.8;" x="233.905312" xlink:href="#ma8b59ca178" y="288.430125"/>
      </g>
     </g>
     <g id="text_5">
      <!-- 3.0 -->
      <g transform="translate(225.95375 303.028562)scale(0.1 -0.1)">
       <defs>
        <path d="M 2597 2516 
Q 3050 2419 3304 2112 
Q 3559 1806 3559 1356 
Q 3559 666 3084 287 
Q 2609 -91 1734 -91 
Q 1441 -91 1130 -33 
Q 819 25 488 141 
L 488 750 
Q 750 597 1062 519 
Q 1375 441 1716 441 
Q 2309 441 2620 675 
Q 2931 909 2931 1356 
Q 2931 1769 2642 2001 
Q 2353 2234 1838 2234 
L 1294 2234 
L 1294 2753 
L 1863 2753 
Q 2328 2753 2575 2939 
Q 2822 3125 2822 3475 
Q 2822 3834 2567 4026 
Q 2313 4219 1838 4219 
Q 1578 4219 1281 4162 
Q 984 4106 628 3988 
L 628 4550 
Q 988 4650 1302 4700 
Q 1616 4750 1894 4750 
Q 2613 4750 3031 4423 
Q 3450 4097 3450 3541 
Q 3450 3153 3228 2886 
Q 3006 2619 2597 2516 
z
" id="DejaVuSans-33" transform="scale(0.015625)"/>
       </defs>
       <use xlink:href="#DejaVuSans-33"/>
       <use x="63.623047" xlink:href="#DejaVuSans-2e"/>
       <use x="95.410156" xlink:href="#DejaVuSans-30"/>
      </g>
     </g>
    </g>
    <g id="xtick_6">
     <g id="line2d_11">
      <path clip-path="url(#pf939dd2b53)" d="M 274.487131 288.430125 
L 274.487131 22.318125 
" style="fill:none;stroke:#b0b0b0;stroke-linecap:square;stroke-width:0.8;"/>
     </g>
     <g id="line2d_12">
      <g>
       <use style="stroke:#000000;stroke-width:0.8;" x="274.487131" xlink:href="#ma8b59ca178" y="288.430125"/>
      </g>
     </g>
     <g id="text_6">
      <!-- 3.5 -->
      <g transform="translate(266.535568 303.028562)scale(0.1 -0.1)">
       <use xlink:href="#DejaVuSans-33"/>
       <use x="63.623047" xlink:href="#DejaVuSans-2e"/>
       <use x="95.410156" xlink:href="#DejaVuSans-35"/>
      </g>
     </g>
    </g>
    <g id="xtick_7">
     <g id="line2d_13">
      <path clip-path="url(#pf939dd2b53)" d="M 315.068949 288.430125 
L 315.068949 22.318125 
" style="fill:none;stroke:#b0b0b0;stroke-linecap:square;stroke-width:0.8;"/>
     </g>
     <g id="line2d_14">
      <g>
       <use style="stroke:#000000;stroke-width:0.8;" x="315.068949" xlink:href="#ma8b59ca178" y="288.430125"/>
      </g>
     </g>
     <g id="text_7">
      <!-- 4.0 -->
      <g transform="translate(307.117386 303.028562)scale(0.1 -0.1)">
       <defs>
        <path d="M 2419 4116 
L 825 1625 
L 2419 1625 
L 2419 4116 
z
M 2253 4666 
L 3047 4666 
L 3047 1625 
L 3713 1625 
L 3713 1100 
L 3047 1100 
L 3047 0 
L 2419 0 
L 2419 1100 
L 313 1100 
L 313 1709 
L 2253 4666 
z
" id="DejaVuSans-34" transform="scale(0.015625)"/>
       </defs>
       <use xlink:href="#DejaVuSans-34"/>
       <use x="63.623047" xlink:href="#DejaVuSans-2e"/>
       <use x="95.410156" xlink:href="#DejaVuSans-30"/>
      </g>
     </g>
    </g>
    <g id="xtick_8">
     <g id="line2d_15">
      <path clip-path="url(#pf939dd2b53)" d="M 355.650767 288.430125 
L 355.650767 22.318125 
" style="fill:none;stroke:#b0b0b0;stroke-linecap:square;stroke-width:0.8;"/>
     </g>
     <g id="line2d_16">
      <g>
       <use style="stroke:#000000;stroke-width:0.8;" x="355.650767" xlink:href="#ma8b59ca178" y="288.430125"/>
      </g>
     </g>
     <g id="text_8">
      <!-- 4.5 -->
      <g transform="translate(347.699205 303.028562)scale(0.1 -0.1)">
       <use xlink:href="#DejaVuSans-34"/>
       <use x="63.623047" xlink:href="#DejaVuSans-2e"/>
       <use x="95.410156" xlink:href="#DejaVuSans-35"/>
      </g>
     </g>
    </g>
    <g id="xtick_9">
     <g id="line2d_17">
      <path clip-path="url(#pf939dd2b53)" d="M 396.232585 288.430125 
L 396.232585 22.318125 
" style="fill:none;stroke:#b0b0b0;stroke-linecap:square;stroke-width:0.8;"/>
     </g>
     <g id="line2d_18">
      <g>
       <use style="stroke:#000000;stroke-width:0.8;" x="396.232585" xlink:href="#ma8b59ca178" y="288.430125"/>
      </g>
     </g>
     <g id="text_9">
      <!-- 5.0 -->
      <g transform="translate(388.281023 303.028562)scale(0.1 -0.1)">
       <use xlink:href="#DejaVuSans-35"/>
       <use x="63.623047" xlink:href="#DejaVuSans-2e"/>
       <use x="95.410156" xlink:href="#DejaVuSans-30"/>
      </g>
     </g>
    </g>
    <g id="text_10">
     <!-- Dimension Number -->
     <g transform="translate(185.65375 316.706687)scale(0.1 -0.1)">
      <defs>
       <path d="M 1259 4147 
L 1259 519 
L 2022 519 
Q 2988 519 3436 956 
Q 3884 1394 3884 2338 
Q 3884 3275 3436 3711 
Q 2988 4147 2022 4147 
L 1259 4147 
z
M 628 4666 
L 1925 4666 
Q 3281 4666 3915 4102 
Q 4550 3538 4550 2338 
Q 4550 1131 3912 565 
Q 3275 0 1925 0 
L 628 0 
L 628 4666 
z
" id="DejaVuSans-44" transform="scale(0.015625)"/>
       <path d="M 603 3500 
L 1178 3500 
L 1178 0 
L 603 0 
L 603 3500 
z
M 603 4863 
L 1178 4863 
L 1178 4134 
L 603 4134 
L 603 4863 
z
" id="DejaVuSans-69" transform="scale(0.015625)"/>
       <path d="M 3328 2828 
Q 3544 3216 3844 3400 
Q 4144 3584 4550 3584 
Q 5097 3584 5394 3201 
Q 5691 2819 5691 2113 
L 5691 0 
L 5113 0 
L 5113 2094 
Q 5113 2597 4934 2840 
Q 4756 3084 4391 3084 
Q 3944 3084 3684 2787 
Q 3425 2491 3425 1978 
L 3425 0 
L 2847 0 
L 2847 2094 
Q 2847 2600 2669 2842 
Q 2491 3084 2119 3084 
Q 1678 3084 1418 2786 
Q 1159 2488 1159 1978 
L 1159 0 
L 581 0 
L 581 3500 
L 1159 3500 
L 1159 2956 
Q 1356 3278 1631 3431 
Q 1906 3584 2284 3584 
Q 2666 3584 2933 3390 
Q 3200 3197 3328 2828 
z
" id="DejaVuSans-6d" transform="scale(0.015625)"/>
       <path d="M 3597 1894 
L 3597 1613 
L 953 1613 
Q 991 1019 1311 708 
Q 1631 397 2203 397 
Q 2534 397 2845 478 
Q 3156 559 3463 722 
L 3463 178 
Q 3153 47 2828 -22 
Q 2503 -91 2169 -91 
Q 1331 -91 842 396 
Q 353 884 353 1716 
Q 353 2575 817 3079 
Q 1281 3584 2069 3584 
Q 2775 3584 3186 3129 
Q 3597 2675 3597 1894 
z
M 3022 2063 
Q 3016 2534 2758 2815 
Q 2500 3097 2075 3097 
Q 1594 3097 1305 2825 
Q 1016 2553 972 2059 
L 3022 2063 
z
" id="DejaVuSans-65" transform="scale(0.015625)"/>
       <path d="M 3513 2113 
L 3513 0 
L 2938 0 
L 2938 2094 
Q 2938 2591 2744 2837 
Q 2550 3084 2163 3084 
Q 1697 3084 1428 2787 
Q 1159 2491 1159 1978 
L 1159 0 
L 581 0 
L 581 3500 
L 1159 3500 
L 1159 2956 
Q 1366 3272 1645 3428 
Q 1925 3584 2291 3584 
Q 2894 3584 3203 3211 
Q 3513 2838 3513 2113 
z
" id="DejaVuSans-6e" transform="scale(0.015625)"/>
       <path d="M 2834 3397 
L 2834 2853 
Q 2591 2978 2328 3040 
Q 2066 3103 1784 3103 
Q 1356 3103 1142 2972 
Q 928 2841 928 2578 
Q 928 2378 1081 2264 
Q 1234 2150 1697 2047 
L 1894 2003 
Q 2506 1872 2764 1633 
Q 3022 1394 3022 966 
Q 3022 478 2636 193 
Q 2250 -91 1575 -91 
Q 1294 -91 989 -36 
Q 684 19 347 128 
L 347 722 
Q 666 556 975 473 
Q 1284 391 1588 391 
Q 1994 391 2212 530 
Q 2431 669 2431 922 
Q 2431 1156 2273 1281 
Q 2116 1406 1581 1522 
L 1381 1569 
Q 847 1681 609 1914 
Q 372 2147 372 2553 
Q 372 3047 722 3315 
Q 1072 3584 1716 3584 
Q 2034 3584 2315 3537 
Q 2597 3491 2834 3397 
z
" id="DejaVuSans-73" transform="scale(0.015625)"/>
       <path d="M 1959 3097 
Q 1497 3097 1228 2736 
Q 959 2375 959 1747 
Q 959 1119 1226 758 
Q 1494 397 1959 397 
Q 2419 397 2687 759 
Q 2956 1122 2956 1747 
Q 2956 2369 2687 2733 
Q 2419 3097 1959 3097 
z
M 1959 3584 
Q 2709 3584 3137 3096 
Q 3566 2609 3566 1747 
Q 3566 888 3137 398 
Q 2709 -91 1959 -91 
Q 1206 -91 779 398 
Q 353 888 353 1747 
Q 353 2609 779 3096 
Q 1206 3584 1959 3584 
z
" id="DejaVuSans-6f" transform="scale(0.015625)"/>
       <path id="DejaVuSans-20" transform="scale(0.015625)"/>
       <path d="M 628 4666 
L 1478 4666 
L 3547 763 
L 3547 4666 
L 4159 4666 
L 4159 0 
L 3309 0 
L 1241 3903 
L 1241 0 
L 628 0 
L 628 4666 
z
" id="DejaVuSans-4e" transform="scale(0.015625)"/>
       <path d="M 544 1381 
L 544 3500 
L 1119 3500 
L 1119 1403 
Q 1119 906 1312 657 
Q 1506 409 1894 409 
Q 2359 409 2629 706 
Q 2900 1003 2900 1516 
L 2900 3500 
L 3475 3500 
L 3475 0 
L 2900 0 
L 2900 538 
Q 2691 219 2414 64 
Q 2138 -91 1772 -91 
Q 1169 -91 856 284 
Q 544 659 544 1381 
z
M 1991 3584 
L 1991 3584 
z
" id="DejaVuSans-75" transform="scale(0.015625)"/>
       <path d="M 3116 1747 
Q 3116 2381 2855 2742 
Q 2594 3103 2138 3103 
Q 1681 3103 1420 2742 
Q 1159 2381 1159 1747 
Q 1159 1113 1420 752 
Q 1681 391 2138 391 
Q 2594 391 2855 752 
Q 3116 1113 3116 1747 
z
M 1159 2969 
Q 1341 3281 1617 3432 
Q 1894 3584 2278 3584 
Q 2916 3584 3314 3078 
Q 3713 2572 3713 1747 
Q 3713 922 3314 415 
Q 2916 -91 2278 -91 
Q 1894 -91 1617 61 
Q 1341 213 1159 525 
L 1159 0 
L 581 0 
L 581 4863 
L 1159 4863 
L 1159 2969 
z
" id="DejaVuSans-62" transform="scale(0.015625)"/>
       <path d="M 2631 2963 
Q 2534 3019 2420 3045 
Q 2306 3072 2169 3072 
Q 1681 3072 1420 2755 
Q 1159 2438 1159 1844 
L 1159 0 
L 581 0 
L 581 3500 
L 1159 3500 
L 1159 2956 
Q 1341 3275 1631 3429 
Q 1922 3584 2338 3584 
Q 2397 3584 2469 3576 
Q 2541 3569 2628 3553 
L 2631 2963 
z
" id="DejaVuSans-72" transform="scale(0.015625)"/>
      </defs>
      <use xlink:href="#DejaVuSans-44"/>
      <use x="77.001953" xlink:href="#DejaVuSans-69"/>
      <use x="104.785156" xlink:href="#DejaVuSans-6d"/>
      <use x="202.197266" xlink:href="#DejaVuSans-65"/>
      <use x="263.720703" xlink:href="#DejaVuSans-6e"/>
      <use x="327.099609" xlink:href="#DejaVuSans-73"/>
      <use x="379.199219" xlink:href="#DejaVuSans-69"/>
      <use x="406.982422" xlink:href="#DejaVuSans-6f"/>
      <use x="468.164062" xlink:href="#DejaVuSans-6e"/>
      <use x="531.542969" xlink:href="#DejaVuSans-20"/>
      <use x="563.330078" xlink:href="#DejaVuSans-4e"/>
      <use x="638.134766" xlink:href="#DejaVuSans-75"/>
      <use x="701.513672" xlink:href="#DejaVuSans-6d"/>
      <use x="798.925781" xlink:href="#DejaVuSans-62"/>
      <use x="862.402344" xlink:href="#DejaVuSans-65"/>
      <use x="923.925781" xlink:href="#DejaVuSans-72"/>
     </g>
    </g>
   </g>
   <g id="matplotlib.axis_2">
    <g id="ytick_1">
     <g id="line2d_19">
      <path clip-path="url(#pf939dd2b53)" d="M 55.345313 268.44626 
L 412.465312 268.44626 
" style="fill:none;stroke:#b0b0b0;stroke-linecap:square;stroke-width:0.8;"/>
     </g>
     <g id="line2d_20">
      <defs>
       <path d="M 0 0 
L -3.5 0 
" id="mfabc6d81ab" style="stroke:#000000;stroke-width:0.8;"/>
      </defs>
      <g>
       <use style="stroke:#000000;stroke-width:0.8;" x="55.345313" xlink:href="#mfabc6d81ab" y="268.44626"/>
      </g>
     </g>
     <g id="text_11">
      <!-- −500 -->
      <g transform="translate(20.878125 272.245478)scale(0.1 -0.1)">
       <defs>
        <path d="M 678 2272 
L 4684 2272 
L 4684 1741 
L 678 1741 
L 678 2272 
z
" id="DejaVuSans-2212" transform="scale(0.015625)"/>
       </defs>
       <use xlink:href="#DejaVuSans-2212"/>
       <use x="83.789062" xlink:href="#DejaVuSans-35"/>
       <use x="147.412109" xlink:href="#DejaVuSans-30"/>
       <use x="211.035156" xlink:href="#DejaVuSans-30"/>
      </g>
     </g>
    </g>
    <g id="ytick_2">
     <g id="line2d_21">
      <path clip-path="url(#pf939dd2b53)" d="M 55.345313 228.328134 
L 412.465312 228.328134 
" style="fill:none;stroke:#b0b0b0;stroke-linecap:square;stroke-width:0.8;"/>
     </g>
     <g id="line2d_22">
      <g>
       <use style="stroke:#000000;stroke-width:0.8;" x="55.345313" xlink:href="#mfabc6d81ab" y="228.328134"/>
      </g>
     </g>
     <g id="text_12">
      <!-- 0 -->
      <g transform="translate(41.982813 232.127353)scale(0.1 -0.1)">
       <use xlink:href="#DejaVuSans-30"/>
      </g>
     </g>
    </g>
    <g id="ytick_3">
     <g id="line2d_23">
      <path clip-path="url(#pf939dd2b53)" d="M 55.345313 188.210008 
L 412.465312 188.210008 
" style="fill:none;stroke:#b0b0b0;stroke-linecap:square;stroke-width:0.8;"/>
     </g>
     <g id="line2d_24">
      <g>
       <use style="stroke:#000000;stroke-width:0.8;" x="55.345313" xlink:href="#mfabc6d81ab" y="188.210008"/>
      </g>
     </g>
     <g id="text_13">
      <!-- 500 -->
      <g transform="translate(29.257813 192.009227)scale(0.1 -0.1)">
       <use xlink:href="#DejaVuSans-35"/>
       <use x="63.623047" xlink:href="#DejaVuSans-30"/>
       <use x="127.246094" xlink:href="#DejaVuSans-30"/>
      </g>
     </g>
    </g>
    <g id="ytick_4">
     <g id="line2d_25">
      <path clip-path="url(#pf939dd2b53)" d="M 55.345313 148.091883 
L 412.465312 148.091883 
" style="fill:none;stroke:#b0b0b0;stroke-linecap:square;stroke-width:0.8;"/>
     </g>
     <g id="line2d_26">
      <g>
       <use style="stroke:#000000;stroke-width:0.8;" x="55.345313" xlink:href="#mfabc6d81ab" y="148.091883"/>
      </g>
     </g>
     <g id="text_14">
      <!-- 1000 -->
      <g transform="translate(22.895313 151.891102)scale(0.1 -0.1)">
       <use xlink:href="#DejaVuSans-31"/>
       <use x="63.623047" xlink:href="#DejaVuSans-30"/>
       <use x="127.246094" xlink:href="#DejaVuSans-30"/>
       <use x="190.869141" xlink:href="#DejaVuSans-30"/>
      </g>
     </g>
    </g>
    <g id="ytick_5">
     <g id="line2d_27">
      <path clip-path="url(#pf939dd2b53)" d="M 55.345313 107.973757 
L 412.465312 107.973757 
" style="fill:none;stroke:#b0b0b0;stroke-linecap:square;stroke-width:0.8;"/>
     </g>
     <g id="line2d_28">
      <g>
       <use style="stroke:#000000;stroke-width:0.8;" x="55.345313" xlink:href="#mfabc6d81ab" y="107.973757"/>
      </g>
     </g>
     <g id="text_15">
      <!-- 1500 -->
      <g transform="translate(22.895313 111.772976)scale(0.1 -0.1)">
       <use xlink:href="#DejaVuSans-31"/>
       <use x="63.623047" xlink:href="#DejaVuSans-35"/>
       <use x="127.246094" xlink:href="#DejaVuSans-30"/>
       <use x="190.869141" xlink:href="#DejaVuSans-30"/>
      </g>
     </g>
    </g>
    <g id="ytick_6">
     <g id="line2d_29">
      <path clip-path="url(#pf939dd2b53)" d="M 55.345313 67.855632 
L 412.465312 67.855632 
" style="fill:none;stroke:#b0b0b0;stroke-linecap:square;stroke-width:0.8;"/>
     </g>
     <g id="line2d_30">
      <g>
       <use style="stroke:#000000;stroke-width:0.8;" x="55.345313" xlink:href="#mfabc6d81ab" y="67.855632"/>
      </g>
     </g>
     <g id="text_16">
      <!-- 2000 -->
      <g transform="translate(22.895313 71.65485)scale(0.1 -0.1)">
       <use xlink:href="#DejaVuSans-32"/>
       <use x="63.623047" xlink:href="#DejaVuSans-30"/>
       <use x="127.246094" xlink:href="#DejaVuSans-30"/>
       <use x="190.869141" xlink:href="#DejaVuSans-30"/>
      </g>
     </g>
    </g>
    <g id="ytick_7">
     <g id="line2d_31">
      <path clip-path="url(#pf939dd2b53)" d="M 55.345313 27.737506 
L 412.465312 27.737506 
" style="fill:none;stroke:#b0b0b0;stroke-linecap:square;stroke-width:0.8;"/>
     </g>
     <g id="line2d_32">
      <g>
       <use style="stroke:#000000;stroke-width:0.8;" x="55.345313" xlink:href="#mfabc6d81ab" y="27.737506"/>
      </g>
     </g>
     <g id="text_17">
      <!-- 2500 -->
      <g transform="translate(22.895313 31.536725)scale(0.1 -0.1)">
       <use xlink:href="#DejaVuSans-32"/>
       <use x="63.623047" xlink:href="#DejaVuSans-35"/>
       <use x="127.246094" xlink:href="#DejaVuSans-30"/>
       <use x="190.869141" xlink:href="#DejaVuSans-30"/>
      </g>
     </g>
    </g>
    <g id="text_18">
     <!-- Value -->
     <g transform="translate(14.798438 169.105375)rotate(-90)scale(0.1 -0.1)">
      <defs>
       <path d="M 1831 0 
L 50 4666 
L 709 4666 
L 2188 738 
L 3669 4666 
L 4325 4666 
L 2547 0 
L 1831 0 
z
" id="DejaVuSans-56" transform="scale(0.015625)"/>
       <path d="M 2194 1759 
Q 1497 1759 1228 1600 
Q 959 1441 959 1056 
Q 959 750 1161 570 
Q 1363 391 1709 391 
Q 2188 391 2477 730 
Q 2766 1069 2766 1631 
L 2766 1759 
L 2194 1759 
z
M 3341 1997 
L 3341 0 
L 2766 0 
L 2766 531 
Q 2569 213 2275 61 
Q 1981 -91 1556 -91 
Q 1019 -91 701 211 
Q 384 513 384 1019 
Q 384 1609 779 1909 
Q 1175 2209 1959 2209 
L 2766 2209 
L 2766 2266 
Q 2766 2663 2505 2880 
Q 2244 3097 1772 3097 
Q 1472 3097 1187 3025 
Q 903 2953 641 2809 
L 641 3341 
Q 956 3463 1253 3523 
Q 1550 3584 1831 3584 
Q 2591 3584 2966 3190 
Q 3341 2797 3341 1997 
z
" id="DejaVuSans-61" transform="scale(0.015625)"/>
       <path d="M 603 4863 
L 1178 4863 
L 1178 0 
L 603 0 
L 603 4863 
z
" id="DejaVuSans-6c" transform="scale(0.015625)"/>
      </defs>
      <use xlink:href="#DejaVuSans-56"/>
      <use x="60.658203" xlink:href="#DejaVuSans-61"/>
      <use x="121.9375" xlink:href="#DejaVuSans-6c"/>
      <use x="149.720703" xlink:href="#DejaVuSans-75"/>
      <use x="213.099609" xlink:href="#DejaVuSans-65"/>
     </g>
    </g>
   </g>
   <g id="line2d_33">
    <path clip-path="url(#pf939dd2b53)" d="M 71.57804 190.852377 
L 152.741676 222.645212 
L 233.905312 142.952517 
L 315.068949 265.446655 
L 396.232585 185.012732 
" style="fill:none;stroke:#ff0000;stroke-linecap:square;stroke-width:2;"/>
   </g>
   <g id="line2d_34">
    <path clip-path="url(#pf939dd2b53)" d="M 71.57804 190.852377 
L 152.741676 222.645212 
L 233.905312 142.952517 
L 315.068949 265.446655 
L 396.232585 185.012732 
" style="fill:none;stroke:#ff0000;stroke-linecap:square;stroke-width:2;"/>
   </g>
   <g id="line2d_35">
    <path clip-path="url(#pf939dd2b53)" d="M 71.57804 168.429928 
L 152.741676 195.317083 
L 233.905312 147.400397 
L 315.068949 273.653521 
L 396.232585 211.632692 
" style="fill:none;stroke:#ff0000;stroke-linecap:square;stroke-width:2;"/>
   </g>
   <g id="line2d_36">
    <path clip-path="url(#pf939dd2b53)" d="M 71.57804 166.078832 
L 152.741676 228.431042 
L 233.905312 141.492682 
L 315.068949 212.438292 
L 396.232585 229.29986 
" style="fill:none;stroke:#ff0000;stroke-linecap:square;stroke-width:2;"/>
   </g>
   <g id="line2d_37">
    <path clip-path="url(#pf939dd2b53)" d="M 71.57804 182.259266 
L 152.741676 215.77104 
L 233.905312 147.50433 
L 315.068949 274.323216 
L 396.232585 208.107602 
" style="fill:none;stroke:#ff0000;stroke-linecap:square;stroke-width:2;"/>
   </g>
   <g id="line2d_38">
    <path clip-path="url(#pf939dd2b53)" d="M 71.57804 188.045143 
L 152.741676 222.070445 
L 233.905312 116.039572 
L 315.068949 272.636776 
L 396.232585 204.790829 
" style="fill:none;stroke:#ff0000;stroke-linecap:square;stroke-width:2;"/>
   </g>
   <g id="line2d_39">
    <path clip-path="url(#pf939dd2b53)" d="M 71.57804 195.61931 
L 152.741676 211.34009 
L 233.905312 115.641823 
L 315.068949 267.156661 
L 396.232585 234.932845 
" style="fill:none;stroke:#ff0000;stroke-linecap:square;stroke-width:2;"/>
   </g>
   <g id="line2d_40">
    <path clip-path="url(#pf939dd2b53)" d="M 71.57804 186.284044 
L 152.741676 229.709052 
L 233.905312 85.099059 
L 315.068949 267.134358 
L 396.232585 240.580919 
" style="fill:none;stroke:#ff0000;stroke-linecap:square;stroke-width:2;"/>
   </g>
   <g id="line2d_41">
    <path clip-path="url(#pf939dd2b53)" d="M 71.57804 144.635036 
L 152.741676 229.205655 
L 233.905312 130.766855 
L 315.068949 257.179579 
L 396.232585 239.908609 
" style="fill:none;stroke:#ff0000;stroke-linecap:square;stroke-width:2;"/>
   </g>
   <g id="line2d_42">
    <path clip-path="url(#pf939dd2b53)" d="M 71.57804 198.941686 
L 152.741676 219.232258 
L 233.905312 138.887406 
L 315.068949 269.739442 
L 396.232585 178.199672 
" style="fill:none;stroke:#ff0000;stroke-linecap:square;stroke-width:2;"/>
   </g>
   <g id="line2d_43">
    <path clip-path="url(#pf939dd2b53)" d="M 71.57804 199.299466 
L 152.741676 153.142263 
L 233.905312 148.517272 
L 315.068949 276.333419 
L 396.232585 240.907451 
" style="fill:none;stroke:#ff0000;stroke-linecap:square;stroke-width:2;"/>
   </g>
   <g id="line2d_44">
    <path clip-path="url(#pf939dd2b53)" d="M 71.57804 193.34599 
L 152.741676 227.037321 
L 233.905312 90.772891 
L 315.068949 263.864426 
L 396.232585 238.054485 
" style="fill:none;stroke:#ff0000;stroke-linecap:square;stroke-width:2;"/>
   </g>
   <g id="line2d_45">
    <path clip-path="url(#pf939dd2b53)" d="M 71.57804 194.453566 
L 152.741676 225.711597 
L 233.905312 146.734494 
L 315.068949 181.528526 
L 396.232585 237.679572 
" style="fill:none;stroke:#ff0000;stroke-linecap:square;stroke-width:2;"/>
   </g>
   <g id="line2d_46">
    <path clip-path="url(#pf939dd2b53)" d="M 71.57804 199.299621 
L 152.741676 231.209641 
L 233.905312 76.10627 
L 315.068949 275.384507 
L 396.232585 240.64312 
" style="fill:none;stroke:#ff0000;stroke-linecap:square;stroke-width:2;"/>
   </g>
   <g id="line2d_47">
    <path clip-path="url(#pf939dd2b53)" d="M 71.57804 197.286867 
L 152.741676 228.869188 
L 233.905312 146.862996 
L 315.068949 192.044124 
L 396.232585 232.31105 
" style="fill:none;stroke:#ff0000;stroke-linecap:square;stroke-width:2;"/>
   </g>
   <g id="line2d_48">
    <path clip-path="url(#pf939dd2b53)" d="M 71.57804 188.218597 
L 152.741676 231.104396 
L 233.905312 145.182048 
L 315.068949 275.459747 
L 396.232585 154.17435 
" style="fill:none;stroke:#ff0000;stroke-linecap:square;stroke-width:2;"/>
   </g>
   <g id="line2d_49">
    <path clip-path="url(#pf939dd2b53)" d="M 71.57804 137.899006 
L 152.741676 230.976522 
L 233.905312 147.230001 
L 315.068949 258.745269 
L 396.232585 197.318092 
" style="fill:none;stroke:#ff0000;stroke-linecap:square;stroke-width:2;"/>
   </g>
   <g id="line2d_50">
    <path clip-path="url(#pf939dd2b53)" d="M 71.57804 84.514642 
L 152.741676 231.20703 
L 233.905312 146.844055 
L 315.068949 248.593555 
L 396.232585 236.816921 
" style="fill:none;stroke:#ff0000;stroke-linecap:square;stroke-width:2;"/>
   </g>
   <g id="line2d_51">
    <path clip-path="url(#pf939dd2b53)" d="M 71.57804 140.845841 
L 152.741676 225.815629 
L 233.905312 148.494156 
L 315.068949 276.334096 
L 396.232585 192.963649 
" style="fill:none;stroke:#ff0000;stroke-linecap:square;stroke-width:2;"/>
   </g>
   <g id="line2d_52">
    <path clip-path="url(#pf939dd2b53)" d="M 71.57804 148.769187 
L 152.741676 221.191385 
L 233.905312 148.517295 
L 315.068949 260.199781 
L 396.232585 219.500432 
" style="fill:none;stroke:#ff0000;stroke-linecap:square;stroke-width:2;"/>
   </g>
   <g id="line2d_53">
    <path clip-path="url(#pf939dd2b53)" d="M 71.57804 191.448761 
L 152.741676 170.542973 
L 233.905312 148.192239 
L 315.068949 272.86137 
L 396.232585 227.202941 
" style="fill:none;stroke:#ff0000;stroke-linecap:square;stroke-width:2;"/>
   </g>
   <g id="line2d_54">
    <path clip-path="url(#pf939dd2b53)" d="M 71.57804 182.432964 
L 152.741676 230.924143 
L 233.905312 145.084234 
L 315.068949 211.494437 
L 396.232585 237.035327 
" style="fill:none;stroke:#ff0000;stroke-linecap:square;stroke-width:2;"/>
   </g>
   <g id="line2d_55">
    <path clip-path="url(#pf939dd2b53)" d="M 71.57804 178.074322 
L 152.741676 218.607578 
L 233.905312 148.517295 
L 315.068949 263.406027 
L 396.232585 200.272524 
" style="fill:none;stroke:#ff0000;stroke-linecap:square;stroke-width:2;"/>
   </g>
   <g id="line2d_56">
    <path clip-path="url(#pf939dd2b53)" d="M 71.57804 189.030914 
L 152.741676 161.876723 
L 233.905312 147.477937 
L 315.068949 275.714266 
L 396.232585 239.428144 
" style="fill:none;stroke:#ff0000;stroke-linecap:square;stroke-width:2;"/>
   </g>
   <g id="line2d_57">
    <path clip-path="url(#pf939dd2b53)" d="M 71.57804 175.270528 
L 152.741676 223.320508 
L 233.905312 148.470343 
L 315.068949 231.289071 
L 396.232585 206.331898 
" style="fill:none;stroke:#ff0000;stroke-linecap:square;stroke-width:2;"/>
   </g>
   <g id="line2d_58">
    <path clip-path="url(#pf939dd2b53)" d="M 71.57804 173.839653 
L 152.741676 225.909985 
L 233.905312 122.148664 
L 315.068949 246.691185 
L 396.232585 222.789077 
" style="fill:none;stroke:#ff0000;stroke-linecap:square;stroke-width:2;"/>
   </g>
   <g id="line2d_59">
    <path clip-path="url(#pf939dd2b53)" d="M 71.57804 182.414972 
L 152.741676 187.938347 
L 233.905312 147.57121 
L 315.068949 274.429548 
L 396.232585 232.615184 
" style="fill:none;stroke:#ff0000;stroke-linecap:square;stroke-width:2;"/>
   </g>
   <g id="line2d_60">
    <path clip-path="url(#pf939dd2b53)" d="M 71.57804 153.957404 
L 152.741676 230.883396 
L 233.905312 145.218061 
L 315.068949 240.006788 
L 396.232585 218.373888 
" style="fill:none;stroke:#ff0000;stroke-linecap:square;stroke-width:2;"/>
   </g>
   <g id="line2d_61">
    <path clip-path="url(#pf939dd2b53)" d="M 71.57804 83.867975 
L 152.741676 217.69315 
L 233.905312 148.502659 
L 315.068949 276.012398 
L 396.232585 240.909499 
" style="fill:none;stroke:#ff0000;stroke-linecap:square;stroke-width:2;"/>
   </g>
   <g id="line2d_62">
    <path clip-path="url(#pf939dd2b53)" d="M 71.57804 71.492689 
L 152.741676 221.957424 
L 233.905312 148.502659 
L 315.068949 276.012398 
L 396.232585 240.892078 
" style="fill:none;stroke:#ff0000;stroke-linecap:square;stroke-width:2;"/>
   </g>
   <g id="line2d_63">
    <path clip-path="url(#pf939dd2b53)" d="M 71.57804 199.103345 
L 152.741676 153.48318 
L 233.905312 148.517295 
L 315.068949 276.333405 
L 396.232585 240.90949 
" style="fill:none;stroke:#ff0000;stroke-linecap:square;stroke-width:2;"/>
   </g>
   <g id="line2d_64">
    <path clip-path="url(#pf939dd2b53)" d="M 71.57804 121.189564 
L 152.741676 225.986016 
L 233.905312 145.78203 
L 315.068949 255.544497 
L 396.232585 216.935964 
" style="fill:none;stroke:#ff0000;stroke-linecap:square;stroke-width:2;"/>
   </g>
   <g id="line2d_65">
    <path clip-path="url(#pf939dd2b53)" d="M 71.57804 198.338912 
L 152.741676 228.096252 
L 233.905312 148.517295 
L 315.068949 162.508262 
L 396.232585 240.909499 
" style="fill:none;stroke:#ff0000;stroke-linecap:square;stroke-width:2;"/>
   </g>
   <g id="line2d_66">
    <path clip-path="url(#pf939dd2b53)" d="M 71.57804 172.502704 
L 152.741676 222.201915 
L 233.905312 148.470343 
L 315.068949 234.520957 
L 396.232585 212.028606 
" style="fill:none;stroke:#ff0000;stroke-linecap:square;stroke-width:2;"/>
   </g>
   <g id="line2d_67">
    <path clip-path="url(#pf939dd2b53)" d="M 71.57804 199.000274 
L 152.741676 221.851855 
L 233.905312 137.378127 
L 315.068949 221.955604 
L 396.232585 235.737854 
" style="fill:none;stroke:#ff0000;stroke-linecap:square;stroke-width:2;"/>
   </g>
   <g id="line2d_68">
    <path clip-path="url(#pf939dd2b53)" d="M 71.57804 198.021051 
L 152.741676 181.21085 
L 233.905312 141.699525 
L 315.068949 245.969486 
L 396.232585 240.909499 
" style="fill:none;stroke:#ff0000;stroke-linecap:square;stroke-width:2;"/>
   </g>
   <g id="line2d_69">
    <path clip-path="url(#pf939dd2b53)" d="M 71.57804 193.625701 
L 152.741676 230.19451 
L 233.905312 80.860473 
L 315.068949 270.007088 
L 396.232585 239.792866 
" style="fill:none;stroke:#ff0000;stroke-linecap:square;stroke-width:2;"/>
   </g>
   <g id="line2d_70">
    <path clip-path="url(#pf939dd2b53)" d="M 71.57804 195.620971 
L 152.741676 175.376137 
L 233.905312 138.206529 
L 315.068949 267.849942 
L 396.232585 237.997291 
" style="fill:none;stroke:#ff0000;stroke-linecap:square;stroke-width:2;"/>
   </g>
   <g id="line2d_71">
    <path clip-path="url(#pf939dd2b53)" d="M 71.57804 193.625701 
L 152.741676 230.19451 
L 233.905312 80.860473 
L 315.068949 270.007088 
L 396.232585 239.792866 
" style="fill:none;stroke:#ff0000;stroke-linecap:square;stroke-width:2;"/>
   </g>
   <g id="line2d_72">
    <path clip-path="url(#pf939dd2b53)" d="M 71.57804 198.78263 
L 152.741676 228.46039 
L 233.905312 148.396014 
L 315.068949 276.334096 
L 396.232585 147.458926 
" style="fill:none;stroke:#ff0000;stroke-linecap:square;stroke-width:2;"/>
   </g>
   <g id="line2d_73">
    <path clip-path="url(#pf939dd2b53)" d="M 71.57804 118.834763 
L 152.741676 219.730685 
L 233.905312 136.658063 
L 315.068949 264.959508 
L 396.232585 232.162505 
" style="fill:none;stroke:#ff0000;stroke-linecap:square;stroke-width:2;"/>
   </g>
   <g id="line2d_74">
    <path clip-path="url(#pf939dd2b53)" d="M 71.57804 193.97415 
L 152.741676 230.954156 
L 233.905312 73.644087 
L 315.068949 276.306621 
L 396.232585 240.909499 
" style="fill:none;stroke:#ff0000;stroke-linecap:square;stroke-width:2;"/>
   </g>
   <g id="line2d_75">
    <path clip-path="url(#pf939dd2b53)" d="M 71.57804 199.294278 
L 152.741676 222.38655 
L 233.905312 138.530553 
L 315.068949 207.813557 
L 396.232585 237.865204 
" style="fill:none;stroke:#ff0000;stroke-linecap:square;stroke-width:2;"/>
   </g>
   <g id="line2d_76">
    <path clip-path="url(#pf939dd2b53)" d="M 71.57804 178.074322 
L 152.741676 218.607578 
L 233.905312 146.469908 
L 315.068949 264.276661 
L 396.232585 200.272524 
" style="fill:none;stroke:#ff0000;stroke-linecap:square;stroke-width:2;"/>
   </g>
   <g id="line2d_77">
    <path clip-path="url(#pf939dd2b53)" d="M 71.57804 54.654233 
L 152.741676 230.214409 
L 233.905312 147.088074 
L 315.068949 275.375128 
L 396.232585 240.857938 
" style="fill:none;stroke:#ff0000;stroke-linecap:square;stroke-width:2;"/>
   </g>
   <g id="line2d_78">
    <path clip-path="url(#pf939dd2b53)" d="M 71.57804 95.873428 
L 152.741676 229.577348 
L 233.905312 144.556602 
L 315.068949 270.854604 
L 396.232585 237.389699 
" style="fill:none;stroke:#ff0000;stroke-linecap:square;stroke-width:2;"/>
   </g>
   <g id="line2d_79">
    <path clip-path="url(#pf939dd2b53)" d="M 71.57804 199.299621 
L 152.741676 231.191012 
L 233.905312 135.258793 
L 315.068949 261.695705 
L 396.232585 174.406813 
" style="fill:none;stroke:#ff0000;stroke-linecap:square;stroke-width:2;"/>
   </g>
   <g id="line2d_80">
    <path clip-path="url(#pf939dd2b53)" d="M 71.57804 182.325256 
L 152.741676 191.085202 
L 233.905312 145.179157 
L 315.068949 274.12959 
L 396.232585 210.507959 
" style="fill:none;stroke:#ff0000;stroke-linecap:square;stroke-width:2;"/>
   </g>
   <g id="line2d_81">
    <path clip-path="url(#pf939dd2b53)" d="M 71.57804 174.68721 
L 152.741676 229.573877 
L 233.905312 148.306478 
L 315.068949 232.318775 
L 396.232585 227.394548 
" style="fill:none;stroke:#ff0000;stroke-linecap:square;stroke-width:2;"/>
   </g>
   <g id="line2d_82">
    <path clip-path="url(#pf939dd2b53)" d="M 71.57804 196.032659 
L 152.741676 221.851855 
L 233.905312 138.772297 
L 315.068949 221.955604 
L 396.232585 235.737854 
" style="fill:none;stroke:#ff0000;stroke-linecap:square;stroke-width:2;"/>
   </g>
   <g id="line2d_83">
    <path clip-path="url(#pf939dd2b53)" d="M 71.57804 199.299621 
L 152.741676 231.209899 
L 233.905312 148.517295 
L 315.068949 276.333411 
L 396.232585 141.336945 
" style="fill:none;stroke:#ff0000;stroke-linecap:square;stroke-width:2;"/>
   </g>
   <g id="line2d_84">
    <path clip-path="url(#pf939dd2b53)" d="M 71.57804 189.837432 
L 152.741676 231.038952 
L 233.905312 148.494634 
L 315.068949 164.07218 
L 396.232585 240.860856 
" style="fill:none;stroke:#ff0000;stroke-linecap:square;stroke-width:2;"/>
   </g>
   <g id="line2d_85">
    <path clip-path="url(#pf939dd2b53)" d="M 71.57804 199.299621 
L 152.741676 231.209899 
L 233.905312 95.558745 
L 315.068949 238.632806 
L 396.232585 240.909488 
" style="fill:none;stroke:#ff0000;stroke-linecap:square;stroke-width:2;"/>
   </g>
   <g id="line2d_86">
    <path clip-path="url(#pf939dd2b53)" d="M 71.57804 195.690559 
L 152.741676 205.187118 
L 233.905312 126.082424 
L 315.068949 265.612718 
L 396.232585 231.66183 
" style="fill:none;stroke:#ff0000;stroke-linecap:square;stroke-width:2;"/>
   </g>
   <g id="line2d_87">
    <path clip-path="url(#pf939dd2b53)" d="M 71.57804 186.284044 
L 152.741676 227.489893 
L 233.905312 89.457527 
L 315.068949 269.732069 
L 396.232585 240.580919 
" style="fill:none;stroke:#ff0000;stroke-linecap:square;stroke-width:2;"/>
   </g>
   <g id="line2d_88">
    <path clip-path="url(#pf939dd2b53)" d="M 71.57804 199.299621 
L 152.741676 231.191012 
L 233.905312 148.517295 
L 315.068949 156.739374 
L 396.232585 240.908902 
" style="fill:none;stroke:#ff0000;stroke-linecap:square;stroke-width:2;"/>
   </g>
   <g id="line2d_89">
    <path clip-path="url(#pf939dd2b53)" d="M 71.57804 198.932994 
L 152.741676 228.193608 
L 233.905312 148.509206 
L 315.068949 171.183061 
L 396.232585 238.857525 
" style="fill:none;stroke:#ff0000;stroke-linecap:square;stroke-width:2;"/>
   </g>
   <g id="line2d_90">
    <path clip-path="url(#pf939dd2b53)" d="M 71.57804 109.963433 
L 152.741676 210.612307 
L 233.905312 133.755773 
L 315.068949 276.332944 
L 396.232585 240.909499 
" style="fill:none;stroke:#ff0000;stroke-linecap:square;stroke-width:2;"/>
   </g>
   <g id="line2d_91">
    <path clip-path="url(#pf939dd2b53)" d="M 71.57804 163.123899 
L 152.741676 200.71338 
L 233.905312 134.75386 
L 315.068949 261.710964 
L 396.232585 240.897275 
" style="fill:none;stroke:#ff0000;stroke-linecap:square;stroke-width:2;"/>
   </g>
   <g id="line2d_92">
    <path clip-path="url(#pf939dd2b53)" d="M 71.57804 189.883912 
L 152.741676 228.208779 
L 233.905312 148.509206 
L 315.068949 171.127793 
L 396.232585 240.192134 
" style="fill:none;stroke:#ff0000;stroke-linecap:square;stroke-width:2;"/>
   </g>
   <g id="line2d_93">
    <path clip-path="url(#pf939dd2b53)" d="M 71.57804 184.018291 
L 152.741676 225.711597 
L 233.905312 146.734494 
L 315.068949 185.422905 
L 396.232585 237.679572 
" style="fill:none;stroke:#ff0000;stroke-linecap:square;stroke-width:2;"/>
   </g>
   <g id="line2d_94">
    <path clip-path="url(#pf939dd2b53)" d="M 71.57804 93.980881 
L 152.741676 227.882124 
L 233.905312 148.517295 
L 315.068949 243.76017 
L 396.232585 240.909499 
" style="fill:none;stroke:#ff0000;stroke-linecap:square;stroke-width:2;"/>
   </g>
   <g id="line2d_95">
    <path clip-path="url(#pf939dd2b53)" d="M 71.57804 167.785442 
L 152.741676 200.71338 
L 233.905312 125.938693 
L 315.068949 275.322705 
L 396.232585 240.897275 
" style="fill:none;stroke:#ff0000;stroke-linecap:square;stroke-width:2;"/>
   </g>
   <g id="line2d_96">
    <path clip-path="url(#pf939dd2b53)" d="M 71.57804 194.66619 
L 152.741676 165.89419 
L 233.905312 147.794874 
L 315.068949 270.821521 
L 396.232585 234.510919 
" style="fill:none;stroke:#ff0000;stroke-linecap:square;stroke-width:2;"/>
   </g>
   <g id="line2d_97">
    <path clip-path="url(#pf939dd2b53)" d="M 71.57804 148.571649 
L 152.741676 228.965762 
L 233.905312 147.614431 
L 315.068949 202.193355 
L 396.232585 240.617112 
" style="fill:none;stroke:#ff0000;stroke-linecap:square;stroke-width:2;"/>
   </g>
   <g id="line2d_98">
    <path clip-path="url(#pf939dd2b53)" d="M 71.57804 194.573615 
L 152.741676 173.256567 
L 233.905312 148.254055 
L 315.068949 272.857323 
L 396.232585 227.202941 
" style="fill:none;stroke:#ff0000;stroke-linecap:square;stroke-width:2;"/>
   </g>
   <g id="line2d_99">
    <path clip-path="url(#pf939dd2b53)" d="M 71.57804 61.997445 
L 152.741676 231.209899 
L 233.905312 147.395603 
L 315.068949 271.681645 
L 396.232585 236.25584 
" style="fill:none;stroke:#ff0000;stroke-linecap:square;stroke-width:2;"/>
   </g>
   <g id="line2d_100">
    <path clip-path="url(#pf939dd2b53)" d="M 71.57804 34.414125 
L 152.741676 231.209899 
L 233.905312 148.517295 
L 315.068949 276.334125 
L 396.232585 240.909499 
" style="fill:none;stroke:#ff0000;stroke-linecap:square;stroke-width:2;"/>
   </g>
   <g id="line2d_101">
    <path clip-path="url(#pf939dd2b53)" d="M 71.57804 194.776299 
L 152.741676 206.248509 
L 233.905312 137.978146 
L 315.068949 266.544931 
L 396.232585 203.133281 
" style="fill:none;stroke:#ff0000;stroke-linecap:square;stroke-width:2;"/>
   </g>
   <g id="line2d_102">
    <path clip-path="url(#pf939dd2b53)" d="M 71.57804 196.436509 
L 152.741676 230.191505 
L 233.905312 140.330167 
L 315.068949 197.215745 
L 396.232585 229.11526 
" style="fill:none;stroke:#ff0000;stroke-linecap:square;stroke-width:2;"/>
   </g>
   <g id="line2d_103">
    <path clip-path="url(#pf939dd2b53)" d="M 71.57804 197.459412 
L 152.741676 216.708759 
L 233.905312 107.341505 
L 315.068949 275.677063 
L 396.232585 215.260262 
" style="fill:none;stroke:#ff0000;stroke-linecap:square;stroke-width:2;"/>
   </g>
   <g id="line2d_104">
    <path clip-path="url(#pf939dd2b53)" d="M 71.57804 138.405425 
L 152.741676 230.963575 
L 233.905312 148.016663 
L 315.068949 227.851522 
L 396.232585 240.907531 
" style="fill:none;stroke:#ff0000;stroke-linecap:square;stroke-width:2;"/>
   </g>
   <g id="line2d_105">
    <path clip-path="url(#pf939dd2b53)" d="M 71.57804 153.957404 
L 152.741676 228.723163 
L 233.905312 146.832358 
L 315.068949 245.923539 
L 396.232585 220.443619 
" style="fill:none;stroke:#ff0000;stroke-linecap:square;stroke-width:2;"/>
   </g>
   <g id="line2d_106">
    <path clip-path="url(#pf939dd2b53)" d="M 71.57804 109.963433 
L 152.741676 210.613303 
L 233.905312 133.755773 
L 315.068949 276.264196 
L 396.232585 240.909499 
" style="fill:none;stroke:#ff0000;stroke-linecap:square;stroke-width:2;"/>
   </g>
   <g id="line2d_107">
    <path clip-path="url(#pf939dd2b53)" d="M 71.57804 183.511038 
L 152.741676 229.223145 
L 233.905312 144.17034 
L 315.068949 276.334125 
L 396.232585 161.127386 
" style="fill:none;stroke:#ff0000;stroke-linecap:square;stroke-width:2;"/>
   </g>
   <g id="line2d_108">
    <path clip-path="url(#pf939dd2b53)" d="M 71.57804 199.285518 
L 152.741676 194.720735 
L 233.905312 138.066295 
L 315.068949 250.621494 
L 396.232585 232.878748 
" style="fill:none;stroke:#ff0000;stroke-linecap:square;stroke-width:2;"/>
   </g>
   <g id="line2d_109">
    <path clip-path="url(#pf939dd2b53)" d="M 71.57804 196.991601 
L 152.741676 185.991898 
L 233.905312 147.106629 
L 315.068949 271.604609 
L 396.232585 236.317176 
" style="fill:none;stroke:#ff0000;stroke-linecap:square;stroke-width:2;"/>
   </g>
   <g id="line2d_110">
    <path clip-path="url(#pf939dd2b53)" d="M 71.57804 127.025474 
L 152.741676 230.976522 
L 233.905312 136.744857 
L 315.068949 252.231447 
L 396.232585 233.003653 
" style="fill:none;stroke:#ff0000;stroke-linecap:square;stroke-width:2;"/>
   </g>
   <g id="line2d_111">
    <path clip-path="url(#pf939dd2b53)" d="M 71.57804 172.728117 
L 152.741676 211.624245 
L 233.905312 128.394553 
L 315.068949 269.00379 
L 396.232585 229.691594 
" style="fill:none;stroke:#ff0000;stroke-linecap:square;stroke-width:2;"/>
   </g>
   <g id="line2d_112">
    <path clip-path="url(#pf939dd2b53)" d="M 71.57804 197.286867 
L 152.741676 228.869188 
L 233.905312 142.117119 
L 315.068949 196.149636 
L 396.232585 232.53847 
" style="fill:none;stroke:#ff0000;stroke-linecap:square;stroke-width:2;"/>
   </g>
   <g id="line2d_113">
    <path clip-path="url(#pf939dd2b53)" d="M 71.57804 186.972674 
L 152.741676 226.205326 
L 233.905312 119.634826 
L 315.068949 249.534576 
L 396.232585 236.134054 
" style="fill:none;stroke:#ff0000;stroke-linecap:square;stroke-width:2;"/>
   </g>
   <g id="line2d_114">
    <path clip-path="url(#pf939dd2b53)" d="M 71.57804 186.957341 
L 152.741676 227.29047 
L 233.905312 103.698938 
L 315.068949 271.393295 
L 396.232585 225.191507 
" style="fill:none;stroke:#ff0000;stroke-linecap:square;stroke-width:2;"/>
   </g>
   <g id="line2d_115">
    <path clip-path="url(#pf939dd2b53)" d="M 71.57804 197.459412 
L 152.741676 220.378752 
L 233.905312 106.114243 
L 315.068949 275.677063 
L 396.232585 215.260262 
" style="fill:none;stroke:#ff0000;stroke-linecap:square;stroke-width:2;"/>
   </g>
   <g id="line2d_116">
    <path clip-path="url(#pf939dd2b53)" d="M 71.57804 199.299621 
L 152.741676 231.191012 
L 233.905312 135.258793 
L 315.068949 261.884795 
L 396.232585 170.484414 
" style="fill:none;stroke:#ff0000;stroke-linecap:square;stroke-width:2;"/>
   </g>
   <g id="line2d_117">
    <path clip-path="url(#pf939dd2b53)" d="M 71.57804 131.182181 
L 152.741676 226.455972 
L 233.905312 139.728474 
L 315.068949 258.606378 
L 396.232585 239.652864 
" style="fill:none;stroke:#ff0000;stroke-linecap:square;stroke-width:2;"/>
   </g>
   <g id="line2d_118">
    <path clip-path="url(#pf939dd2b53)" d="M 71.57804 199.299621 
L 152.741676 231.209899 
L 233.905312 95.558745 
L 315.068949 238.701413 
L 396.232585 240.907531 
" style="fill:none;stroke:#ff0000;stroke-linecap:square;stroke-width:2;"/>
   </g>
   <g id="line2d_119">
    <path clip-path="url(#pf939dd2b53)" d="M 71.57804 196.436509 
L 152.741676 224.5895 
L 233.905312 140.383647 
L 315.068949 186.973552 
L 396.232585 237.541544 
" style="fill:none;stroke:#ff0000;stroke-linecap:square;stroke-width:2;"/>
   </g>
   <g id="line2d_120">
    <path clip-path="url(#pf939dd2b53)" d="M 71.57804 198.941686 
L 152.741676 219.182681 
L 233.905312 138.902792 
L 315.068949 276.043354 
L 396.232585 183.532438 
" style="fill:none;stroke:#ff0000;stroke-linecap:square;stroke-width:2;"/>
   </g>
   <g id="line2d_121">
    <path clip-path="url(#pf939dd2b53)" d="M 71.57804 186.965773 
L 152.741676 226.205326 
L 233.905312 117.581535 
L 315.068949 249.425026 
L 396.232585 237.365366 
" style="fill:none;stroke:#ff0000;stroke-linecap:square;stroke-width:2;"/>
   </g>
   <g id="line2d_122">
    <path clip-path="url(#pf939dd2b53)" d="M 71.57804 41.659408 
L 152.741676 230.650447 
L 233.905312 148.517295 
L 315.068949 276.334125 
L 396.232585 239.757852 
" style="fill:none;stroke:#ff0000;stroke-linecap:square;stroke-width:2;"/>
   </g>
   <g id="line2d_123">
    <path clip-path="url(#pf939dd2b53)" d="M 71.57804 176.249526 
L 152.741676 230.319578 
L 233.905312 148.490445 
L 315.068949 267.065528 
L 396.232585 165.856743 
" style="fill:none;stroke:#ff0000;stroke-linecap:square;stroke-width:2;"/>
   </g>
   <g id="line2d_124">
    <path clip-path="url(#pf939dd2b53)" d="M 71.57804 158.676507 
L 152.741676 228.965762 
L 233.905312 147.614431 
L 315.068949 196.855081 
L 396.232585 240.617112 
" style="fill:none;stroke:#ff0000;stroke-linecap:square;stroke-width:2;"/>
   </g>
   <g id="line2d_125">
    <path clip-path="url(#pf939dd2b53)" d="M 71.57804 199.299621 
L 152.741676 231.191192 
L 233.905312 70.646002 
L 315.068949 276.306621 
L 396.232585 240.909499 
" style="fill:none;stroke:#ff0000;stroke-linecap:square;stroke-width:2;"/>
   </g>
   <g id="line2d_126">
    <path clip-path="url(#pf939dd2b53)" d="M 71.57804 103.147447 
L 152.741676 221.191385 
L 233.905312 148.517295 
L 315.068949 267.085935 
L 396.232585 222.088339 
" style="fill:none;stroke:#ff0000;stroke-linecap:square;stroke-width:2;"/>
   </g>
   <g id="line2d_127">
    <path clip-path="url(#pf939dd2b53)" d="M 71.57804 140.845841 
L 152.741676 228.039284 
L 233.905312 146.042331 
L 315.068949 276.330903 
L 396.232585 192.731014 
" style="fill:none;stroke:#ff0000;stroke-linecap:square;stroke-width:2;"/>
   </g>
   <g id="line2d_128">
    <path clip-path="url(#pf939dd2b53)" d="M 71.57804 186.032027 
L 152.741676 180.576626 
L 233.905312 147.121607 
L 315.068949 251.568763 
L 396.232585 238.365735 
" style="fill:none;stroke:#ff0000;stroke-linecap:square;stroke-width:2;"/>
   </g>
   <g id="line2d_129">
    <path clip-path="url(#pf939dd2b53)" d="M 71.57804 105.957696 
L 152.741676 214.574733 
L 233.905312 139.366395 
L 315.068949 267.303243 
L 396.232585 239.620477 
" style="fill:none;stroke:#ff0000;stroke-linecap:square;stroke-width:2;"/>
   </g>
   <g id="line2d_130">
    <path clip-path="url(#pf939dd2b53)" d="M 71.57804 172.449954 
L 152.741676 198.614224 
L 233.905312 141.432984 
L 315.068949 266.527992 
L 396.232585 234.367782 
" style="fill:none;stroke:#ff0000;stroke-linecap:square;stroke-width:2;"/>
   </g>
   <g id="line2d_131">
    <path clip-path="url(#pf939dd2b53)" d="M 71.57804 182.221177 
L 152.741676 225.145547 
L 233.905312 97.629656 
L 315.068949 265.85647 
L 396.232585 234.178805 
" style="fill:none;stroke:#ff0000;stroke-linecap:square;stroke-width:2;"/>
   </g>
   <g id="line2d_132">
    <path clip-path="url(#pf939dd2b53)" d="M 71.57804 142.196613 
L 152.741676 225.968048 
L 233.905312 139.728474 
L 315.068949 242.719227 
L 396.232585 222.120725 
" style="fill:none;stroke:#ff0000;stroke-linecap:square;stroke-width:2;"/>
   </g>
   <g id="line2d_133">
    <path clip-path="url(#pf939dd2b53)" d="M 71.57804 194.567406 
L 152.741676 165.89419 
L 233.905312 147.94866 
L 315.068949 270.821521 
L 396.232585 234.511392 
" style="fill:none;stroke:#ff0000;stroke-linecap:square;stroke-width:2;"/>
   </g>
   <g id="patch_3">
    <path d="M 55.345313 288.430125 
L 55.345313 22.318125 
" style="fill:none;stroke:#000000;stroke-linecap:square;stroke-linejoin:miter;stroke-width:0.8;"/>
   </g>
   <g id="patch_4">
    <path d="M 412.465312 288.430125 
L 412.465312 22.318125 
" style="fill:none;stroke:#000000;stroke-linecap:square;stroke-linejoin:miter;stroke-width:0.8;"/>
   </g>
   <g id="patch_5">
    <path d="M 55.345312 288.430125 
L 412.465312 288.430125 
" style="fill:none;stroke:#000000;stroke-linecap:square;stroke-linejoin:miter;stroke-width:0.8;"/>
   </g>
   <g id="patch_6">
    <path d="M 55.345312 22.318125 
L 412.465312 22.318125 
" style="fill:none;stroke:#000000;stroke-linecap:square;stroke-linejoin:miter;stroke-width:0.8;"/>
   </g>
   <g id="text_19">
    <!-- Parallel Coordinate Plot -->
    <g transform="translate(164.029688 16.318125)scale(0.12 -0.12)">
     <defs>
      <path d="M 1259 4147 
L 1259 2394 
L 2053 2394 
Q 2494 2394 2734 2622 
Q 2975 2850 2975 3272 
Q 2975 3691 2734 3919 
Q 2494 4147 2053 4147 
L 1259 4147 
z
M 628 4666 
L 2053 4666 
Q 2838 4666 3239 4311 
Q 3641 3956 3641 3272 
Q 3641 2581 3239 2228 
Q 2838 1875 2053 1875 
L 1259 1875 
L 1259 0 
L 628 0 
L 628 4666 
z
" id="DejaVuSans-50" transform="scale(0.015625)"/>
      <path d="M 4122 4306 
L 4122 3641 
Q 3803 3938 3442 4084 
Q 3081 4231 2675 4231 
Q 1875 4231 1450 3742 
Q 1025 3253 1025 2328 
Q 1025 1406 1450 917 
Q 1875 428 2675 428 
Q 3081 428 3442 575 
Q 3803 722 4122 1019 
L 4122 359 
Q 3791 134 3420 21 
Q 3050 -91 2638 -91 
Q 1578 -91 968 557 
Q 359 1206 359 2328 
Q 359 3453 968 4101 
Q 1578 4750 2638 4750 
Q 3056 4750 3426 4639 
Q 3797 4528 4122 4306 
z
" id="DejaVuSans-43" transform="scale(0.015625)"/>
      <path d="M 2906 2969 
L 2906 4863 
L 3481 4863 
L 3481 0 
L 2906 0 
L 2906 525 
Q 2725 213 2448 61 
Q 2172 -91 1784 -91 
Q 1150 -91 751 415 
Q 353 922 353 1747 
Q 353 2572 751 3078 
Q 1150 3584 1784 3584 
Q 2172 3584 2448 3432 
Q 2725 3281 2906 2969 
z
M 947 1747 
Q 947 1113 1208 752 
Q 1469 391 1925 391 
Q 2381 391 2643 752 
Q 2906 1113 2906 1747 
Q 2906 2381 2643 2742 
Q 2381 3103 1925 3103 
Q 1469 3103 1208 2742 
Q 947 2381 947 1747 
z
" id="DejaVuSans-64" transform="scale(0.015625)"/>
      <path d="M 1172 4494 
L 1172 3500 
L 2356 3500 
L 2356 3053 
L 1172 3053 
L 1172 1153 
Q 1172 725 1289 603 
Q 1406 481 1766 481 
L 2356 481 
L 2356 0 
L 1766 0 
Q 1100 0 847 248 
Q 594 497 594 1153 
L 594 3053 
L 172 3053 
L 172 3500 
L 594 3500 
L 594 4494 
L 1172 4494 
z
" id="DejaVuSans-74" transform="scale(0.015625)"/>
     </defs>
     <use xlink:href="#DejaVuSans-50"/>
     <use x="55.802734" xlink:href="#DejaVuSans-61"/>
     <use x="117.082031" xlink:href="#DejaVuSans-72"/>
     <use x="158.195312" xlink:href="#DejaVuSans-61"/>
     <use x="219.474609" xlink:href="#DejaVuSans-6c"/>
     <use x="247.257812" xlink:href="#DejaVuSans-6c"/>
     <use x="275.041016" xlink:href="#DejaVuSans-65"/>
     <use x="336.564453" xlink:href="#DejaVuSans-6c"/>
     <use x="364.347656" xlink:href="#DejaVuSans-20"/>
     <use x="396.134766" xlink:href="#DejaVuSans-43"/>
     <use x="465.958984" xlink:href="#DejaVuSans-6f"/>
     <use x="527.140625" xlink:href="#DejaVuSans-6f"/>
     <use x="588.322266" xlink:href="#DejaVuSans-72"/>
     <use x="627.685547" xlink:href="#DejaVuSans-64"/>
     <use x="691.162109" xlink:href="#DejaVuSans-69"/>
     <use x="718.945312" xlink:href="#DejaVuSans-6e"/>
     <use x="782.324219" xlink:href="#DejaVuSans-61"/>
     <use x="843.603516" xlink:href="#DejaVuSans-74"/>
     <use x="882.8125" xlink:href="#DejaVuSans-65"/>
     <use x="944.335938" xlink:href="#DejaVuSans-20"/>
     <use x="976.123047" xlink:href="#DejaVuSans-50"/>
     <use x="1036.425781" xlink:href="#DejaVuSans-6c"/>
     <use x="1064.208984" xlink:href="#DejaVuSans-6f"/>
     <use x="1125.390625" xlink:href="#DejaVuSans-74"/>
    </g>
   </g>
   <g id="legend_1">
    <g id="patch_7">
     <path d="M 262.566875 44.99625 
L 405.465312 44.99625 
Q 407.465312 44.99625 407.465312 42.99625 
L 407.465312 29.318125 
Q 407.465312 27.318125 405.465312 27.318125 
L 262.566875 27.318125 
Q 260.566875 27.318125 260.566875 29.318125 
L 260.566875 42.99625 
Q 260.566875 44.99625 262.566875 44.99625 
z
" style="fill:#ffffff;opacity:0.8;stroke:#cccccc;stroke-linejoin:miter;"/>
    </g>
    <g id="line2d_134">
     <path d="M 264.566875 35.416562 
L 284.566875 35.416562 
" style="fill:none;stroke:#ff0000;stroke-linecap:square;stroke-width:2;"/>
    </g>
    <g id="line2d_135"/>
    <g id="text_20">
     <!-- MOEA Objective Value -->
     <g transform="translate(292.566875 38.916562)scale(0.1 -0.1)">
      <defs>
       <path d="M 628 4666 
L 1569 4666 
L 2759 1491 
L 3956 4666 
L 4897 4666 
L 4897 0 
L 4281 0 
L 4281 4097 
L 3078 897 
L 2444 897 
L 1241 4097 
L 1241 0 
L 628 0 
L 628 4666 
z
" id="DejaVuSans-4d" transform="scale(0.015625)"/>
       <path d="M 2522 4238 
Q 1834 4238 1429 3725 
Q 1025 3213 1025 2328 
Q 1025 1447 1429 934 
Q 1834 422 2522 422 
Q 3209 422 3611 934 
Q 4013 1447 4013 2328 
Q 4013 3213 3611 3725 
Q 3209 4238 2522 4238 
z
M 2522 4750 
Q 3503 4750 4090 4092 
Q 4678 3434 4678 2328 
Q 4678 1225 4090 567 
Q 3503 -91 2522 -91 
Q 1538 -91 948 565 
Q 359 1222 359 2328 
Q 359 3434 948 4092 
Q 1538 4750 2522 4750 
z
" id="DejaVuSans-4f" transform="scale(0.015625)"/>
       <path d="M 628 4666 
L 3578 4666 
L 3578 4134 
L 1259 4134 
L 1259 2753 
L 3481 2753 
L 3481 2222 
L 1259 2222 
L 1259 531 
L 3634 531 
L 3634 0 
L 628 0 
L 628 4666 
z
" id="DejaVuSans-45" transform="scale(0.015625)"/>
       <path d="M 2188 4044 
L 1331 1722 
L 3047 1722 
L 2188 4044 
z
M 1831 4666 
L 2547 4666 
L 4325 0 
L 3669 0 
L 3244 1197 
L 1141 1197 
L 716 0 
L 50 0 
L 1831 4666 
z
" id="DejaVuSans-41" transform="scale(0.015625)"/>
       <path d="M 603 3500 
L 1178 3500 
L 1178 -63 
Q 1178 -731 923 -1031 
Q 669 -1331 103 -1331 
L -116 -1331 
L -116 -844 
L 38 -844 
Q 366 -844 484 -692 
Q 603 -541 603 -63 
L 603 3500 
z
M 603 4863 
L 1178 4863 
L 1178 4134 
L 603 4134 
L 603 4863 
z
" id="DejaVuSans-6a" transform="scale(0.015625)"/>
       <path d="M 3122 3366 
L 3122 2828 
Q 2878 2963 2633 3030 
Q 2388 3097 2138 3097 
Q 1578 3097 1268 2742 
Q 959 2388 959 1747 
Q 959 1106 1268 751 
Q 1578 397 2138 397 
Q 2388 397 2633 464 
Q 2878 531 3122 666 
L 3122 134 
Q 2881 22 2623 -34 
Q 2366 -91 2075 -91 
Q 1284 -91 818 406 
Q 353 903 353 1747 
Q 353 2603 823 3093 
Q 1294 3584 2113 3584 
Q 2378 3584 2631 3529 
Q 2884 3475 3122 3366 
z
" id="DejaVuSans-63" transform="scale(0.015625)"/>
       <path d="M 191 3500 
L 800 3500 
L 1894 563 
L 2988 3500 
L 3597 3500 
L 2284 0 
L 1503 0 
L 191 3500 
z
" id="DejaVuSans-76" transform="scale(0.015625)"/>
      </defs>
      <use xlink:href="#DejaVuSans-4d"/>
      <use x="86.279297" xlink:href="#DejaVuSans-4f"/>
      <use x="164.990234" xlink:href="#DejaVuSans-45"/>
      <use x="228.173828" xlink:href="#DejaVuSans-41"/>
      <use x="296.582031" xlink:href="#DejaVuSans-20"/>
      <use x="328.369141" xlink:href="#DejaVuSans-4f"/>
      <use x="407.080078" xlink:href="#DejaVuSans-62"/>
      <use x="470.556641" xlink:href="#DejaVuSans-6a"/>
      <use x="498.339844" xlink:href="#DejaVuSans-65"/>
      <use x="559.863281" xlink:href="#DejaVuSans-63"/>
      <use x="614.84375" xlink:href="#DejaVuSans-74"/>
      <use x="654.052734" xlink:href="#DejaVuSans-69"/>
      <use x="681.835938" xlink:href="#DejaVuSans-76"/>
      <use x="741.015625" xlink:href="#DejaVuSans-65"/>
      <use x="802.539062" xlink:href="#DejaVuSans-20"/>
      <use x="834.326172" xlink:href="#DejaVuSans-56"/>
      <use x="894.984375" xlink:href="#DejaVuSans-61"/>
      <use x="956.263672" xlink:href="#DejaVuSans-6c"/>
      <use x="984.046875" xlink:href="#DejaVuSans-75"/>
      <use x="1047.425781" xlink:href="#DejaVuSans-65"/>
     </g>
    </g>
   </g>
  </g>
 </g>
 <defs>
  <clipPath id="pf939dd2b53">
   <rect height="266.112" width="357.12" x="55.345313" y="22.318125"/>
  </clipPath>
 </defs>
</svg>
