<?xml version="1.0" encoding="utf-8" standalone="no"?>
<!DOCTYPE svg PUBLIC "-//W3C//DTD SVG 1.1//EN"
  "http://www.w3.org/Graphics/SVG/1.1/DTD/svg11.dtd">
<svg height="325.986375pt" version="1.1" viewBox="0 0 411.285625 325.986375" width="411.285625pt" xmlns="http://www.w3.org/2000/svg" xmlns:xlink="http://www.w3.org/1999/xlink">
 <metadata>
  <rdf:RDF xmlns:cc="http://creativecommons.org/ns#" xmlns:dc="http://purl.org/dc/elements/1.1/" xmlns:rdf="http://www.w3.org/1999/02/22-rdf-syntax-ns#">
   <cc:Work>
    <dc:type rdf:resource="http://purl.org/dc/dcmitype/StillImage"/>
    <dc:date>2022-02-21T14:17:23.715668</dc:date>
    <dc:format>image/svg+xml</dc:format>
    <dc:creator>
     <cc:Agent>
      <dc:title>Matplotlib v3.4.1, https://matplotlib.org/</dc:title>
     </cc:Agent>
    </dc:creator>
   </cc:Work>
  </rdf:RDF>
 </metadata>
 <defs>
  <style type="text/css">*{stroke-linecap:butt;stroke-linejoin:round;}</style>
 </defs>
 <g id="figure_1">
  <g id="patch_1">
   <path d="M 0 325.986375 
L 411.285625 325.986375 
L 411.285625 0 
L 0 0 
z
" style="fill:#ffffff;"/>
  </g>
  <g id="axes_1">
   <g id="patch_2">
    <path d="M 46.965625 288.430125 
L 404.085625 288.430125 
L 404.085625 22.318125 
L 46.965625 22.318125 
z
" style="fill:#ffffff;"/>
   </g>
   <g id="matplotlib.axis_1">
    <g id="xtick_1">
     <g id="line2d_1">
      <defs>
       <path d="M 0 0 
L 0 3.5 
" id="mde1177585e" style="stroke:#000000;stroke-width:0.8;"/>
      </defs>
      <g>
       <use style="stroke:#000000;stroke-width:0.8;" x="62.872721" xlink:href="#mde1177585e" y="288.430125"/>
      </g>
     </g>
     <g id="text_1">
      <!-- 0 -->
      <g transform="translate(59.691471 303.028562)scale(0.1 -0.1)">
       <defs>
        <path d="M 2034 4250 
Q 1547 4250 1301 3770 
Q 1056 3291 1056 2328 
Q 1056 1369 1301 889 
Q 1547 409 2034 409 
Q 2525 409 2770 889 
Q 3016 1369 3016 2328 
Q 3016 3291 2770 3770 
Q 2525 4250 2034 4250 
z
M 2034 4750 
Q 2819 4750 3233 4129 
Q 3647 3509 3647 2328 
Q 3647 1150 3233 529 
Q 2819 -91 2034 -91 
Q 1250 -91 836 529 
Q 422 1150 422 2328 
Q 422 3509 836 4129 
Q 1250 4750 2034 4750 
z
" id="DejaVuSans-30" transform="scale(0.015625)"/>
       </defs>
       <use xlink:href="#DejaVuSans-30"/>
      </g>
     </g>
    </g>
    <g id="xtick_2">
     <g id="line2d_2">
      <g>
       <use style="stroke:#000000;stroke-width:0.8;" x="127.999009" xlink:href="#mde1177585e" y="288.430125"/>
      </g>
     </g>
     <g id="text_2">
      <!-- 200 -->
      <g transform="translate(118.455259 303.028562)scale(0.1 -0.1)">
       <defs>
        <path d="M 1228 531 
L 3431 531 
L 3431 0 
L 469 0 
L 469 531 
Q 828 903 1448 1529 
Q 2069 2156 2228 2338 
Q 2531 2678 2651 2914 
Q 2772 3150 2772 3378 
Q 2772 3750 2511 3984 
Q 2250 4219 1831 4219 
Q 1534 4219 1204 4116 
Q 875 4013 500 3803 
L 500 4441 
Q 881 4594 1212 4672 
Q 1544 4750 1819 4750 
Q 2544 4750 2975 4387 
Q 3406 4025 3406 3419 
Q 3406 3131 3298 2873 
Q 3191 2616 2906 2266 
Q 2828 2175 2409 1742 
Q 1991 1309 1228 531 
z
" id="DejaVuSans-32" transform="scale(0.015625)"/>
       </defs>
       <use xlink:href="#DejaVuSans-32"/>
       <use x="63.623047" xlink:href="#DejaVuSans-30"/>
       <use x="127.246094" xlink:href="#DejaVuSans-30"/>
      </g>
     </g>
    </g>
    <g id="xtick_3">
     <g id="line2d_3">
      <g>
       <use style="stroke:#000000;stroke-width:0.8;" x="193.125297" xlink:href="#mde1177585e" y="288.430125"/>
      </g>
     </g>
     <g id="text_3">
      <!-- 400 -->
      <g transform="translate(183.581547 303.028562)scale(0.1 -0.1)">
       <defs>
        <path d="M 2419 4116 
L 825 1625 
L 2419 1625 
L 2419 4116 
z
M 2253 4666 
L 3047 4666 
L 3047 1625 
L 3713 1625 
L 3713 1100 
L 3047 1100 
L 3047 0 
L 2419 0 
L 2419 1100 
L 313 1100 
L 313 1709 
L 2253 4666 
z
" id="DejaVuSans-34" transform="scale(0.015625)"/>
       </defs>
       <use xlink:href="#DejaVuSans-34"/>
       <use x="63.623047" xlink:href="#DejaVuSans-30"/>
       <use x="127.246094" xlink:href="#DejaVuSans-30"/>
      </g>
     </g>
    </g>
    <g id="xtick_4">
     <g id="line2d_4">
      <g>
       <use style="stroke:#000000;stroke-width:0.8;" x="258.251585" xlink:href="#mde1177585e" y="288.430125"/>
      </g>
     </g>
     <g id="text_4">
      <!-- 600 -->
      <g transform="translate(248.707835 303.028562)scale(0.1 -0.1)">
       <defs>
        <path d="M 2113 2584 
Q 1688 2584 1439 2293 
Q 1191 2003 1191 1497 
Q 1191 994 1439 701 
Q 1688 409 2113 409 
Q 2538 409 2786 701 
Q 3034 994 3034 1497 
Q 3034 2003 2786 2293 
Q 2538 2584 2113 2584 
z
M 3366 4563 
L 3366 3988 
Q 3128 4100 2886 4159 
Q 2644 4219 2406 4219 
Q 1781 4219 1451 3797 
Q 1122 3375 1075 2522 
Q 1259 2794 1537 2939 
Q 1816 3084 2150 3084 
Q 2853 3084 3261 2657 
Q 3669 2231 3669 1497 
Q 3669 778 3244 343 
Q 2819 -91 2113 -91 
Q 1303 -91 875 529 
Q 447 1150 447 2328 
Q 447 3434 972 4092 
Q 1497 4750 2381 4750 
Q 2619 4750 2861 4703 
Q 3103 4656 3366 4563 
z
" id="DejaVuSans-36" transform="scale(0.015625)"/>
       </defs>
       <use xlink:href="#DejaVuSans-36"/>
       <use x="63.623047" xlink:href="#DejaVuSans-30"/>
       <use x="127.246094" xlink:href="#DejaVuSans-30"/>
      </g>
     </g>
    </g>
    <g id="xtick_5">
     <g id="line2d_5">
      <g>
       <use style="stroke:#000000;stroke-width:0.8;" x="323.377873" xlink:href="#mde1177585e" y="288.430125"/>
      </g>
     </g>
     <g id="text_5">
      <!-- 800 -->
      <g transform="translate(313.834123 303.028562)scale(0.1 -0.1)">
       <defs>
        <path d="M 2034 2216 
Q 1584 2216 1326 1975 
Q 1069 1734 1069 1313 
Q 1069 891 1326 650 
Q 1584 409 2034 409 
Q 2484 409 2743 651 
Q 3003 894 3003 1313 
Q 3003 1734 2745 1975 
Q 2488 2216 2034 2216 
z
M 1403 2484 
Q 997 2584 770 2862 
Q 544 3141 544 3541 
Q 544 4100 942 4425 
Q 1341 4750 2034 4750 
Q 2731 4750 3128 4425 
Q 3525 4100 3525 3541 
Q 3525 3141 3298 2862 
Q 3072 2584 2669 2484 
Q 3125 2378 3379 2068 
Q 3634 1759 3634 1313 
Q 3634 634 3220 271 
Q 2806 -91 2034 -91 
Q 1263 -91 848 271 
Q 434 634 434 1313 
Q 434 1759 690 2068 
Q 947 2378 1403 2484 
z
M 1172 3481 
Q 1172 3119 1398 2916 
Q 1625 2713 2034 2713 
Q 2441 2713 2670 2916 
Q 2900 3119 2900 3481 
Q 2900 3844 2670 4047 
Q 2441 4250 2034 4250 
Q 1625 4250 1398 4047 
Q 1172 3844 1172 3481 
z
" id="DejaVuSans-38" transform="scale(0.015625)"/>
       </defs>
       <use xlink:href="#DejaVuSans-38"/>
       <use x="63.623047" xlink:href="#DejaVuSans-30"/>
       <use x="127.246094" xlink:href="#DejaVuSans-30"/>
      </g>
     </g>
    </g>
    <g id="xtick_6">
     <g id="line2d_6">
      <g>
       <use style="stroke:#000000;stroke-width:0.8;" x="388.504161" xlink:href="#mde1177585e" y="288.430125"/>
      </g>
     </g>
     <g id="text_6">
      <!-- 1000 -->
      <g transform="translate(375.779161 303.028562)scale(0.1 -0.1)">
       <defs>
        <path d="M 794 531 
L 1825 531 
L 1825 4091 
L 703 3866 
L 703 4441 
L 1819 4666 
L 2450 4666 
L 2450 531 
L 3481 531 
L 3481 0 
L 794 0 
L 794 531 
z
" id="DejaVuSans-31" transform="scale(0.015625)"/>
       </defs>
       <use xlink:href="#DejaVuSans-31"/>
       <use x="63.623047" xlink:href="#DejaVuSans-30"/>
       <use x="127.246094" xlink:href="#DejaVuSans-30"/>
       <use x="190.869141" xlink:href="#DejaVuSans-30"/>
      </g>
     </g>
    </g>
    <g id="text_7">
     <!-- Number of Generation -->
     <g transform="translate(169.549063 316.706687)scale(0.1 -0.1)">
      <defs>
       <path d="M 628 4666 
L 1478 4666 
L 3547 763 
L 3547 4666 
L 4159 4666 
L 4159 0 
L 3309 0 
L 1241 3903 
L 1241 0 
L 628 0 
L 628 4666 
z
" id="DejaVuSans-4e" transform="scale(0.015625)"/>
       <path d="M 544 1381 
L 544 3500 
L 1119 3500 
L 1119 1403 
Q 1119 906 1312 657 
Q 1506 409 1894 409 
Q 2359 409 2629 706 
Q 2900 1003 2900 1516 
L 2900 3500 
L 3475 3500 
L 3475 0 
L 2900 0 
L 2900 538 
Q 2691 219 2414 64 
Q 2138 -91 1772 -91 
Q 1169 -91 856 284 
Q 544 659 544 1381 
z
M 1991 3584 
L 1991 3584 
z
" id="DejaVuSans-75" transform="scale(0.015625)"/>
       <path d="M 3328 2828 
Q 3544 3216 3844 3400 
Q 4144 3584 4550 3584 
Q 5097 3584 5394 3201 
Q 5691 2819 5691 2113 
L 5691 0 
L 5113 0 
L 5113 2094 
Q 5113 2597 4934 2840 
Q 4756 3084 4391 3084 
Q 3944 3084 3684 2787 
Q 3425 2491 3425 1978 
L 3425 0 
L 2847 0 
L 2847 2094 
Q 2847 2600 2669 2842 
Q 2491 3084 2119 3084 
Q 1678 3084 1418 2786 
Q 1159 2488 1159 1978 
L 1159 0 
L 581 0 
L 581 3500 
L 1159 3500 
L 1159 2956 
Q 1356 3278 1631 3431 
Q 1906 3584 2284 3584 
Q 2666 3584 2933 3390 
Q 3200 3197 3328 2828 
z
" id="DejaVuSans-6d" transform="scale(0.015625)"/>
       <path d="M 3116 1747 
Q 3116 2381 2855 2742 
Q 2594 3103 2138 3103 
Q 1681 3103 1420 2742 
Q 1159 2381 1159 1747 
Q 1159 1113 1420 752 
Q 1681 391 2138 391 
Q 2594 391 2855 752 
Q 3116 1113 3116 1747 
z
M 1159 2969 
Q 1341 3281 1617 3432 
Q 1894 3584 2278 3584 
Q 2916 3584 3314 3078 
Q 3713 2572 3713 1747 
Q 3713 922 3314 415 
Q 2916 -91 2278 -91 
Q 1894 -91 1617 61 
Q 1341 213 1159 525 
L 1159 0 
L 581 0 
L 581 4863 
L 1159 4863 
L 1159 2969 
z
" id="DejaVuSans-62" transform="scale(0.015625)"/>
       <path d="M 3597 1894 
L 3597 1613 
L 953 1613 
Q 991 1019 1311 708 
Q 1631 397 2203 397 
Q 2534 397 2845 478 
Q 3156 559 3463 722 
L 3463 178 
Q 3153 47 2828 -22 
Q 2503 -91 2169 -91 
Q 1331 -91 842 396 
Q 353 884 353 1716 
Q 353 2575 817 3079 
Q 1281 3584 2069 3584 
Q 2775 3584 3186 3129 
Q 3597 2675 3597 1894 
z
M 3022 2063 
Q 3016 2534 2758 2815 
Q 2500 3097 2075 3097 
Q 1594 3097 1305 2825 
Q 1016 2553 972 2059 
L 3022 2063 
z
" id="DejaVuSans-65" transform="scale(0.015625)"/>
       <path d="M 2631 2963 
Q 2534 3019 2420 3045 
Q 2306 3072 2169 3072 
Q 1681 3072 1420 2755 
Q 1159 2438 1159 1844 
L 1159 0 
L 581 0 
L 581 3500 
L 1159 3500 
L 1159 2956 
Q 1341 3275 1631 3429 
Q 1922 3584 2338 3584 
Q 2397 3584 2469 3576 
Q 2541 3569 2628 3553 
L 2631 2963 
z
" id="DejaVuSans-72" transform="scale(0.015625)"/>
       <path id="DejaVuSans-20" transform="scale(0.015625)"/>
       <path d="M 1959 3097 
Q 1497 3097 1228 2736 
Q 959 2375 959 1747 
Q 959 1119 1226 758 
Q 1494 397 1959 397 
Q 2419 397 2687 759 
Q 2956 1122 2956 1747 
Q 2956 2369 2687 2733 
Q 2419 3097 1959 3097 
z
M 1959 3584 
Q 2709 3584 3137 3096 
Q 3566 2609 3566 1747 
Q 3566 888 3137 398 
Q 2709 -91 1959 -91 
Q 1206 -91 779 398 
Q 353 888 353 1747 
Q 353 2609 779 3096 
Q 1206 3584 1959 3584 
z
" id="DejaVuSans-6f" transform="scale(0.015625)"/>
       <path d="M 2375 4863 
L 2375 4384 
L 1825 4384 
Q 1516 4384 1395 4259 
Q 1275 4134 1275 3809 
L 1275 3500 
L 2222 3500 
L 2222 3053 
L 1275 3053 
L 1275 0 
L 697 0 
L 697 3053 
L 147 3053 
L 147 3500 
L 697 3500 
L 697 3744 
Q 697 4328 969 4595 
Q 1241 4863 1831 4863 
L 2375 4863 
z
" id="DejaVuSans-66" transform="scale(0.015625)"/>
       <path d="M 3809 666 
L 3809 1919 
L 2778 1919 
L 2778 2438 
L 4434 2438 
L 4434 434 
Q 4069 175 3628 42 
Q 3188 -91 2688 -91 
Q 1594 -91 976 548 
Q 359 1188 359 2328 
Q 359 3472 976 4111 
Q 1594 4750 2688 4750 
Q 3144 4750 3555 4637 
Q 3966 4525 4313 4306 
L 4313 3634 
Q 3963 3931 3569 4081 
Q 3175 4231 2741 4231 
Q 1884 4231 1454 3753 
Q 1025 3275 1025 2328 
Q 1025 1384 1454 906 
Q 1884 428 2741 428 
Q 3075 428 3337 486 
Q 3600 544 3809 666 
z
" id="DejaVuSans-47" transform="scale(0.015625)"/>
       <path d="M 3513 2113 
L 3513 0 
L 2938 0 
L 2938 2094 
Q 2938 2591 2744 2837 
Q 2550 3084 2163 3084 
Q 1697 3084 1428 2787 
Q 1159 2491 1159 1978 
L 1159 0 
L 581 0 
L 581 3500 
L 1159 3500 
L 1159 2956 
Q 1366 3272 1645 3428 
Q 1925 3584 2291 3584 
Q 2894 3584 3203 3211 
Q 3513 2838 3513 2113 
z
" id="DejaVuSans-6e" transform="scale(0.015625)"/>
       <path d="M 2194 1759 
Q 1497 1759 1228 1600 
Q 959 1441 959 1056 
Q 959 750 1161 570 
Q 1363 391 1709 391 
Q 2188 391 2477 730 
Q 2766 1069 2766 1631 
L 2766 1759 
L 2194 1759 
z
M 3341 1997 
L 3341 0 
L 2766 0 
L 2766 531 
Q 2569 213 2275 61 
Q 1981 -91 1556 -91 
Q 1019 -91 701 211 
Q 384 513 384 1019 
Q 384 1609 779 1909 
Q 1175 2209 1959 2209 
L 2766 2209 
L 2766 2266 
Q 2766 2663 2505 2880 
Q 2244 3097 1772 3097 
Q 1472 3097 1187 3025 
Q 903 2953 641 2809 
L 641 3341 
Q 956 3463 1253 3523 
Q 1550 3584 1831 3584 
Q 2591 3584 2966 3190 
Q 3341 2797 3341 1997 
z
" id="DejaVuSans-61" transform="scale(0.015625)"/>
       <path d="M 1172 4494 
L 1172 3500 
L 2356 3500 
L 2356 3053 
L 1172 3053 
L 1172 1153 
Q 1172 725 1289 603 
Q 1406 481 1766 481 
L 2356 481 
L 2356 0 
L 1766 0 
Q 1100 0 847 248 
Q 594 497 594 1153 
L 594 3053 
L 172 3053 
L 172 3500 
L 594 3500 
L 594 4494 
L 1172 4494 
z
" id="DejaVuSans-74" transform="scale(0.015625)"/>
       <path d="M 603 3500 
L 1178 3500 
L 1178 0 
L 603 0 
L 603 3500 
z
M 603 4863 
L 1178 4863 
L 1178 4134 
L 603 4134 
L 603 4863 
z
" id="DejaVuSans-69" transform="scale(0.015625)"/>
      </defs>
      <use xlink:href="#DejaVuSans-4e"/>
      <use x="74.804688" xlink:href="#DejaVuSans-75"/>
      <use x="138.183594" xlink:href="#DejaVuSans-6d"/>
      <use x="235.595703" xlink:href="#DejaVuSans-62"/>
      <use x="299.072266" xlink:href="#DejaVuSans-65"/>
      <use x="360.595703" xlink:href="#DejaVuSans-72"/>
      <use x="401.708984" xlink:href="#DejaVuSans-20"/>
      <use x="433.496094" xlink:href="#DejaVuSans-6f"/>
      <use x="494.677734" xlink:href="#DejaVuSans-66"/>
      <use x="529.882812" xlink:href="#DejaVuSans-20"/>
      <use x="561.669922" xlink:href="#DejaVuSans-47"/>
      <use x="639.160156" xlink:href="#DejaVuSans-65"/>
      <use x="700.683594" xlink:href="#DejaVuSans-6e"/>
      <use x="764.0625" xlink:href="#DejaVuSans-65"/>
      <use x="825.585938" xlink:href="#DejaVuSans-72"/>
      <use x="866.699219" xlink:href="#DejaVuSans-61"/>
      <use x="927.978516" xlink:href="#DejaVuSans-74"/>
      <use x="967.1875" xlink:href="#DejaVuSans-69"/>
      <use x="994.970703" xlink:href="#DejaVuSans-6f"/>
      <use x="1056.152344" xlink:href="#DejaVuSans-6e"/>
     </g>
    </g>
   </g>
   <g id="matplotlib.axis_2">
    <g id="ytick_1">
     <g id="line2d_7">
      <defs>
       <path d="M 0 0 
L -3.5 0 
" id="md49653a669" style="stroke:#000000;stroke-width:0.8;"/>
      </defs>
      <g>
       <use style="stroke:#000000;stroke-width:0.8;" x="46.965625" xlink:href="#md49653a669" y="270.961651"/>
      </g>
     </g>
     <g id="text_8">
      <!-- 100 -->
      <g transform="translate(20.878125 274.760869)scale(0.1 -0.1)">
       <use xlink:href="#DejaVuSans-31"/>
       <use x="63.623047" xlink:href="#DejaVuSans-30"/>
       <use x="127.246094" xlink:href="#DejaVuSans-30"/>
      </g>
     </g>
    </g>
    <g id="ytick_2">
     <g id="line2d_8">
      <g>
       <use style="stroke:#000000;stroke-width:0.8;" x="46.965625" xlink:href="#md49653a669" y="219.9905"/>
      </g>
     </g>
     <g id="text_9">
      <!-- 150 -->
      <g transform="translate(20.878125 223.789719)scale(0.1 -0.1)">
       <defs>
        <path d="M 691 4666 
L 3169 4666 
L 3169 4134 
L 1269 4134 
L 1269 2991 
Q 1406 3038 1543 3061 
Q 1681 3084 1819 3084 
Q 2600 3084 3056 2656 
Q 3513 2228 3513 1497 
Q 3513 744 3044 326 
Q 2575 -91 1722 -91 
Q 1428 -91 1123 -41 
Q 819 9 494 109 
L 494 744 
Q 775 591 1075 516 
Q 1375 441 1709 441 
Q 2250 441 2565 725 
Q 2881 1009 2881 1497 
Q 2881 1984 2565 2268 
Q 2250 2553 1709 2553 
Q 1456 2553 1204 2497 
Q 953 2441 691 2322 
L 691 4666 
z
" id="DejaVuSans-35" transform="scale(0.015625)"/>
       </defs>
       <use xlink:href="#DejaVuSans-31"/>
       <use x="63.623047" xlink:href="#DejaVuSans-35"/>
       <use x="127.246094" xlink:href="#DejaVuSans-30"/>
      </g>
     </g>
    </g>
    <g id="ytick_3">
     <g id="line2d_9">
      <g>
       <use style="stroke:#000000;stroke-width:0.8;" x="46.965625" xlink:href="#md49653a669" y="169.01935"/>
      </g>
     </g>
     <g id="text_10">
      <!-- 200 -->
      <g transform="translate(20.878125 172.818569)scale(0.1 -0.1)">
       <use xlink:href="#DejaVuSans-32"/>
       <use x="63.623047" xlink:href="#DejaVuSans-30"/>
       <use x="127.246094" xlink:href="#DejaVuSans-30"/>
      </g>
     </g>
    </g>
    <g id="ytick_4">
     <g id="line2d_10">
      <g>
       <use style="stroke:#000000;stroke-width:0.8;" x="46.965625" xlink:href="#md49653a669" y="118.0482"/>
      </g>
     </g>
     <g id="text_11">
      <!-- 250 -->
      <g transform="translate(20.878125 121.847419)scale(0.1 -0.1)">
       <use xlink:href="#DejaVuSans-32"/>
       <use x="63.623047" xlink:href="#DejaVuSans-35"/>
       <use x="127.246094" xlink:href="#DejaVuSans-30"/>
      </g>
     </g>
    </g>
    <g id="ytick_5">
     <g id="line2d_11">
      <g>
       <use style="stroke:#000000;stroke-width:0.8;" x="46.965625" xlink:href="#md49653a669" y="67.07705"/>
      </g>
     </g>
     <g id="text_12">
      <!-- 300 -->
      <g transform="translate(20.878125 70.876268)scale(0.1 -0.1)">
       <defs>
        <path d="M 2597 2516 
Q 3050 2419 3304 2112 
Q 3559 1806 3559 1356 
Q 3559 666 3084 287 
Q 2609 -91 1734 -91 
Q 1441 -91 1130 -33 
Q 819 25 488 141 
L 488 750 
Q 750 597 1062 519 
Q 1375 441 1716 441 
Q 2309 441 2620 675 
Q 2931 909 2931 1356 
Q 2931 1769 2642 2001 
Q 2353 2234 1838 2234 
L 1294 2234 
L 1294 2753 
L 1863 2753 
Q 2328 2753 2575 2939 
Q 2822 3125 2822 3475 
Q 2822 3834 2567 4026 
Q 2313 4219 1838 4219 
Q 1578 4219 1281 4162 
Q 984 4106 628 3988 
L 628 4550 
Q 988 4650 1302 4700 
Q 1616 4750 1894 4750 
Q 2613 4750 3031 4423 
Q 3450 4097 3450 3541 
Q 3450 3153 3228 2886 
Q 3006 2619 2597 2516 
z
" id="DejaVuSans-33" transform="scale(0.015625)"/>
       </defs>
       <use xlink:href="#DejaVuSans-33"/>
       <use x="63.623047" xlink:href="#DejaVuSans-30"/>
       <use x="127.246094" xlink:href="#DejaVuSans-30"/>
      </g>
     </g>
    </g>
    <g id="text_13">
     <!-- Value -->
     <g transform="translate(14.798438 169.105375)rotate(-90)scale(0.1 -0.1)">
      <defs>
       <path d="M 1831 0 
L 50 4666 
L 709 4666 
L 2188 738 
L 3669 4666 
L 4325 4666 
L 2547 0 
L 1831 0 
z
" id="DejaVuSans-56" transform="scale(0.015625)"/>
       <path d="M 603 4863 
L 1178 4863 
L 1178 0 
L 603 0 
L 603 4863 
z
" id="DejaVuSans-6c" transform="scale(0.015625)"/>
      </defs>
      <use xlink:href="#DejaVuSans-56"/>
      <use x="60.658203" xlink:href="#DejaVuSans-61"/>
      <use x="121.9375" xlink:href="#DejaVuSans-6c"/>
      <use x="149.720703" xlink:href="#DejaVuSans-75"/>
      <use x="213.099609" xlink:href="#DejaVuSans-65"/>
     </g>
    </g>
   </g>
   <g id="line2d_12">
    <path clip-path="url(#paeed2ef3ef)" d="M 63.198352 37.861679 
L 63.523984 34.414125 
L 63.849615 143.772779 
L 64.175247 215.260632 
L 64.826509 257.82692 
L 65.152141 274.4145 
L 65.477772 273.556587 
L 65.803404 276.334125 
L 66.129035 275.644437 
L 66.454667 263.40194 
L 66.780298 257.254566 
L 67.10593 256.133842 
L 67.757192 272.958357 
L 68.082824 261.210626 
L 68.408455 275.071165 
L 68.734087 266.242756 
L 69.059718 272.236312 
L 69.38535 264.910357 
L 69.710981 267.379864 
L 70.036613 256.523957 
L 70.362244 258.824004 
L 70.687875 254.636862 
L 71.013507 240.195794 
L 71.339138 243.958003 
L 71.66477 244.161805 
L 71.990401 250.772882 
L 72.316033 250.175745 
L 72.641664 252.583003 
L 72.967295 252.287677 
L 73.292927 245.007043 
L 73.618558 244.725189 
L 73.94419 240.153446 
L 74.595453 254.191697 
L 74.921084 246.856757 
L 75.246716 243.309316 
L 75.897978 258.006174 
L 76.22361 236.635828 
L 76.549241 235.727673 
L 76.874873 233.926594 
L 77.200504 229.034506 
L 77.851767 239.441116 
L 78.177399 232.921342 
L 78.50303 245.458023 
L 78.828661 248.463173 
L 79.154293 240.73937 
L 79.479924 257.850795 
L 79.805556 260.463679 
L 80.131187 256.998014 
L 80.78245 244.864827 
L 81.108081 232.773138 
L 81.433713 250.936423 
L 81.759344 250.042532 
L 82.084976 246.008712 
L 82.410607 249.037672 
L 82.736239 246.349641 
L 83.06187 251.491344 
L 83.387502 250.96058 
L 83.713133 243.656207 
L 84.038764 240.223143 
L 84.364396 242.418698 
L 85.015659 258.424682 
L 85.666922 241.927444 
L 85.992553 240.171202 
L 86.318184 243.72666 
L 86.643816 236.655414 
L 86.969447 243.159531 
L 87.295079 243.897303 
L 87.946342 225.120818 
L 88.271973 234.404399 
L 88.597605 233.625599 
L 88.923236 241.927196 
L 89.574499 224.033059 
L 89.90013 229.139523 
L 90.225762 226.936013 
L 90.551393 244.698513 
L 90.877025 232.895715 
L 91.202656 232.498869 
L 91.528288 248.757 
L 91.853919 246.209343 
L 92.17955 250.166371 
L 92.505182 248.703443 
L 92.830813 257.054708 
L 93.156445 247.559472 
L 93.482076 232.472776 
L 94.133339 246.476322 
L 94.45897 246.892697 
L 94.784602 232.98187 
L 95.110233 246.533686 
L 95.435865 239.382478 
L 95.761496 247.891541 
L 96.087128 248.741622 
L 96.412759 239.216108 
L 96.738391 236.392133 
L 97.064022 244.379791 
L 97.389653 247.080156 
L 97.715285 252.303917 
L 98.040916 251.981905 
L 98.366548 258.860579 
L 99.017811 253.217147 
L 99.343442 239.424104 
L 99.669074 244.348386 
L 99.994705 260.451202 
L 100.320336 255.54533 
L 100.645968 246.109421 
L 100.971599 245.901644 
L 101.297231 242.763881 
L 101.622862 242.859071 
L 102.274125 249.866137 
L 102.599756 256.411688 
L 102.925388 247.94231 
L 103.251019 258.183517 
L 103.576651 245.58255 
L 103.902282 244.699263 
L 104.227914 234.634699 
L 104.879177 237.489132 
L 105.204808 254.667992 
L 105.530439 244.698632 
L 105.856071 251.7489 
L 106.181702 250.849244 
L 106.507334 238.344374 
L 106.832965 246.048502 
L 107.158597 240.887344 
L 107.484228 245.654166 
L 107.80986 247.206841 
L 108.461122 233.863363 
L 108.786754 230.191738 
L 109.112385 231.226712 
L 109.438017 246.572935 
L 109.763648 245.467874 
L 110.08928 232.878061 
L 110.414911 226.022681 
L 111.066174 240.445598 
L 111.391805 237.355576 
L 111.717437 236.247709 
L 112.043068 234.396933 
L 112.3687 224.259724 
L 112.694331 241.432093 
L 113.019963 244.657323 
L 113.345594 256.594904 
L 113.671225 252.84604 
L 113.996857 244.807739 
L 114.322488 239.835106 
L 114.64812 244.677307 
L 114.973751 232.775943 
L 115.299383 231.888398 
L 115.625014 227.550992 
L 115.950646 233.589058 
L 116.276277 242.516281 
L 116.601908 243.218594 
L 116.92754 234.651182 
L 117.253171 231.744876 
L 117.578803 221.326862 
L 117.904434 228.235446 
L 118.230066 231.871568 
L 118.555697 233.381397 
L 118.881328 231.116782 
L 119.532591 245.255563 
L 119.858223 241.764911 
L 120.183854 242.669623 
L 120.509486 244.287555 
L 121.160749 240.973524 
L 121.48638 247.538653 
L 121.812011 238.891476 
L 122.137643 239.452065 
L 122.463274 243.430951 
L 122.788906 239.476586 
L 123.114537 248.744828 
L 123.440169 239.953405 
L 123.7658 226.60641 
L 124.091432 229.34039 
L 124.417063 230.84086 
L 124.742694 227.623778 
L 125.068326 219.762939 
L 125.393957 240.726896 
L 125.719589 233.584098 
L 126.04522 234.659211 
L 126.370852 223.997508 
L 126.696483 232.124728 
L 127.022114 229.522397 
L 127.347746 238.09326 
L 127.673377 234.640223 
L 127.999009 240.466788 
L 128.32464 248.611792 
L 128.975903 243.47962 
L 129.301535 243.851737 
L 129.627166 238.235602 
L 129.952797 240.279382 
L 130.278429 250.370056 
L 130.60406 244.799918 
L 130.929692 246.988788 
L 131.255323 245.697338 
L 131.580955 252.965089 
L 131.906586 246.909756 
L 132.232218 244.014536 
L 132.557849 238.128094 
L 132.88348 237.818108 
L 133.209112 242.178355 
L 133.534743 226.424843 
L 133.860375 227.423519 
L 134.186006 216.173132 
L 134.511638 221.412363 
L 134.837269 219.201165 
L 135.1629 214.874687 
L 135.488532 219.851206 
L 135.814163 221.883375 
L 136.139795 234.458823 
L 136.465426 239.139538 
L 136.791058 236.869803 
L 137.116689 231.023866 
L 137.442321 234.775867 
L 138.093583 230.419411 
L 138.419215 232.079676 
L 138.744846 238.316144 
L 139.070478 239.711124 
L 139.396109 244.685248 
L 139.721741 243.872897 
L 140.047372 234.750061 
L 140.373003 231.426429 
L 140.698635 239.191893 
L 141.024266 224.569505 
L 141.349898 237.482061 
L 141.675529 242.854832 
L 142.001161 242.566986 
L 142.326792 263.126232 
L 142.652424 250.682117 
L 142.978055 246.206122 
L 143.303686 243.475127 
L 143.629318 232.419752 
L 143.954949 232.22176 
L 144.280581 220.433192 
L 144.606212 220.151081 
L 144.931844 223.198125 
L 145.257475 222.183087 
L 145.908738 232.630288 
L 146.234369 223.565381 
L 146.560001 240.031414 
L 146.885632 239.735419 
L 147.211264 246.4358 
L 147.536895 241.070435 
L 147.862527 246.439469 
L 148.188158 260.758068 
L 148.513789 254.568813 
L 148.839421 257.190357 
L 149.165052 241.38976 
L 149.490684 239.862809 
L 149.816315 239.450971 
L 150.141947 238.380077 
L 150.467578 230.309784 
L 150.79321 233.464159 
L 151.118841 238.992784 
L 151.444472 234.947027 
L 151.770104 215.93114 
L 152.095735 229.658814 
L 152.421367 230.361845 
L 153.07263 227.504613 
L 153.398261 233.940737 
L 153.723893 253.020048 
L 154.049524 261.41383 
L 154.375155 245.048833 
L 155.026418 257.709807 
L 155.35205 248.410435 
L 155.677681 243.824844 
L 156.003313 247.089064 
L 156.654575 238.477978 
L 156.980207 233.888979 
L 157.305838 235.258785 
L 157.63147 238.090521 
L 157.957101 233.882464 
L 158.282733 224.308314 
L 158.608364 225.8691 
L 158.933996 232.675517 
L 159.259627 231.319266 
L 159.585258 225.60431 
L 160.562153 243.571032 
L 160.887784 245.616476 
L 161.539047 224.893256 
L 161.864679 229.711615 
L 162.19031 223.370346 
L 162.515941 234.164073 
L 162.841573 238.521807 
L 163.167204 234.163736 
L 163.492836 249.72154 
L 163.818467 246.310054 
L 164.46973 221.589157 
L 165.120993 233.893881 
L 165.446624 232.791197 
L 165.772256 224.329944 
L 166.097887 231.467662 
L 166.423519 225.220187 
L 166.74915 229.658299 
L 167.074782 236.25748 
L 167.400413 233.216719 
L 167.726044 238.91932 
L 168.051676 239.677999 
L 168.377307 252.835774 
L 168.702939 257.092013 
L 169.02857 259.051927 
L 169.354202 263.418431 
L 170.005465 246.711616 
L 170.331096 253.035204 
L 170.656727 244.414811 
L 170.982359 245.751653 
L 171.30799 253.740774 
L 171.633622 248.61184 
L 171.959253 258.305156 
L 172.610516 234.195473 
L 172.936147 244.166987 
L 173.58741 249.560505 
L 173.913042 235.197007 
L 174.238673 232.556684 
L 174.564305 231.226189 
L 174.889936 238.832329 
L 175.215568 238.152024 
L 175.541199 243.793821 
L 175.86683 239.527416 
L 176.192462 229.980924 
L 176.518093 234.663756 
L 177.169356 253.227433 
L 177.494988 251.616667 
L 178.146251 268.083116 
L 178.471882 257.198302 
L 178.797513 257.345568 
L 179.123145 239.72826 
L 179.774408 254.352523 
L 180.100039 239.616604 
L 180.751302 226.515632 
L 181.076933 232.997187 
L 181.402565 237.191565 
L 181.728196 232.284375 
L 182.053828 241.043664 
L 182.379459 227.362423 
L 183.030722 245.480356 
L 183.356354 245.278407 
L 183.681985 246.758075 
L 184.007616 229.413451 
L 184.658879 244.190163 
L 184.984511 236.115512 
L 185.310142 244.62725 
L 185.635774 243.652816 
L 185.961405 233.142383 
L 186.612668 242.488002 
L 186.938299 257.342962 
L 187.263931 253.02299 
L 187.589562 254.248174 
L 187.915194 241.839947 
L 188.240825 238.156645 
L 188.566457 241.862137 
L 188.892088 231.94241 
L 189.217719 237.598708 
L 189.543351 240.26569 
L 189.868982 233.814387 
L 190.194614 234.830929 
L 190.520245 232.784494 
L 190.845877 237.122924 
L 191.171508 238.388359 
L 191.49714 241.109003 
L 191.822771 247.921931 
L 192.148402 248.804151 
L 192.474034 246.454487 
L 192.799665 249.408893 
L 193.125297 256.034417 
L 193.450928 240.940019 
L 193.77656 240.347773 
L 194.102191 236.303731 
L 194.427823 244.533644 
L 194.753454 266.539015 
L 195.079085 257.107171 
L 195.404717 255.149642 
L 195.730348 259.157747 
L 196.05598 251.556994 
L 196.381611 255.180221 
L 196.707243 251.849822 
L 197.032874 263.765634 
L 197.358505 246.982533 
L 197.684137 242.296411 
L 198.009768 251.831064 
L 198.3354 244.955697 
L 198.986663 253.247025 
L 199.312294 262.773841 
L 199.637926 248.2463 
L 199.963557 241.640806 
L 200.289188 247.648149 
L 200.61482 248.684452 
L 200.940451 251.561442 
L 201.266083 251.107235 
L 201.591714 237.46153 
L 201.917346 243.748555 
L 202.242977 247.346225 
L 202.568608 248.229201 
L 202.89424 241.569275 
L 203.219871 241.47316 
L 203.545503 248.365342 
L 203.871134 240.508702 
L 204.522397 245.033656 
L 204.848029 253.00724 
L 205.17366 243.221333 
L 205.824923 233.932322 
L 206.150554 232.789755 
L 206.801817 249.082943 
L 207.127449 258.000189 
L 207.45308 245.91871 
L 207.778712 250.717757 
L 208.104343 248.769254 
L 208.429974 257.206671 
L 208.755606 248.640027 
L 209.081237 250.618732 
L 209.406869 236.987475 
L 209.7325 241.666502 
L 210.058132 235.470971 
L 210.383763 237.03361 
L 210.709394 237.123624 
L 211.035026 231.39843 
L 211.360657 230.842448 
L 211.686289 242.804367 
L 212.01192 240.995143 
L 212.337552 245.147779 
L 212.663183 240.643565 
L 212.988815 245.557194 
L 213.314446 248.588857 
L 213.640077 243.457838 
L 213.965709 241.259265 
L 214.29134 243.848288 
L 214.616972 245.005511 
L 214.942603 247.81157 
L 215.268235 246.201831 
L 215.593866 252.110256 
L 216.245129 259.367223 
L 216.57076 249.804293 
L 216.896392 247.499615 
L 217.222023 242.557771 
L 217.547655 249.689097 
L 217.873286 251.35645 
L 218.198918 248.513043 
L 218.524549 244.211001 
L 218.85018 256.759763 
L 219.175812 242.652984 
L 219.501443 247.814708 
L 219.827075 240.048382 
L 220.152706 241.620316 
L 220.478338 244.752283 
L 220.803969 235.240549 
L 221.129601 230.823645 
L 221.455232 234.115782 
L 221.780863 224.509723 
L 222.106495 232.349564 
L 222.432126 233.404721 
L 222.757758 246.579295 
L 223.083389 240.923618 
L 223.409021 250.019147 
L 223.734652 239.33709 
L 224.060284 244.017518 
L 224.385915 242.685925 
L 224.711546 244.457748 
L 225.037178 245.282475 
L 225.362809 238.107863 
L 225.688441 237.368942 
L 226.339704 246.501562 
L 226.665335 243.877698 
L 226.990966 243.891214 
L 227.316598 228.759688 
L 227.642229 237.018427 
L 227.967861 234.238722 
L 228.293492 223.222109 
L 228.619124 232.006619 
L 228.944755 227.308149 
L 229.596018 233.443531 
L 229.921649 238.16935 
L 230.247281 240.819963 
L 230.572912 237.477172 
L 230.898544 231.424716 
L 231.224175 235.679841 
L 231.549807 236.008367 
L 231.875438 237.97362 
L 232.526701 255.082466 
L 232.852332 248.783182 
L 233.177964 249.394885 
L 233.503595 245.392726 
L 233.829227 246.447777 
L 234.154858 245.784065 
L 234.48049 258.374045 
L 234.806121 252.477871 
L 235.131752 253.289002 
L 235.783015 237.219722 
L 236.108647 236.214903 
L 236.75991 245.81157 
L 237.085541 241.632098 
L 237.736804 251.372063 
L 238.062435 251.999689 
L 238.388067 259.531543 
L 238.713698 256.650163 
L 239.03933 259.74963 
L 239.690593 242.332743 
L 240.016224 243.256455 
L 240.341856 247.820766 
L 240.667487 240.953356 
L 240.993118 250.792148 
L 241.644381 239.83502 
L 242.621276 256.997044 
L 242.946907 250.978699 
L 243.272538 248.388479 
L 243.59817 246.868578 
L 243.923801 256.47479 
L 244.249433 256.377366 
L 244.575064 261.215587 
L 245.551959 245.878811 
L 245.87759 249.148883 
L 246.203221 240.625775 
L 246.528853 242.056389 
L 246.854484 235.437901 
L 247.180116 232.26977 
L 247.505747 230.617307 
L 248.15701 252.671936 
L 248.482642 252.939903 
L 248.808273 248.880615 
L 249.133904 250.702449 
L 249.785167 238.44317 
L 250.110799 247.430734 
L 250.43643 249.170458 
L 250.762062 247.814994 
L 251.087693 247.373846 
L 251.413324 234.334694 
L 251.738956 237.258773 
L 252.064587 246.360359 
L 252.390219 250.090563 
L 253.367113 236.521491 
L 253.692745 224.729909 
L 254.018376 229.48758 
L 254.669639 229.967958 
L 254.99527 228.28437 
L 255.320902 223.299899 
L 255.972165 231.658787 
L 256.297796 232.826122 
L 256.623427 248.79441 
L 256.949059 249.026851 
L 257.27469 235.150549 
L 257.600322 236.448269 
L 258.251585 247.230353 
L 258.577216 229.137189 
L 258.902848 241.421954 
L 259.228479 236.795022 
L 259.55411 244.497291 
L 260.205373 253.371711 
L 260.531005 239.385133 
L 260.856636 231.393721 
L 261.507899 235.426522 
L 261.833531 247.618665 
L 262.159162 254.964132 
L 262.810425 247.133789 
L 263.136056 252.16528 
L 263.787319 232.606292 
L 264.112951 230.239601 
L 264.438582 232.201429 
L 264.764213 224.761625 
L 265.089845 225.708241 
L 265.415476 236.851532 
L 265.741108 227.779088 
L 266.066739 221.952194 
L 266.392371 230.220262 
L 267.043634 251.593056 
L 267.369265 248.627338 
L 267.694896 250.870283 
L 268.020528 249.452493 
L 268.346159 258.176839 
L 268.671791 253.530251 
L 268.997422 243.948812 
L 269.648685 237.615196 
L 270.299948 239.854032 
L 270.951211 245.714464 
L 271.276842 232.153172 
L 271.602474 241.362304 
L 271.928105 243.210575 
L 272.253737 252.442377 
L 272.579368 252.556199 
L 272.904999 245.128949 
L 273.230631 249.454326 
L 273.556262 244.428255 
L 273.881894 242.948215 
L 274.207525 244.699691 
L 274.533157 244.627673 
L 274.858788 248.529552 
L 275.18442 247.938284 
L 275.510051 262.559674 
L 275.835682 264.688029 
L 276.486945 248.461554 
L 276.812577 247.683042 
L 277.138208 235.288663 
L 277.46384 236.235061 
L 277.789471 233.626064 
L 278.115103 242.433524 
L 278.440734 246.649674 
L 278.766365 257.444151 
L 279.091997 272.12197 
L 279.74326 260.610069 
L 280.068891 249.080564 
L 280.394523 258.682067 
L 280.720154 250.214844 
L 281.045785 235.573256 
L 281.371417 240.577552 
L 281.697048 242.328683 
L 282.02268 239.972257 
L 282.348311 232.223739 
L 282.673943 239.336932 
L 282.999574 230.148105 
L 283.650837 238.982683 
L 283.976468 240.406994 
L 284.3021 240.828526 
L 284.627731 239.828283 
L 284.953363 234.525075 
L 285.278994 243.050995 
L 285.604626 245.179357 
L 285.930257 248.531032 
L 286.58152 242.462413 
L 286.907151 233.795016 
L 287.232783 248.753306 
L 287.558414 243.498824 
L 287.884046 247.188628 
L 288.209677 235.353188 
L 289.186571 250.436443 
L 289.512203 249.573446 
L 289.837834 231.970233 
L 290.163466 232.983778 
L 290.489097 231.039599 
L 290.814729 238.076877 
L 291.14036 242.490459 
L 291.465992 249.094368 
L 291.791623 258.612361 
L 292.117254 245.464034 
L 292.768517 235.634353 
L 293.094149 241.306471 
L 293.41978 242.416512 
L 293.745412 257.828978 
L 294.071043 251.156785 
L 294.396675 247.837724 
L 294.722306 238.587878 
L 295.047937 238.889346 
L 295.6992 243.789074 
L 296.024832 249.345061 
L 296.350463 249.115333 
L 296.676095 247.687746 
L 297.001726 252.333217 
L 297.327357 250.573963 
L 297.652989 255.476167 
L 297.97862 257.682889 
L 298.304252 246.269107 
L 298.629883 249.89266 
L 298.955515 247.376254 
L 299.281146 247.205133 
L 299.606778 248.330867 
L 299.932409 255.501422 
L 300.25804 248.907997 
L 300.909303 251.777323 
L 301.560566 237.752828 
L 301.886198 239.017744 
L 302.211829 238.550772 
L 302.537461 254.424485 
L 302.863092 247.680939 
L 303.188723 247.070459 
L 303.514355 249.900489 
L 303.839986 245.10459 
L 304.165618 236.556593 
L 304.491249 236.570585 
L 304.816881 230.161508 
L 305.142512 234.427012 
L 305.468143 240.854829 
L 305.793775 243.141314 
L 306.119406 249.688013 
L 306.445038 237.261934 
L 306.770669 238.697443 
L 307.096301 250.5829 
L 307.421932 245.96232 
L 307.747564 246.450342 
L 308.073195 242.295213 
L 308.398826 241.31147 
L 308.724458 247.109961 
L 309.050089 239.748917 
L 309.375721 238.722233 
L 309.701352 244.390091 
L 310.026984 256.034214 
L 310.352615 252.839318 
L 310.678247 253.683736 
L 311.329509 246.353402 
L 311.655141 247.636602 
L 311.980772 255.487713 
L 312.306404 253.377391 
L 312.632035 248.820752 
L 312.957667 232.291851 
L 313.283298 228.796457 
L 313.608929 228.025483 
L 313.934561 241.37667 
L 314.260192 248.998723 
L 314.585824 252.532008 
L 314.911455 251.085342 
L 315.562718 239.354579 
L 315.88835 230.89445 
L 316.213981 232.097155 
L 316.539612 241.623058 
L 316.865244 244.820594 
L 317.190875 242.831837 
L 317.516507 231.105219 
L 317.842138 237.217849 
L 318.16777 247.346923 
L 318.493401 252.334882 
L 319.470295 228.90556 
L 319.795927 227.490345 
L 320.121558 229.839406 
L 320.772821 222.101004 
L 321.098453 221.88634 
L 321.424084 211.355041 
L 321.749715 221.66192 
L 322.075347 219.485317 
L 322.400978 220.458771 
L 322.72661 215.933289 
L 323.052241 215.268809 
L 323.377873 212.955984 
L 323.703504 218.8292 
L 324.029136 221.366855 
L 324.354767 228.12086 
L 324.680398 228.540536 
L 325.00603 236.04781 
L 325.331661 239.383605 
L 325.657293 229.671076 
L 325.982924 231.798336 
L 326.308556 232.725261 
L 326.634187 229.155518 
L 326.959818 226.909475 
L 327.28545 229.679489 
L 327.611081 223.957742 
L 328.587976 254.575822 
L 328.913607 256.815454 
L 329.239239 255.462418 
L 329.56487 258.384834 
L 329.890501 268.168463 
L 330.216133 262.154242 
L 330.541764 253.272542 
L 330.867396 259.68726 
L 331.193027 247.201424 
L 331.518659 240.758783 
L 331.84429 241.214912 
L 332.169922 243.753871 
L 332.495553 243.848139 
L 332.821184 243.214496 
L 333.146816 243.792872 
L 333.472447 251.147786 
L 333.798079 244.696332 
L 334.12371 235.250774 
L 334.449342 235.91673 
L 334.774973 235.472729 
L 335.426236 249.738134 
L 335.751867 229.573049 
L 336.077499 229.641753 
L 336.40313 250.752476 
L 337.054393 243.256461 
L 337.380025 238.168413 
L 337.705656 235.262605 
L 338.031287 247.085895 
L 338.356919 246.767629 
L 338.68255 241.281609 
L 339.008182 242.199208 
L 339.333813 248.202206 
L 339.659445 245.804207 
L 339.985076 249.426653 
L 340.310708 256.428386 
L 340.636339 250.491916 
L 340.96197 230.474362 
L 341.287602 236.893029 
L 341.613233 231.326392 
L 341.938865 220.484996 
L 342.264496 224.590809 
L 342.590128 234.854312 
L 342.915759 233.964305 
L 343.24139 246.335628 
L 343.567022 241.342262 
L 343.892653 253.685886 
L 344.218285 257.33096 
L 344.543916 254.205929 
L 345.195179 239.477409 
L 345.520811 239.905322 
L 345.846442 233.890243 
L 346.172073 234.146458 
L 346.497705 241.987679 
L 346.823336 238.995504 
L 347.148968 244.772141 
L 347.474599 238.594581 
L 347.800231 234.655057 
L 348.125862 250.182207 
L 348.451494 244.24643 
L 348.777125 233.445618 
L 349.754019 255.80189 
L 350.079651 257.131218 
L 350.405282 253.036331 
L 350.730914 246.697717 
L 351.056545 252.095785 
L 351.382176 253.594881 
L 352.033439 250.884581 
L 352.359071 246.497079 
L 352.684702 259.271836 
L 353.010334 263.212522 
L 353.335965 250.034679 
L 353.661597 246.754979 
L 353.987228 247.044058 
L 354.312859 240.714121 
L 354.638491 246.615346 
L 354.964122 245.716241 
L 355.289754 249.852569 
L 355.615385 252.550369 
L 355.941017 257.812852 
L 356.59228 245.344776 
L 356.917911 251.333672 
L 357.243542 242.067297 
L 357.569174 236.674692 
L 357.894805 245.077587 
L 358.220437 247.832427 
L 358.546068 247.379647 
L 358.8717 252.242622 
L 359.197331 253.311596 
L 359.522962 237.69107 
L 359.848594 244.864241 
L 360.174225 243.972908 
L 360.499857 238.450351 
L 360.825488 235.232198 
L 361.15112 243.809531 
L 361.476751 239.3605 
L 361.802383 252.305336 
L 362.128014 250.427343 
L 362.453645 252.937388 
L 362.779277 253.733542 
L 363.104908 257.854654 
L 363.43054 251.596839 
L 363.756171 248.098485 
L 364.081803 255.465183 
L 364.407434 253.970611 
L 365.058697 271.776815 
L 365.384328 258.961552 
L 365.70996 259.844069 
L 366.035591 251.303823 
L 366.361223 260.901108 
L 367.012486 249.250584 
L 367.338117 247.951091 
L 367.663748 256.241428 
L 367.98938 250.702778 
L 368.315011 247.73985 
L 368.640643 252.834754 
L 368.966274 248.689107 
L 369.291906 250.177813 
L 369.617537 249.291365 
L 369.943169 246.021091 
L 370.2688 245.711297 
L 370.594431 242.368687 
L 370.920063 236.120619 
L 371.571326 244.588277 
L 371.896957 236.558254 
L 372.222589 247.124994 
L 372.54822 244.802285 
L 372.873851 253.194468 
L 373.199483 249.063643 
L 373.525114 250.167831 
L 373.850746 250.529452 
L 374.176377 245.757925 
L 374.502009 243.653358 
L 374.82764 236.642325 
L 375.153272 232.064206 
L 375.478903 244.49253 
L 375.804534 246.493649 
L 376.130166 255.747346 
L 376.781429 246.888284 
L 377.10706 234.631615 
L 377.432692 231.217813 
L 377.758323 246.788911 
L 378.083955 251.160731 
L 378.409586 249.133329 
L 378.735217 261.290492 
L 379.060849 254.547896 
L 379.38648 245.449987 
L 379.712112 241.940643 
L 380.037743 244.915732 
L 380.363375 245.042056 
L 380.689006 259.003077 
L 381.014637 264.727435 
L 381.340269 240.822855 
L 381.6659 236.41906 
L 381.991532 239.744782 
L 382.317163 239.838055 
L 382.642795 249.921632 
L 382.968426 238.688589 
L 383.294058 232.073159 
L 383.619689 241.018301 
L 384.270952 233.540844 
L 384.596583 238.930929 
L 384.922215 239.107134 
L 385.247846 246.661781 
L 385.573478 245.060212 
L 385.899109 252.882356 
L 386.224741 252.345292 
L 386.550372 248.565063 
L 386.876003 259.837377 
L 387.201635 253.474021 
L 387.527266 252.253013 
L 387.852898 246.534515 
L 387.852898 246.534515 
" style="fill:none;stroke:#1f77b4;stroke-linecap:square;stroke-width:1.5;"/>
   </g>
   <g id="patch_3">
    <path d="M 46.965625 288.430125 
L 46.965625 22.318125 
" style="fill:none;stroke:#000000;stroke-linecap:square;stroke-linejoin:miter;stroke-width:0.8;"/>
   </g>
   <g id="patch_4">
    <path d="M 404.085625 288.430125 
L 404.085625 22.318125 
" style="fill:none;stroke:#000000;stroke-linecap:square;stroke-linejoin:miter;stroke-width:0.8;"/>
   </g>
   <g id="patch_5">
    <path d="M 46.965625 288.430125 
L 404.085625 288.430125 
" style="fill:none;stroke:#000000;stroke-linecap:square;stroke-linejoin:miter;stroke-width:0.8;"/>
   </g>
   <g id="patch_6">
    <path d="M 46.965625 22.318125 
L 404.085625 22.318125 
" style="fill:none;stroke:#000000;stroke-linecap:square;stroke-linejoin:miter;stroke-width:0.8;"/>
   </g>
   <g id="text_14">
    <!-- spacing -->
    <g transform="translate(202.336563 16.318125)scale(0.12 -0.12)">
     <defs>
      <path d="M 2834 3397 
L 2834 2853 
Q 2591 2978 2328 3040 
Q 2066 3103 1784 3103 
Q 1356 3103 1142 2972 
Q 928 2841 928 2578 
Q 928 2378 1081 2264 
Q 1234 2150 1697 2047 
L 1894 2003 
Q 2506 1872 2764 1633 
Q 3022 1394 3022 966 
Q 3022 478 2636 193 
Q 2250 -91 1575 -91 
Q 1294 -91 989 -36 
Q 684 19 347 128 
L 347 722 
Q 666 556 975 473 
Q 1284 391 1588 391 
Q 1994 391 2212 530 
Q 2431 669 2431 922 
Q 2431 1156 2273 1281 
Q 2116 1406 1581 1522 
L 1381 1569 
Q 847 1681 609 1914 
Q 372 2147 372 2553 
Q 372 3047 722 3315 
Q 1072 3584 1716 3584 
Q 2034 3584 2315 3537 
Q 2597 3491 2834 3397 
z
" id="DejaVuSans-73" transform="scale(0.015625)"/>
      <path d="M 1159 525 
L 1159 -1331 
L 581 -1331 
L 581 3500 
L 1159 3500 
L 1159 2969 
Q 1341 3281 1617 3432 
Q 1894 3584 2278 3584 
Q 2916 3584 3314 3078 
Q 3713 2572 3713 1747 
Q 3713 922 3314 415 
Q 2916 -91 2278 -91 
Q 1894 -91 1617 61 
Q 1341 213 1159 525 
z
M 3116 1747 
Q 3116 2381 2855 2742 
Q 2594 3103 2138 3103 
Q 1681 3103 1420 2742 
Q 1159 2381 1159 1747 
Q 1159 1113 1420 752 
Q 1681 391 2138 391 
Q 2594 391 2855 752 
Q 3116 1113 3116 1747 
z
" id="DejaVuSans-70" transform="scale(0.015625)"/>
      <path d="M 3122 3366 
L 3122 2828 
Q 2878 2963 2633 3030 
Q 2388 3097 2138 3097 
Q 1578 3097 1268 2742 
Q 959 2388 959 1747 
Q 959 1106 1268 751 
Q 1578 397 2138 397 
Q 2388 397 2633 464 
Q 2878 531 3122 666 
L 3122 134 
Q 2881 22 2623 -34 
Q 2366 -91 2075 -91 
Q 1284 -91 818 406 
Q 353 903 353 1747 
Q 353 2603 823 3093 
Q 1294 3584 2113 3584 
Q 2378 3584 2631 3529 
Q 2884 3475 3122 3366 
z
" id="DejaVuSans-63" transform="scale(0.015625)"/>
      <path d="M 2906 1791 
Q 2906 2416 2648 2759 
Q 2391 3103 1925 3103 
Q 1463 3103 1205 2759 
Q 947 2416 947 1791 
Q 947 1169 1205 825 
Q 1463 481 1925 481 
Q 2391 481 2648 825 
Q 2906 1169 2906 1791 
z
M 3481 434 
Q 3481 -459 3084 -895 
Q 2688 -1331 1869 -1331 
Q 1566 -1331 1297 -1286 
Q 1028 -1241 775 -1147 
L 775 -588 
Q 1028 -725 1275 -790 
Q 1522 -856 1778 -856 
Q 2344 -856 2625 -561 
Q 2906 -266 2906 331 
L 2906 616 
Q 2728 306 2450 153 
Q 2172 0 1784 0 
Q 1141 0 747 490 
Q 353 981 353 1791 
Q 353 2603 747 3093 
Q 1141 3584 1784 3584 
Q 2172 3584 2450 3431 
Q 2728 3278 2906 2969 
L 2906 3500 
L 3481 3500 
L 3481 434 
z
" id="DejaVuSans-67" transform="scale(0.015625)"/>
     </defs>
     <use xlink:href="#DejaVuSans-73"/>
     <use x="52.099609" xlink:href="#DejaVuSans-70"/>
     <use x="115.576172" xlink:href="#DejaVuSans-61"/>
     <use x="176.855469" xlink:href="#DejaVuSans-63"/>
     <use x="231.835938" xlink:href="#DejaVuSans-69"/>
     <use x="259.619141" xlink:href="#DejaVuSans-6e"/>
     <use x="322.998047" xlink:href="#DejaVuSans-67"/>
    </g>
   </g>
   <g id="legend_1">
    <g id="patch_7">
     <path d="M 326.437188 44.99625 
L 397.085625 44.99625 
Q 399.085625 44.99625 399.085625 42.99625 
L 399.085625 29.318125 
Q 399.085625 27.318125 397.085625 27.318125 
L 326.437188 27.318125 
Q 324.437188 27.318125 324.437188 29.318125 
L 324.437188 42.99625 
Q 324.437188 44.99625 326.437188 44.99625 
z
" style="fill:#ffffff;opacity:0.8;stroke:#cccccc;stroke-linejoin:miter;"/>
    </g>
    <g id="line2d_13">
     <path d="M 328.437188 35.416562 
L 348.437188 35.416562 
" style="fill:none;stroke:#1f77b4;stroke-linecap:square;stroke-width:1.5;"/>
    </g>
    <g id="line2d_14"/>
    <g id="text_15">
     <!-- spacing -->
     <g transform="translate(356.437188 38.916562)scale(0.1 -0.1)">
      <use xlink:href="#DejaVuSans-73"/>
      <use x="52.099609" xlink:href="#DejaVuSans-70"/>
      <use x="115.576172" xlink:href="#DejaVuSans-61"/>
      <use x="176.855469" xlink:href="#DejaVuSans-63"/>
      <use x="231.835938" xlink:href="#DejaVuSans-69"/>
      <use x="259.619141" xlink:href="#DejaVuSans-6e"/>
      <use x="322.998047" xlink:href="#DejaVuSans-67"/>
     </g>
    </g>
   </g>
  </g>
 </g>
 <defs>
  <clipPath id="paeed2ef3ef">
   <rect height="266.112" width="357.12" x="46.965625" y="22.318125"/>
  </clipPath>
 </defs>
</svg>
