<?xml version="1.0" encoding="utf-8" standalone="no"?>
<!DOCTYPE svg PUBLIC "-//W3C//DTD SVG 1.1//EN"
  "http://www.w3.org/Graphics/SVG/1.1/DTD/svg11.dtd">
<svg height="325.986375pt" version="1.1" viewBox="0 0 408.10125 325.986375" width="408.10125pt" xmlns="http://www.w3.org/2000/svg" xmlns:xlink="http://www.w3.org/1999/xlink">
 <metadata>
  <rdf:RDF xmlns:cc="http://creativecommons.org/ns#" xmlns:dc="http://purl.org/dc/elements/1.1/" xmlns:rdf="http://www.w3.org/1999/02/22-rdf-syntax-ns#">
   <cc:Work>
    <dc:type rdf:resource="http://purl.org/dc/dcmitype/StillImage"/>
    <dc:date>2022-02-21T16:50:57.591000</dc:date>
    <dc:format>image/svg+xml</dc:format>
    <dc:creator>
     <cc:Agent>
      <dc:title>Matplotlib v3.4.1, https://matplotlib.org/</dc:title>
     </cc:Agent>
    </dc:creator>
   </cc:Work>
  </rdf:RDF>
 </metadata>
 <defs>
  <style type="text/css">*{stroke-linecap:butt;stroke-linejoin:round;}</style>
 </defs>
 <g id="figure_1">
  <g id="patch_1">
   <path d="M 0 325.986375 
L 408.10125 325.986375 
L 408.10125 0 
L 0 0 
z
" style="fill:#ffffff;"/>
  </g>
  <g id="axes_1">
   <g id="patch_2">
    <path d="M 43.78125 288.430125 
L 400.90125 288.430125 
L 400.90125 22.318125 
L 43.78125 22.318125 
z
" style="fill:#ffffff;"/>
   </g>
   <g id="matplotlib.axis_1">
    <g id="xtick_1">
     <g id="line2d_1">
      <defs>
       <path d="M 0 0 
L 0 3.5 
" id="mcdd8751107" style="stroke:#000000;stroke-width:0.8;"/>
      </defs>
      <g>
       <use style="stroke:#000000;stroke-width:0.8;" x="60.013977" xlink:href="#mcdd8751107" y="288.430125"/>
      </g>
     </g>
     <g id="text_1">
      <!-- 0 -->
      <g transform="translate(56.832727 303.028562)scale(0.1 -0.1)">
       <defs>
        <path d="M 2034 4250 
Q 1547 4250 1301 3770 
Q 1056 3291 1056 2328 
Q 1056 1369 1301 889 
Q 1547 409 2034 409 
Q 2525 409 2770 889 
Q 3016 1369 3016 2328 
Q 3016 3291 2770 3770 
Q 2525 4250 2034 4250 
z
M 2034 4750 
Q 2819 4750 3233 4129 
Q 3647 3509 3647 2328 
Q 3647 1150 3233 529 
Q 2819 -91 2034 -91 
Q 1250 -91 836 529 
Q 422 1150 422 2328 
Q 422 3509 836 4129 
Q 1250 4750 2034 4750 
z
" id="DejaVuSans-30" transform="scale(0.015625)"/>
       </defs>
       <use xlink:href="#DejaVuSans-30"/>
      </g>
     </g>
    </g>
    <g id="xtick_2">
     <g id="line2d_2">
      <g>
       <use style="stroke:#000000;stroke-width:0.8;" x="125.140265" xlink:href="#mcdd8751107" y="288.430125"/>
      </g>
     </g>
     <g id="text_2">
      <!-- 200 -->
      <g transform="translate(115.596515 303.028562)scale(0.1 -0.1)">
       <defs>
        <path d="M 1228 531 
L 3431 531 
L 3431 0 
L 469 0 
L 469 531 
Q 828 903 1448 1529 
Q 2069 2156 2228 2338 
Q 2531 2678 2651 2914 
Q 2772 3150 2772 3378 
Q 2772 3750 2511 3984 
Q 2250 4219 1831 4219 
Q 1534 4219 1204 4116 
Q 875 4013 500 3803 
L 500 4441 
Q 881 4594 1212 4672 
Q 1544 4750 1819 4750 
Q 2544 4750 2975 4387 
Q 3406 4025 3406 3419 
Q 3406 3131 3298 2873 
Q 3191 2616 2906 2266 
Q 2828 2175 2409 1742 
Q 1991 1309 1228 531 
z
" id="DejaVuSans-32" transform="scale(0.015625)"/>
       </defs>
       <use xlink:href="#DejaVuSans-32"/>
       <use x="63.623047" xlink:href="#DejaVuSans-30"/>
       <use x="127.246094" xlink:href="#DejaVuSans-30"/>
      </g>
     </g>
    </g>
    <g id="xtick_3">
     <g id="line2d_3">
      <g>
       <use style="stroke:#000000;stroke-width:0.8;" x="190.266553" xlink:href="#mcdd8751107" y="288.430125"/>
      </g>
     </g>
     <g id="text_3">
      <!-- 400 -->
      <g transform="translate(180.722803 303.028562)scale(0.1 -0.1)">
       <defs>
        <path d="M 2419 4116 
L 825 1625 
L 2419 1625 
L 2419 4116 
z
M 2253 4666 
L 3047 4666 
L 3047 1625 
L 3713 1625 
L 3713 1100 
L 3047 1100 
L 3047 0 
L 2419 0 
L 2419 1100 
L 313 1100 
L 313 1709 
L 2253 4666 
z
" id="DejaVuSans-34" transform="scale(0.015625)"/>
       </defs>
       <use xlink:href="#DejaVuSans-34"/>
       <use x="63.623047" xlink:href="#DejaVuSans-30"/>
       <use x="127.246094" xlink:href="#DejaVuSans-30"/>
      </g>
     </g>
    </g>
    <g id="xtick_4">
     <g id="line2d_4">
      <g>
       <use style="stroke:#000000;stroke-width:0.8;" x="255.392841" xlink:href="#mcdd8751107" y="288.430125"/>
      </g>
     </g>
     <g id="text_4">
      <!-- 600 -->
      <g transform="translate(245.849091 303.028562)scale(0.1 -0.1)">
       <defs>
        <path d="M 2113 2584 
Q 1688 2584 1439 2293 
Q 1191 2003 1191 1497 
Q 1191 994 1439 701 
Q 1688 409 2113 409 
Q 2538 409 2786 701 
Q 3034 994 3034 1497 
Q 3034 2003 2786 2293 
Q 2538 2584 2113 2584 
z
M 3366 4563 
L 3366 3988 
Q 3128 4100 2886 4159 
Q 2644 4219 2406 4219 
Q 1781 4219 1451 3797 
Q 1122 3375 1075 2522 
Q 1259 2794 1537 2939 
Q 1816 3084 2150 3084 
Q 2853 3084 3261 2657 
Q 3669 2231 3669 1497 
Q 3669 778 3244 343 
Q 2819 -91 2113 -91 
Q 1303 -91 875 529 
Q 447 1150 447 2328 
Q 447 3434 972 4092 
Q 1497 4750 2381 4750 
Q 2619 4750 2861 4703 
Q 3103 4656 3366 4563 
z
" id="DejaVuSans-36" transform="scale(0.015625)"/>
       </defs>
       <use xlink:href="#DejaVuSans-36"/>
       <use x="63.623047" xlink:href="#DejaVuSans-30"/>
       <use x="127.246094" xlink:href="#DejaVuSans-30"/>
      </g>
     </g>
    </g>
    <g id="xtick_5">
     <g id="line2d_5">
      <g>
       <use style="stroke:#000000;stroke-width:0.8;" x="320.519129" xlink:href="#mcdd8751107" y="288.430125"/>
      </g>
     </g>
     <g id="text_5">
      <!-- 800 -->
      <g transform="translate(310.975379 303.028562)scale(0.1 -0.1)">
       <defs>
        <path d="M 2034 2216 
Q 1584 2216 1326 1975 
Q 1069 1734 1069 1313 
Q 1069 891 1326 650 
Q 1584 409 2034 409 
Q 2484 409 2743 651 
Q 3003 894 3003 1313 
Q 3003 1734 2745 1975 
Q 2488 2216 2034 2216 
z
M 1403 2484 
Q 997 2584 770 2862 
Q 544 3141 544 3541 
Q 544 4100 942 4425 
Q 1341 4750 2034 4750 
Q 2731 4750 3128 4425 
Q 3525 4100 3525 3541 
Q 3525 3141 3298 2862 
Q 3072 2584 2669 2484 
Q 3125 2378 3379 2068 
Q 3634 1759 3634 1313 
Q 3634 634 3220 271 
Q 2806 -91 2034 -91 
Q 1263 -91 848 271 
Q 434 634 434 1313 
Q 434 1759 690 2068 
Q 947 2378 1403 2484 
z
M 1172 3481 
Q 1172 3119 1398 2916 
Q 1625 2713 2034 2713 
Q 2441 2713 2670 2916 
Q 2900 3119 2900 3481 
Q 2900 3844 2670 4047 
Q 2441 4250 2034 4250 
Q 1625 4250 1398 4047 
Q 1172 3844 1172 3481 
z
" id="DejaVuSans-38" transform="scale(0.015625)"/>
       </defs>
       <use xlink:href="#DejaVuSans-38"/>
       <use x="63.623047" xlink:href="#DejaVuSans-30"/>
       <use x="127.246094" xlink:href="#DejaVuSans-30"/>
      </g>
     </g>
    </g>
    <g id="xtick_6">
     <g id="line2d_6">
      <g>
       <use style="stroke:#000000;stroke-width:0.8;" x="385.645417" xlink:href="#mcdd8751107" y="288.430125"/>
      </g>
     </g>
     <g id="text_6">
      <!-- 1000 -->
      <g transform="translate(372.920417 303.028562)scale(0.1 -0.1)">
       <defs>
        <path d="M 794 531 
L 1825 531 
L 1825 4091 
L 703 3866 
L 703 4441 
L 1819 4666 
L 2450 4666 
L 2450 531 
L 3481 531 
L 3481 0 
L 794 0 
L 794 531 
z
" id="DejaVuSans-31" transform="scale(0.015625)"/>
       </defs>
       <use xlink:href="#DejaVuSans-31"/>
       <use x="63.623047" xlink:href="#DejaVuSans-30"/>
       <use x="127.246094" xlink:href="#DejaVuSans-30"/>
       <use x="190.869141" xlink:href="#DejaVuSans-30"/>
      </g>
     </g>
    </g>
    <g id="text_7">
     <!-- Number of Generation -->
     <g transform="translate(166.364688 316.706687)scale(0.1 -0.1)">
      <defs>
       <path d="M 628 4666 
L 1478 4666 
L 3547 763 
L 3547 4666 
L 4159 4666 
L 4159 0 
L 3309 0 
L 1241 3903 
L 1241 0 
L 628 0 
L 628 4666 
z
" id="DejaVuSans-4e" transform="scale(0.015625)"/>
       <path d="M 544 1381 
L 544 3500 
L 1119 3500 
L 1119 1403 
Q 1119 906 1312 657 
Q 1506 409 1894 409 
Q 2359 409 2629 706 
Q 2900 1003 2900 1516 
L 2900 3500 
L 3475 3500 
L 3475 0 
L 2900 0 
L 2900 538 
Q 2691 219 2414 64 
Q 2138 -91 1772 -91 
Q 1169 -91 856 284 
Q 544 659 544 1381 
z
M 1991 3584 
L 1991 3584 
z
" id="DejaVuSans-75" transform="scale(0.015625)"/>
       <path d="M 3328 2828 
Q 3544 3216 3844 3400 
Q 4144 3584 4550 3584 
Q 5097 3584 5394 3201 
Q 5691 2819 5691 2113 
L 5691 0 
L 5113 0 
L 5113 2094 
Q 5113 2597 4934 2840 
Q 4756 3084 4391 3084 
Q 3944 3084 3684 2787 
Q 3425 2491 3425 1978 
L 3425 0 
L 2847 0 
L 2847 2094 
Q 2847 2600 2669 2842 
Q 2491 3084 2119 3084 
Q 1678 3084 1418 2786 
Q 1159 2488 1159 1978 
L 1159 0 
L 581 0 
L 581 3500 
L 1159 3500 
L 1159 2956 
Q 1356 3278 1631 3431 
Q 1906 3584 2284 3584 
Q 2666 3584 2933 3390 
Q 3200 3197 3328 2828 
z
" id="DejaVuSans-6d" transform="scale(0.015625)"/>
       <path d="M 3116 1747 
Q 3116 2381 2855 2742 
Q 2594 3103 2138 3103 
Q 1681 3103 1420 2742 
Q 1159 2381 1159 1747 
Q 1159 1113 1420 752 
Q 1681 391 2138 391 
Q 2594 391 2855 752 
Q 3116 1113 3116 1747 
z
M 1159 2969 
Q 1341 3281 1617 3432 
Q 1894 3584 2278 3584 
Q 2916 3584 3314 3078 
Q 3713 2572 3713 1747 
Q 3713 922 3314 415 
Q 2916 -91 2278 -91 
Q 1894 -91 1617 61 
Q 1341 213 1159 525 
L 1159 0 
L 581 0 
L 581 4863 
L 1159 4863 
L 1159 2969 
z
" id="DejaVuSans-62" transform="scale(0.015625)"/>
       <path d="M 3597 1894 
L 3597 1613 
L 953 1613 
Q 991 1019 1311 708 
Q 1631 397 2203 397 
Q 2534 397 2845 478 
Q 3156 559 3463 722 
L 3463 178 
Q 3153 47 2828 -22 
Q 2503 -91 2169 -91 
Q 1331 -91 842 396 
Q 353 884 353 1716 
Q 353 2575 817 3079 
Q 1281 3584 2069 3584 
Q 2775 3584 3186 3129 
Q 3597 2675 3597 1894 
z
M 3022 2063 
Q 3016 2534 2758 2815 
Q 2500 3097 2075 3097 
Q 1594 3097 1305 2825 
Q 1016 2553 972 2059 
L 3022 2063 
z
" id="DejaVuSans-65" transform="scale(0.015625)"/>
       <path d="M 2631 2963 
Q 2534 3019 2420 3045 
Q 2306 3072 2169 3072 
Q 1681 3072 1420 2755 
Q 1159 2438 1159 1844 
L 1159 0 
L 581 0 
L 581 3500 
L 1159 3500 
L 1159 2956 
Q 1341 3275 1631 3429 
Q 1922 3584 2338 3584 
Q 2397 3584 2469 3576 
Q 2541 3569 2628 3553 
L 2631 2963 
z
" id="DejaVuSans-72" transform="scale(0.015625)"/>
       <path id="DejaVuSans-20" transform="scale(0.015625)"/>
       <path d="M 1959 3097 
Q 1497 3097 1228 2736 
Q 959 2375 959 1747 
Q 959 1119 1226 758 
Q 1494 397 1959 397 
Q 2419 397 2687 759 
Q 2956 1122 2956 1747 
Q 2956 2369 2687 2733 
Q 2419 3097 1959 3097 
z
M 1959 3584 
Q 2709 3584 3137 3096 
Q 3566 2609 3566 1747 
Q 3566 888 3137 398 
Q 2709 -91 1959 -91 
Q 1206 -91 779 398 
Q 353 888 353 1747 
Q 353 2609 779 3096 
Q 1206 3584 1959 3584 
z
" id="DejaVuSans-6f" transform="scale(0.015625)"/>
       <path d="M 2375 4863 
L 2375 4384 
L 1825 4384 
Q 1516 4384 1395 4259 
Q 1275 4134 1275 3809 
L 1275 3500 
L 2222 3500 
L 2222 3053 
L 1275 3053 
L 1275 0 
L 697 0 
L 697 3053 
L 147 3053 
L 147 3500 
L 697 3500 
L 697 3744 
Q 697 4328 969 4595 
Q 1241 4863 1831 4863 
L 2375 4863 
z
" id="DejaVuSans-66" transform="scale(0.015625)"/>
       <path d="M 3809 666 
L 3809 1919 
L 2778 1919 
L 2778 2438 
L 4434 2438 
L 4434 434 
Q 4069 175 3628 42 
Q 3188 -91 2688 -91 
Q 1594 -91 976 548 
Q 359 1188 359 2328 
Q 359 3472 976 4111 
Q 1594 4750 2688 4750 
Q 3144 4750 3555 4637 
Q 3966 4525 4313 4306 
L 4313 3634 
Q 3963 3931 3569 4081 
Q 3175 4231 2741 4231 
Q 1884 4231 1454 3753 
Q 1025 3275 1025 2328 
Q 1025 1384 1454 906 
Q 1884 428 2741 428 
Q 3075 428 3337 486 
Q 3600 544 3809 666 
z
" id="DejaVuSans-47" transform="scale(0.015625)"/>
       <path d="M 3513 2113 
L 3513 0 
L 2938 0 
L 2938 2094 
Q 2938 2591 2744 2837 
Q 2550 3084 2163 3084 
Q 1697 3084 1428 2787 
Q 1159 2491 1159 1978 
L 1159 0 
L 581 0 
L 581 3500 
L 1159 3500 
L 1159 2956 
Q 1366 3272 1645 3428 
Q 1925 3584 2291 3584 
Q 2894 3584 3203 3211 
Q 3513 2838 3513 2113 
z
" id="DejaVuSans-6e" transform="scale(0.015625)"/>
       <path d="M 2194 1759 
Q 1497 1759 1228 1600 
Q 959 1441 959 1056 
Q 959 750 1161 570 
Q 1363 391 1709 391 
Q 2188 391 2477 730 
Q 2766 1069 2766 1631 
L 2766 1759 
L 2194 1759 
z
M 3341 1997 
L 3341 0 
L 2766 0 
L 2766 531 
Q 2569 213 2275 61 
Q 1981 -91 1556 -91 
Q 1019 -91 701 211 
Q 384 513 384 1019 
Q 384 1609 779 1909 
Q 1175 2209 1959 2209 
L 2766 2209 
L 2766 2266 
Q 2766 2663 2505 2880 
Q 2244 3097 1772 3097 
Q 1472 3097 1187 3025 
Q 903 2953 641 2809 
L 641 3341 
Q 956 3463 1253 3523 
Q 1550 3584 1831 3584 
Q 2591 3584 2966 3190 
Q 3341 2797 3341 1997 
z
" id="DejaVuSans-61" transform="scale(0.015625)"/>
       <path d="M 1172 4494 
L 1172 3500 
L 2356 3500 
L 2356 3053 
L 1172 3053 
L 1172 1153 
Q 1172 725 1289 603 
Q 1406 481 1766 481 
L 2356 481 
L 2356 0 
L 1766 0 
Q 1100 0 847 248 
Q 594 497 594 1153 
L 594 3053 
L 172 3053 
L 172 3500 
L 594 3500 
L 594 4494 
L 1172 4494 
z
" id="DejaVuSans-74" transform="scale(0.015625)"/>
       <path d="M 603 3500 
L 1178 3500 
L 1178 0 
L 603 0 
L 603 3500 
z
M 603 4863 
L 1178 4863 
L 1178 4134 
L 603 4134 
L 603 4863 
z
" id="DejaVuSans-69" transform="scale(0.015625)"/>
      </defs>
      <use xlink:href="#DejaVuSans-4e"/>
      <use x="74.804688" xlink:href="#DejaVuSans-75"/>
      <use x="138.183594" xlink:href="#DejaVuSans-6d"/>
      <use x="235.595703" xlink:href="#DejaVuSans-62"/>
      <use x="299.072266" xlink:href="#DejaVuSans-65"/>
      <use x="360.595703" xlink:href="#DejaVuSans-72"/>
      <use x="401.708984" xlink:href="#DejaVuSans-20"/>
      <use x="433.496094" xlink:href="#DejaVuSans-6f"/>
      <use x="494.677734" xlink:href="#DejaVuSans-66"/>
      <use x="529.882812" xlink:href="#DejaVuSans-20"/>
      <use x="561.669922" xlink:href="#DejaVuSans-47"/>
      <use x="639.160156" xlink:href="#DejaVuSans-65"/>
      <use x="700.683594" xlink:href="#DejaVuSans-6e"/>
      <use x="764.0625" xlink:href="#DejaVuSans-65"/>
      <use x="825.585938" xlink:href="#DejaVuSans-72"/>
      <use x="866.699219" xlink:href="#DejaVuSans-61"/>
      <use x="927.978516" xlink:href="#DejaVuSans-74"/>
      <use x="967.1875" xlink:href="#DejaVuSans-69"/>
      <use x="994.970703" xlink:href="#DejaVuSans-6f"/>
      <use x="1056.152344" xlink:href="#DejaVuSans-6e"/>
     </g>
    </g>
   </g>
   <g id="matplotlib.axis_2">
    <g id="ytick_1">
     <g id="line2d_7">
      <defs>
       <path d="M 0 0 
L -3.5 0 
" id="m029a352173" style="stroke:#000000;stroke-width:0.8;"/>
      </defs>
      <g>
       <use style="stroke:#000000;stroke-width:0.8;" x="43.78125" xlink:href="#m029a352173" y="276.715399"/>
      </g>
     </g>
     <g id="text_8">
      <!-- 0.0 -->
      <g transform="translate(20.878125 280.514618)scale(0.1 -0.1)">
       <defs>
        <path d="M 684 794 
L 1344 794 
L 1344 0 
L 684 0 
L 684 794 
z
" id="DejaVuSans-2e" transform="scale(0.015625)"/>
       </defs>
       <use xlink:href="#DejaVuSans-30"/>
       <use x="63.623047" xlink:href="#DejaVuSans-2e"/>
       <use x="95.410156" xlink:href="#DejaVuSans-30"/>
      </g>
     </g>
    </g>
    <g id="ytick_2">
     <g id="line2d_8">
      <g>
       <use style="stroke:#000000;stroke-width:0.8;" x="43.78125" xlink:href="#m029a352173" y="220.695869"/>
      </g>
     </g>
     <g id="text_9">
      <!-- 0.2 -->
      <g transform="translate(20.878125 224.495087)scale(0.1 -0.1)">
       <use xlink:href="#DejaVuSans-30"/>
       <use x="63.623047" xlink:href="#DejaVuSans-2e"/>
       <use x="95.410156" xlink:href="#DejaVuSans-32"/>
      </g>
     </g>
    </g>
    <g id="ytick_3">
     <g id="line2d_9">
      <g>
       <use style="stroke:#000000;stroke-width:0.8;" x="43.78125" xlink:href="#m029a352173" y="164.676339"/>
      </g>
     </g>
     <g id="text_10">
      <!-- 0.4 -->
      <g transform="translate(20.878125 168.475557)scale(0.1 -0.1)">
       <use xlink:href="#DejaVuSans-30"/>
       <use x="63.623047" xlink:href="#DejaVuSans-2e"/>
       <use x="95.410156" xlink:href="#DejaVuSans-34"/>
      </g>
     </g>
    </g>
    <g id="ytick_4">
     <g id="line2d_10">
      <g>
       <use style="stroke:#000000;stroke-width:0.8;" x="43.78125" xlink:href="#m029a352173" y="108.656808"/>
      </g>
     </g>
     <g id="text_11">
      <!-- 0.6 -->
      <g transform="translate(20.878125 112.456027)scale(0.1 -0.1)">
       <use xlink:href="#DejaVuSans-30"/>
       <use x="63.623047" xlink:href="#DejaVuSans-2e"/>
       <use x="95.410156" xlink:href="#DejaVuSans-36"/>
      </g>
     </g>
    </g>
    <g id="ytick_5">
     <g id="line2d_11">
      <g>
       <use style="stroke:#000000;stroke-width:0.8;" x="43.78125" xlink:href="#m029a352173" y="52.637278"/>
      </g>
     </g>
     <g id="text_12">
      <!-- 0.8 -->
      <g transform="translate(20.878125 56.436497)scale(0.1 -0.1)">
       <use xlink:href="#DejaVuSans-30"/>
       <use x="63.623047" xlink:href="#DejaVuSans-2e"/>
       <use x="95.410156" xlink:href="#DejaVuSans-38"/>
      </g>
     </g>
    </g>
    <g id="text_13">
     <!-- Value -->
     <g transform="translate(14.798438 169.105375)rotate(-90)scale(0.1 -0.1)">
      <defs>
       <path d="M 1831 0 
L 50 4666 
L 709 4666 
L 2188 738 
L 3669 4666 
L 4325 4666 
L 2547 0 
L 1831 0 
z
" id="DejaVuSans-56" transform="scale(0.015625)"/>
       <path d="M 603 4863 
L 1178 4863 
L 1178 0 
L 603 0 
L 603 4863 
z
" id="DejaVuSans-6c" transform="scale(0.015625)"/>
      </defs>
      <use xlink:href="#DejaVuSans-56"/>
      <use x="60.658203" xlink:href="#DejaVuSans-61"/>
      <use x="121.9375" xlink:href="#DejaVuSans-6c"/>
      <use x="149.720703" xlink:href="#DejaVuSans-75"/>
      <use x="213.099609" xlink:href="#DejaVuSans-65"/>
     </g>
    </g>
   </g>
   <g id="line2d_12">
    <path clip-path="url(#p015f9b3d89)" d="M 60.013977 276.334125 
L 60.339609 263.708079 
L 60.66524 172.82493 
L 60.990872 135.959006 
L 61.316503 123.651111 
L 61.642134 121.004318 
L 61.967766 134.420255 
L 62.293397 124.26669 
L 62.94466 113.758014 
L 63.270292 122.509687 
L 63.595923 117.29717 
L 63.921555 119.015153 
L 64.247186 116.602726 
L 64.572817 116.046677 
L 64.898449 116.859701 
L 65.22408 120.779541 
L 65.549712 118.401925 
L 65.875343 117.894519 
L 66.200975 119.496709 
L 66.526606 123.095431 
L 66.852238 123.382226 
L 67.177869 124.761047 
L 67.5035 120.07132 
L 67.829132 120.046216 
L 68.154763 115.738343 
L 68.480395 114.069912 
L 68.806026 116.838391 
L 69.131658 114.64661 
L 69.457289 114.296956 
L 69.78292 119.402326 
L 70.108552 107.611884 
L 70.434183 114.277562 
L 70.759815 108.466923 
L 71.085446 111.369446 
L 71.411078 108.492089 
L 71.736709 107.602877 
L 72.062341 114.985017 
L 72.713603 104.554948 
L 73.039235 105.06734 
L 73.364866 109.306635 
L 74.016129 95.114087 
L 74.341761 95.542636 
L 74.667392 91.584857 
L 75.318655 94.625185 
L 75.644286 93.32148 
L 75.969918 88.791346 
L 76.621181 87.945944 
L 76.946812 81.991975 
L 77.272444 83.388002 
L 77.923706 90.445999 
L 78.249338 79.653715 
L 78.574969 73.324943 
L 78.900601 75.406644 
L 79.226232 75.836809 
L 79.551864 70.02574 
L 79.877495 69.9109 
L 80.203127 78.608008 
L 80.528758 79.193654 
L 80.854389 84.101927 
L 81.180021 81.633846 
L 81.505652 82.233437 
L 81.831284 83.625044 
L 82.156915 83.01151 
L 82.482547 79.174132 
L 82.808178 78.633107 
L 83.133809 80.551795 
L 83.785072 67.132332 
L 84.110704 65.832678 
L 84.761967 61.572393 
L 85.087598 60.152298 
L 85.41323 67.451643 
L 85.738861 67.031496 
L 86.064492 69.65321 
L 86.390124 64.48821 
L 86.715755 67.390021 
L 87.041387 72.849125 
L 87.69265 75.298309 
L 88.018281 71.915428 
L 88.343913 60.409718 
L 88.669544 69.525951 
L 88.995175 66.744999 
L 89.320807 70.418138 
L 89.646438 71.296489 
L 89.97207 69.71211 
L 90.297701 61.553948 
L 90.623333 64.491998 
L 90.948964 62.601862 
L 91.274595 58.591884 
L 91.600227 52.970738 
L 91.925858 54.595259 
L 92.25149 53.382393 
L 92.577121 60.834124 
L 92.902753 71.632183 
L 93.554016 67.859595 
L 93.879647 69.287006 
L 94.205278 69.275941 
L 94.53091 67.188526 
L 94.856541 64.174132 
L 95.182173 65.81111 
L 95.507804 63.811938 
L 95.833436 67.317411 
L 96.159067 66.655635 
L 96.81033 71.972105 
L 97.135961 68.943154 
L 97.461593 71.614763 
L 97.787224 69.773652 
L 98.112856 71.134927 
L 98.438487 67.390021 
L 98.764119 57.816284 
L 99.08975 61.981336 
L 99.415381 68.115474 
L 100.066644 61.905709 
L 100.392276 58.992694 
L 100.717907 61.409937 
L 101.043539 62.132589 
L 101.36917 62.507919 
L 101.694802 67.947416 
L 102.020433 65.255677 
L 102.346064 65.185653 
L 102.671696 64.989585 
L 102.997327 66.196805 
L 103.322959 68.717684 
L 103.64859 59.970235 
L 103.974222 66.877443 
L 104.299853 65.054007 
L 104.625485 66.356461 
L 104.951116 66.507714 
L 105.276747 62.429492 
L 105.602379 61.222271 
L 105.92801 67.174346 
L 106.253642 65.513367 
L 106.579273 65.92231 
L 106.904905 71.672715 
L 107.556167 76.638846 
L 107.881799 75.482043 
L 108.533062 66.776608 
L 108.858693 67.062307 
L 109.184325 65.54978 
L 109.509956 80.354463 
L 109.835588 67.776222 
L 110.161219 68.37745 
L 110.48685 69.247132 
L 110.812482 69.616258 
L 111.138113 65.38809 
L 111.463745 73.52416 
L 111.789376 72.053647 
L 112.115008 78.025329 
L 112.440639 75.84897 
L 112.766271 76.610073 
L 113.091902 68.863335 
L 113.743165 65.070813 
L 114.068796 65.06241 
L 114.394428 63.706737 
L 114.720059 63.653519 
L 115.045691 64.617055 
L 115.371322 64.376171 
L 116.022585 68.429184 
L 116.348216 67.70093 
L 116.999479 64.003641 
L 117.325111 64.667472 
L 117.650742 65.003589 
L 117.976374 62.295045 
L 118.302005 64.471404 
L 118.627636 65.558183 
L 118.953268 63.942019 
L 119.278899 59.213971 
L 119.604531 50.780231 
L 119.930162 49.032421 
L 120.255794 42.592976 
L 120.581425 43.898231 
L 120.907057 53.5616 
L 121.232688 52.58406 
L 121.558319 58.564144 
L 121.883951 60.390381 
L 122.209582 59.334441 
L 122.535214 61.200073 
L 122.860845 60.692033 
L 123.186477 57.992254 
L 123.512108 52.709261 
L 123.837739 53.910576 
L 124.163371 58.531448 
L 124.489002 59.458975 
L 124.814634 64.124548 
L 125.140265 59.180359 
L 125.465897 62.199812 
L 125.791528 60.295148 
L 126.11716 65.622605 
L 126.442791 62.852439 
L 126.768422 64.852337 
L 127.094054 60.561241 
L 127.419685 60.928169 
L 128.070948 55.446658 
L 128.39658 54.060174 
L 128.722211 56.034863 
L 129.047843 53.119046 
L 129.373474 53.004206 
L 129.699105 55.536289 
L 130.024737 55.992848 
L 130.350368 55.463463 
L 130.676 56.704296 
L 131.327263 63.998039 
L 131.652894 65.939116 
L 131.978525 65.902703 
L 132.629788 62.320254 
L 132.95542 57.449356 
L 133.281051 67.286385 
L 133.606683 67.263977 
L 133.932314 65.54978 
L 134.257946 66.003538 
L 134.583577 69.039797 
L 134.909208 69.160239 
L 135.23484 61.300699 
L 135.560471 62.143792 
L 135.886103 62.185807 
L 136.211734 61.479961 
L 136.537366 58.415693 
L 136.862997 57.959134 
L 137.188628 58.86665 
L 137.51426 53.236687 
L 137.839891 55.292604 
L 138.165523 53.057425 
L 138.491154 54.992899 
L 138.816786 53.320716 
L 139.142417 53.239488 
L 139.79368 58.037561 
L 140.119311 60.096279 
L 140.444943 58.947878 
L 141.096206 62.245796 
L 141.421837 61.804464 
L 141.747469 64.527005 
L 142.0731 64.730221 
L 142.398732 63.869333 
L 142.724363 67.47806 
L 143.049994 67.561748 
L 143.375626 59.121539 
L 143.701257 61.516374 
L 144.026889 56.211324 
L 144.35252 60.023453 
L 144.678152 51.228387 
L 145.003783 54.525136 
L 145.329414 59.015102 
L 145.655046 57.334516 
L 145.980677 57.922721 
L 146.306309 63.765558 
L 146.63194 61.463155 
L 146.957572 61.650821 
L 147.283203 62.608755 
L 147.608835 57.424147 
L 147.934466 56.614665 
L 148.260097 52.301161 
L 148.585729 53.208677 
L 149.236992 50.732614 
L 149.562623 53.466367 
L 149.888255 52.922978 
L 150.213886 48.928785 
L 150.539518 49.609423 
L 150.865149 55.132948 
L 151.19078 54.625971 
L 151.516412 53.897718 
L 151.842043 57.26169 
L 152.167675 57.66223 
L 152.493306 59.135544 
L 152.818938 61.659224 
L 153.144569 59.306403 
L 153.4702 55.354225 
L 153.795832 52.836147 
L 154.121463 54.53634 
L 154.447095 55.158157 
L 154.772726 54.270247 
L 155.098358 54.127398 
L 155.423989 55.847197 
L 155.749621 52.32637 
L 156.075252 52.875361 
L 156.400883 55.757566 
L 156.726515 56.043266 
L 157.052146 60.435197 
L 157.377778 60.580848 
L 158.029041 64.740298 
L 158.354672 63.967228 
L 158.680304 66.930661 
L 159.005935 65.810271 
L 159.331566 59.790972 
L 159.657198 61.356718 
L 159.982829 60.508022 
L 160.308461 57.564196 
L 160.959724 59.656525 
L 161.285355 54.214228 
L 161.610986 61.457553 
L 161.936618 64.157695 
L 162.262249 69.650409 
L 162.587881 63.886 
L 162.913512 65.065211 
L 163.239144 65.437741 
L 163.564775 67.381619 
L 163.890407 63.051309 
L 164.216038 63.51347 
L 164.541669 62.121385 
L 164.867301 56.312159 
L 165.192932 56.819136 
L 165.518564 54.788428 
L 165.844195 58.477314 
L 166.169827 59.121539 
L 166.495458 57.581002 
L 166.82109 58.413172 
L 167.146721 60.247151 
L 167.472352 57.67552 
L 167.797984 57.508176 
L 168.123615 61.394595 
L 168.449247 56.751913 
L 168.774878 60.494017 
L 169.10051 61.353917 
L 169.426141 59.034709 
L 169.751772 53.950936 
L 170.077404 51.603718 
L 170.403035 53.948135 
L 170.728667 54.155407 
L 171.054298 51.754971 
L 171.37993 51.124751 
L 171.705561 54.799632 
L 172.031193 50.558954 
L 172.356824 52.920177 
L 172.682455 50.855857 
L 173.008087 50.844653 
L 173.333718 49.561806 
L 173.65935 50.998707 
L 173.984981 47.035325 
L 174.310613 45.136263 
L 174.961876 47.870016 
L 175.287507 42.077597 
L 176.264401 35.150782 
L 176.915664 38.408318 
L 177.241296 50.298463 
L 177.566927 45.884124 
L 177.892558 45.206287 
L 178.21819 43.968256 
L 178.869453 48.592668 
L 179.195084 47.598321 
L 179.520716 48.645887 
L 179.846347 51.015513 
L 180.171979 46.592771 
L 180.49761 46.054983 
L 180.823241 49.466573 
L 181.148873 48.250949 
L 181.474504 50.113598 
L 181.800136 51.057527 
L 182.125767 61.283893 
L 182.451399 60.580848 
L 182.77703 63.995238 
L 183.102662 63.877597 
L 183.428293 66.997885 
L 183.753924 68.513213 
L 184.079556 71.185345 
L 184.405187 65.975528 
L 184.730819 67.376017 
L 185.05645 62.631162 
L 185.382082 63.653519 
L 186.358976 47.39385 
L 186.684607 57.11604 
L 187.33587 46.690805 
L 187.661502 51.875413 
L 187.987133 50.799838 
L 188.312765 51.508485 
L 188.638396 50.63458 
L 188.964027 47.626331 
L 189.289659 46.290265 
L 189.61529 46.713213 
L 189.940922 47.517093 
L 190.266553 51.242392 
L 190.592185 47.276209 
L 190.917816 49.48618 
L 191.243448 54.124597 
L 191.569079 54.118995 
L 191.89471 56.242135 
L 192.220342 51.63733 
L 192.545973 64.306146 
L 192.871605 57.60621 
L 193.197236 62.776813 
L 193.522868 61.535981 
L 193.848499 52.315166 
L 194.17413 51.864209 
L 194.499762 53.880912 
L 194.825393 52.284355 
L 195.151025 53.018211 
L 195.476656 52.463618 
L 195.802288 53.827693 
L 196.127919 49.71586 
L 196.453551 48.984805 
L 196.779182 46.197833 
L 197.104813 47.085743 
L 197.430445 48.788736 
L 197.756076 46.480732 
L 198.081708 47.856011 
L 198.407339 50.74942 
L 198.732971 45.200686 
L 199.058602 49.332126 
L 199.384233 45.309924 
L 199.709865 47.231394 
L 200.035496 52.021063 
L 200.361128 54.872457 
L 200.686759 52.110695 
L 201.012391 53.782878 
L 201.338022 48.169721 
L 201.989285 50.575759 
L 202.640548 45.113855 
L 202.966179 45.688055 
L 203.291811 43.536905 
L 203.617442 44.405208 
L 203.943074 49.925933 
L 204.268705 49.466573 
L 204.594337 46.814048 
L 204.919968 48.651489 
L 205.245599 54.894865 
L 205.571231 52.197525 
L 205.896862 52.934182 
L 206.222494 54.906069 
L 206.548125 58.931072 
L 206.873757 56.356975 
L 207.199388 52.458016 
L 207.850651 50.536546 
L 208.176282 47.040927 
L 208.501914 50.136006 
L 208.827545 58.211221 
L 209.153177 57.11604 
L 209.478808 57.681837 
L 209.80444 58.653776 
L 210.130071 58.740606 
L 210.455702 59.222374 
L 210.781334 49.362937 
L 211.106965 50.956692 
L 211.432597 57.732254 
L 211.758228 59.608909 
L 212.08386 55.247788 
L 212.409491 54.978895 
L 212.735123 46.466727 
L 213.060754 45.164273 
L 213.386385 46.239848 
L 213.712017 44.6685 
L 214.037648 47.856011 
L 214.36328 43.609731 
L 214.688911 42.845064 
L 215.014543 47.844807 
L 215.665805 50.116399 
L 215.991437 51.197576 
L 216.317068 57.782672 
L 216.6427 54.071378 
L 216.968331 55.813586 
L 217.293963 58.788223 
L 217.619594 57.121642 
L 218.270857 51.791383 
L 218.596488 53.844499 
L 218.92212 50.561755 
L 219.247751 50.906275 
L 219.573383 50.102394 
L 219.899014 47.416258 
L 220.224646 47.62353 
L 220.550277 47.430263 
L 220.875909 51.292809 
L 221.20154 48.19773 
L 221.527171 46.668397 
L 221.852803 49.068834 
L 222.178434 50.494531 
L 222.504066 49.337728 
L 222.829697 49.735467 
L 223.155329 52.774526 
L 223.48096 53.925727 
L 223.806591 54.583957 
L 224.132223 49.295713 
L 224.457854 50.903474 
L 224.783486 49.951142 
L 225.109117 49.77468 
L 225.434749 47.785987 
L 225.76038 50.486128 
L 226.086012 50.74942 
L 226.411643 50.802639 
L 226.737274 55.275798 
L 227.062906 56.303756 
L 227.388537 58.575348 
L 227.714169 57.443754 
L 228.0398 59.295199 
L 228.365432 51.923029 
L 229.342326 64.017646 
L 229.993589 59.065519 
L 230.31922 59.082325 
L 230.644852 58.911466 
L 230.970483 58.939475 
L 231.296115 57.939527 
L 231.621746 60.524828 
L 231.947377 57.995546 
L 232.273009 60.048662 
L 232.59864 55.124545 
L 232.924272 54.541942 
L 233.249903 56.135698 
L 233.575535 53.771674 
L 233.901166 53.032216 
L 234.226798 55.79678 
L 234.552429 54.169412 
L 234.87806 50.592565 
L 235.203692 39.010527 
L 235.529323 53.049022 
L 235.854955 53.976145 
L 236.180586 54.348675 
L 236.506218 55.158157 
L 236.831849 52.869759 
L 237.157481 53.665237 
L 237.483112 51.539295 
L 237.808743 53.656834 
L 238.134375 50.738216 
L 238.460006 46.64879 
L 238.785638 47.001713 
L 239.111269 45.38555 
L 239.436901 44.584471 
L 239.762532 43.276415 
L 240.088163 45.674051 
L 240.413795 44.942996 
L 240.739426 46.063386 
L 241.065058 45.517196 
L 241.390689 48.290163 
L 241.716321 49.685049 
L 242.041952 50.158414 
L 242.367584 58.37928 
L 242.693215 50.284458 
L 243.018846 47.965249 
L 243.344478 46.746825 
L 243.670109 58.275644 
L 243.995741 50.06038 
L 244.321372 50.962294 
L 244.647004 49.550602 
L 244.972635 45.407958 
L 245.298267 46.598373 
L 245.623898 49.51699 
L 245.949529 51.413251 
L 246.275161 48.920382 
L 246.600792 48.721513 
L 246.926424 48.22574 
L 247.252055 55.141351 
L 247.577687 55.343021 
L 248.228949 53.718455 
L 248.554581 52.281554 
L 248.880212 49.797088 
L 249.205844 49.262101 
L 249.531475 50.948289 
L 249.857107 53.682042 
L 250.182738 50.292861 
L 250.50837 50.180822 
L 250.834001 47.550705 
L 251.159632 51.701752 
L 251.485264 51.66814 
L 251.810895 52.306763 
L 252.462158 47.842006 
L 252.78779 48.040876 
L 253.113421 49.752272 
L 253.439052 47.007315 
L 253.764684 54.50833 
L 254.090315 53.110643 
L 254.415947 53.10224 
L 254.741578 53.567202 
L 255.06721 51.253596 
L 255.392841 54.029363 
L 255.718473 51.987452 
L 256.044104 55.141351 
L 256.369735 53.900519 
L 256.695367 54.67919 
L 257.020998 59.185961 
L 257.34663 57.693041 
L 257.672261 62.449099 
L 257.997893 62.031753 
L 258.323524 52.866958 
L 258.649156 57.508176 
L 258.974787 52.301161 
L 259.300418 54.771622 
L 259.62605 52.906172 
L 259.951681 43.671352 
L 260.277313 45.077443 
L 260.602944 50.315269 
L 260.928576 51.508485 
L 261.254207 48.881169 
L 261.579838 48.094094 
L 261.90547 47.741171 
L 262.231101 48.038075 
L 262.556733 50.536546 
L 262.882364 46.242649 
L 263.207996 43.707765 
L 263.533627 42.086 
L 263.859259 34.414125 
L 264.18489 36.105915 
L 264.510521 43.136366 
L 264.836153 42.724622 
L 265.487416 46.099799 
L 265.813047 49.895122 
L 266.138679 50.049176 
L 266.46431 49.833501 
L 266.789942 50.278856 
L 267.115573 50.099593 
L 267.441204 42.248456 
L 267.766836 47.466676 
L 268.092467 46.889674 
L 268.418099 40.133719 
L 268.74373 36.828567 
L 269.069362 34.932306 
L 269.394993 40.383006 
L 269.720624 38.402716 
L 270.046256 39.341043 
L 270.371887 38.21505 
L 270.697519 39.383057 
L 271.02315 43.57892 
L 271.348782 42.912288 
L 271.674413 41.452979 
L 272.000045 38.780847 
L 272.325676 39.957258 
L 272.651307 40.702317 
L 272.976939 40.523055 
L 273.30257 39.53431 
L 273.628202 40.3662 
L 273.953833 39.44748 
L 274.279465 37.766894 
L 274.605096 37.43918 
L 274.930728 38.666007 
L 275.256359 45.550808 
L 275.58199 46.195032 
L 275.907622 43.382852 
L 276.233253 45.800095 
L 276.558885 47.172573 
L 276.884516 47.522695 
L 277.210148 46.290265 
L 277.535779 46.259455 
L 277.86141 46.53395 
L 278.187042 50.718609 
L 278.512673 49.298514 
L 278.838305 51.309615 
L 279.163936 50.334875 
L 279.489568 50.206031 
L 279.815199 48.264954 
L 280.140831 51.547698 
L 280.466462 49.595418 
L 280.792093 49.155664 
L 281.117725 50.222836 
L 281.443356 50.278856 
L 281.768988 51.472072 
L 282.094619 46.830854 
L 282.745882 52.973395 
L 283.397145 51.710155 
L 283.722776 56.791126 
L 284.048408 57.034811 
L 284.699671 58.508125 
L 285.025302 57.463361 
L 285.350934 59.61171 
L 285.676565 58.678984 
L 286.002196 61.723646 
L 286.327828 60.947775 
L 286.653459 61.502369 
L 286.979091 52.906172 
L 287.304722 49.514189 
L 287.630354 52.536443 
L 287.955985 50.928682 
L 288.281617 51.172367 
L 289.258511 56.230931 
L 289.584142 57.068423 
L 289.909774 54.827642 
L 290.235405 57.763065 
L 290.561037 53.253493 
L 290.886668 54.373884 
L 291.2123 51.595315 
L 291.537931 51.528091 
L 291.863562 51.032319 
L 292.189194 49.332126 
L 292.514825 53.670838 
L 293.166088 46.259455 
L 293.49172 44.951399 
L 293.817351 46.937291 
L 294.142982 45.912134 
L 294.468614 42.506146 
L 294.794245 47.281811 
L 295.119877 45.752478 
L 295.445508 46.853262 
L 296.096771 45.755279 
L 296.422403 47.33503 
L 296.748034 46.508742 
L 297.073665 46.828053 
L 297.399297 44.105504 
L 297.724928 44.489238 
L 298.05056 46.912082 
L 298.376191 44.816952 
L 298.701823 46.004566 
L 299.027454 47.93724 
L 299.353086 48.65429 
L 299.678717 45.760881 
L 300.004348 49.186475 
L 300.32998 49.785884 
L 300.655611 48.099696 
L 300.981243 49.175271 
L 301.306874 51.051925 
L 301.632506 49.278907 
L 301.958137 49.640233 
L 302.6094 46.035377 
L 302.935031 44.105504 
L 303.260663 44.416412 
L 303.586294 48.046478 
L 303.911926 45.839308 
L 304.237557 52.063078 
L 304.563189 50.962294 
L 304.88882 50.875464 
L 305.214451 52.738113 
L 305.540083 48.491833 
L 305.865714 47.715962 
L 306.191346 48.676697 
L 306.516977 47.116553 
L 306.842609 44.150319 
L 307.16824 47.721564 
L 307.493872 46.452722 
L 307.819503 46.237047 
L 308.145134 47.847608 
L 308.470766 50.127603 
L 308.796397 49.329325 
L 309.122029 46.917684 
L 309.44766 48.939989 
L 309.773292 48.442667 
L 310.424554 57.410142 
L 310.750186 58.597756 
L 311.075817 59.082325 
L 311.401449 60.171905 
L 311.72708 55.135749 
L 312.052712 54.824841 
L 312.378343 54.85005 
L 312.703975 59.715346 
L 313.029606 55.656731 
L 313.680869 54.530738 
L 314.0065 53.586809 
L 314.332132 55.931227 
L 314.657763 55.583905 
L 314.983395 56.835942 
L 315.309026 50.6934 
L 315.634657 48.701906 
L 315.960289 50.684998 
L 316.28592 57.880706 
L 316.611552 60.916965 
L 316.937183 54.343073 
L 317.914078 46.956898 
L 318.239709 48.757926 
L 318.56534 45.84491 
L 318.890972 47.30702 
L 319.216603 45.108253 
L 319.542235 45.475181 
L 319.867866 46.979306 
L 320.193498 44.819753 
L 320.519129 45.469579 
L 320.844761 45.049433 
L 321.170392 47.802793 
L 321.496023 51.883815 
L 321.821655 47.298617 
L 322.147286 57.54739 
L 322.472918 55.939629 
L 322.798549 56.110489 
L 323.124181 55.813586 
L 323.449812 57.533385 
L 323.775443 56.695893 
L 324.101075 57.838692 
L 324.426706 47.251 
L 324.752338 46.351887 
L 325.077969 46.688004 
L 325.403601 45.147467 
L 325.729232 46.349086 
L 326.380495 52.990201 
L 326.706126 45.937342 
L 327.031758 44.256756 
L 327.357389 47.068937 
L 327.683021 42.836661 
L 328.008652 43.909435 
L 328.659915 47.343433 
L 328.985547 46.923286 
L 329.311178 45.769284 
L 329.636809 43.419264 
L 329.962441 42.595777 
L 330.288072 43.080346 
L 330.613704 42.696613 
L 330.939335 44.98501 
L 331.264967 46.026974 
L 331.590598 48.662693 
L 331.916229 49.2565 
L 332.241861 52.455215 
L 332.567492 50.337676 
L 332.893124 50.34888 
L 333.218755 51.186372 
L 333.544387 45.197885 
L 333.870018 41.632241 
L 334.19565 40.298977 
L 334.521281 49.388145 
L 334.846912 47.015718 
L 335.172544 42.119611 
L 335.498175 51.446863 
L 335.823807 50.570158 
L 336.149438 48.836353 
L 336.47507 51.939835 
L 336.800701 53.063027 
L 337.126333 48.920382 
L 337.451964 51.147159 
L 337.777595 50.37689 
L 338.103227 52.004257 
L 338.428858 50.306866 
L 338.75449 50.54775 
L 339.080121 52.135903 
L 339.405753 48.79994 
L 339.731384 56.645476 
L 340.057015 51.284407 
L 340.382647 51.511286 
L 340.708278 53.858504 
L 341.03391 55.015307 
L 341.359541 55.443857 
L 341.685173 50.923081 
L 342.010804 54.953686 
L 342.336436 49.606622 
L 342.662067 50.365686 
L 342.987698 43.912236 
L 343.31333 44.312776 
L 343.638961 46.735621 
L 343.964593 46.256654 
L 344.290224 44.200737 
L 344.941487 53.766072 
L 345.267119 53.836096 
L 345.59275 54.261845 
L 346.244013 59.048713 
L 346.569644 58.86665 
L 346.895276 59.729351 
L 347.220907 61.950525 
L 347.546539 57.693041 
L 347.87217 49.334927 
L 348.197801 49.396548 
L 348.523433 51.418853 
L 348.849064 49.771879 
L 349.174696 50.049176 
L 349.500327 50.572958 
L 349.825959 55.617517 
L 350.15159 49.337728 
L 350.477222 51.124751 
L 350.802853 52.141505 
L 351.454116 55.491473 
L 351.779747 52.914575 
L 352.105379 47.441467 
L 352.43101 50.178021 
L 352.756642 50.861459 
L 353.082273 54.511131 
L 353.407905 52.477623 
L 354.059167 54.861254 
L 354.384799 50.264851 
L 355.036062 46.780691 
L 355.361693 53.250073 
L 356.012956 54.485136 
L 356.338587 54.154666 
L 356.664219 55.050857 
L 356.98985 55.480269 
L 357.315482 57.732254 
L 357.641113 45.850512 
L 358.292376 58.003949 
L 358.618008 53.281503 
L 358.943639 51.670941 
L 359.26927 53.429955 
L 359.594902 53.872509 
L 359.920533 54.625971 
L 360.571796 46.881271 
L 360.897428 46.76363 
L 361.223059 46.085794 
L 361.548691 44.87017 
L 361.874322 40.988017 
L 362.199953 41.556615 
L 362.525585 44.828156 
L 362.851216 44.914986 
L 363.176848 43.060739 
L 363.502479 42.587374 
L 363.828111 54.166611 
L 364.479373 49.721462 
L 364.805005 45.514395 
L 365.130636 47.186578 
L 365.456268 46.469528 
L 365.781899 47.343433 
L 366.107531 46.399503 
L 366.433162 47.951244 
L 366.758794 48.897975 
L 367.084425 48.466624 
L 367.410056 52.348778 
L 367.735688 49.587015 
L 368.061319 44.492038 
L 368.386951 44.167125 
L 368.712582 42.749831 
L 369.038214 43.085948 
L 369.363845 47.522695 
L 369.689476 44.178329 
L 370.015108 39.24861 
L 370.340739 47.906429 
L 370.666371 47.477879 
L 370.992002 47.36584 
L 371.317634 40.775143 
L 371.643265 44.245553 
L 371.968897 42.357694 
L 372.294528 41.424969 
L 372.620159 43.242803 
L 372.945791 41.413765 
L 373.271422 41.584625 
L 373.597054 44.125111 
L 373.922685 42.626588 
L 374.248317 42.618185 
L 374.573948 40.727526 
L 374.89958 44.253955 
L 375.876474 36.231959 
L 376.202105 39.604334 
L 376.527737 40.993619 
L 376.853368 41.100056 
L 377.179 42.382903 
L 377.504631 40.472637 
L 377.830262 40.895585 
L 378.155894 39.231805 
L 378.481525 41.167279 
L 378.807157 44.744126 
L 379.132788 43.682556 
L 379.45842 48.679498 
L 379.784051 48.343381 
L 380.109683 46.735621 
L 380.435314 50.508536 
L 380.760945 52.953789 
L 381.086577 42.531355 
L 381.412208 45.111054 
L 381.73784 45.55641 
L 382.063471 50.718609 
L 382.714734 56.040465 
L 383.040366 56.118892 
L 383.365997 51.69615 
L 383.691628 59.541685 
L 384.01726 55.746362 
L 384.342891 55.555896 
L 384.668523 55.838794 
L 384.668523 55.838794 
" style="fill:none;stroke:#1f77b4;stroke-linecap:square;stroke-width:1.5;"/>
   </g>
   <g id="patch_3">
    <path d="M 43.78125 288.430125 
L 43.78125 22.318125 
" style="fill:none;stroke:#000000;stroke-linecap:square;stroke-linejoin:miter;stroke-width:0.8;"/>
   </g>
   <g id="patch_4">
    <path d="M 400.90125 288.430125 
L 400.90125 22.318125 
" style="fill:none;stroke:#000000;stroke-linecap:square;stroke-linejoin:miter;stroke-width:0.8;"/>
   </g>
   <g id="patch_5">
    <path d="M 43.78125 288.430125 
L 400.90125 288.430125 
" style="fill:none;stroke:#000000;stroke-linecap:square;stroke-linejoin:miter;stroke-width:0.8;"/>
   </g>
   <g id="patch_6">
    <path d="M 43.78125 22.318125 
L 400.90125 22.318125 
" style="fill:none;stroke:#000000;stroke-linecap:square;stroke-linejoin:miter;stroke-width:0.8;"/>
   </g>
   <g id="text_14">
    <!-- hv -->
    <g transform="translate(214.9875 16.318125)scale(0.12 -0.12)">
     <defs>
      <path d="M 3513 2113 
L 3513 0 
L 2938 0 
L 2938 2094 
Q 2938 2591 2744 2837 
Q 2550 3084 2163 3084 
Q 1697 3084 1428 2787 
Q 1159 2491 1159 1978 
L 1159 0 
L 581 0 
L 581 4863 
L 1159 4863 
L 1159 2956 
Q 1366 3272 1645 3428 
Q 1925 3584 2291 3584 
Q 2894 3584 3203 3211 
Q 3513 2838 3513 2113 
z
" id="DejaVuSans-68" transform="scale(0.015625)"/>
      <path d="M 191 3500 
L 800 3500 
L 1894 563 
L 2988 3500 
L 3597 3500 
L 2284 0 
L 1503 0 
L 191 3500 
z
" id="DejaVuSans-76" transform="scale(0.015625)"/>
     </defs>
     <use xlink:href="#DejaVuSans-68"/>
     <use x="63.378906" xlink:href="#DejaVuSans-76"/>
    </g>
   </g>
   <g id="legend_1">
    <g id="patch_7">
     <path d="M 50.78125 44.99625 
L 95.0375 44.99625 
Q 97.0375 44.99625 97.0375 42.99625 
L 97.0375 29.318125 
Q 97.0375 27.318125 95.0375 27.318125 
L 50.78125 27.318125 
Q 48.78125 27.318125 48.78125 29.318125 
L 48.78125 42.99625 
Q 48.78125 44.99625 50.78125 44.99625 
z
" style="fill:#ffffff;opacity:0.8;stroke:#cccccc;stroke-linejoin:miter;"/>
    </g>
    <g id="line2d_13">
     <path d="M 52.78125 35.416562 
L 72.78125 35.416562 
" style="fill:none;stroke:#1f77b4;stroke-linecap:square;stroke-width:1.5;"/>
    </g>
    <g id="line2d_14"/>
    <g id="text_15">
     <!-- hv -->
     <g transform="translate(80.78125 38.916562)scale(0.1 -0.1)">
      <use xlink:href="#DejaVuSans-68"/>
      <use x="63.378906" xlink:href="#DejaVuSans-76"/>
     </g>
    </g>
   </g>
  </g>
 </g>
 <defs>
  <clipPath id="p015f9b3d89">
   <rect height="266.112" width="357.12" x="43.78125" y="22.318125"/>
  </clipPath>
 </defs>
</svg>
