<?xml version="1.0" encoding="utf-8" standalone="no"?>
<!DOCTYPE svg PUBLIC "-//W3C//DTD SVG 1.1//EN"
  "http://www.w3.org/Graphics/SVG/1.1/DTD/svg11.dtd">
<svg height="325.986375pt" version="1.1" viewBox="0 0 424.010625 325.986375" width="424.010625pt" xmlns="http://www.w3.org/2000/svg" xmlns:xlink="http://www.w3.org/1999/xlink">
 <metadata>
  <rdf:RDF xmlns:cc="http://creativecommons.org/ns#" xmlns:dc="http://purl.org/dc/elements/1.1/" xmlns:rdf="http://www.w3.org/1999/02/22-rdf-syntax-ns#">
   <cc:Work>
    <dc:type rdf:resource="http://purl.org/dc/dcmitype/StillImage"/>
    <dc:date>2022-02-21T16:52:45.967492</dc:date>
    <dc:format>image/svg+xml</dc:format>
    <dc:creator>
     <cc:Agent>
      <dc:title>Matplotlib v3.4.1, https://matplotlib.org/</dc:title>
     </cc:Agent>
    </dc:creator>
   </cc:Work>
  </rdf:RDF>
 </metadata>
 <defs>
  <style type="text/css">*{stroke-linecap:butt;stroke-linejoin:round;}</style>
 </defs>
 <g id="figure_1">
  <g id="patch_1">
   <path d="M 0 325.986375 
L 424.010625 325.986375 
L 424.010625 0 
L 0 0 
z
" style="fill:#ffffff;"/>
  </g>
  <g id="axes_1">
   <g id="patch_2">
    <path d="M 59.690625 288.430125 
L 416.810625 288.430125 
L 416.810625 22.318125 
L 59.690625 22.318125 
z
" style="fill:#ffffff;"/>
   </g>
   <g id="matplotlib.axis_1">
    <g id="xtick_1">
     <g id="line2d_1">
      <path clip-path="url(#p50ec59b4cb)" d="M 75.923352 288.430125 
L 75.923352 22.318125 
" style="fill:none;stroke:#b0b0b0;stroke-linecap:square;stroke-width:0.8;"/>
     </g>
     <g id="line2d_2">
      <defs>
       <path d="M 0 0 
L 0 3.5 
" id="mea18f7fc4e" style="stroke:#000000;stroke-width:0.8;"/>
      </defs>
      <g>
       <use style="stroke:#000000;stroke-width:0.8;" x="75.923352" xlink:href="#mea18f7fc4e" y="288.430125"/>
      </g>
     </g>
     <g id="text_1">
      <!-- 1 -->
      <g transform="translate(72.742102 303.028562)scale(0.1 -0.1)">
       <defs>
        <path d="M 794 531 
L 1825 531 
L 1825 4091 
L 703 3866 
L 703 4441 
L 1819 4666 
L 2450 4666 
L 2450 531 
L 3481 531 
L 3481 0 
L 794 0 
L 794 531 
z
" id="DejaVuSans-31" transform="scale(0.015625)"/>
       </defs>
       <use xlink:href="#DejaVuSans-31"/>
      </g>
     </g>
    </g>
    <g id="xtick_2">
     <g id="line2d_3">
      <path clip-path="url(#p50ec59b4cb)" d="M 140.854261 288.430125 
L 140.854261 22.318125 
" style="fill:none;stroke:#b0b0b0;stroke-linecap:square;stroke-width:0.8;"/>
     </g>
     <g id="line2d_4">
      <g>
       <use style="stroke:#000000;stroke-width:0.8;" x="140.854261" xlink:href="#mea18f7fc4e" y="288.430125"/>
      </g>
     </g>
     <g id="text_2">
      <!-- 2 -->
      <g transform="translate(137.673011 303.028562)scale(0.1 -0.1)">
       <defs>
        <path d="M 1228 531 
L 3431 531 
L 3431 0 
L 469 0 
L 469 531 
Q 828 903 1448 1529 
Q 2069 2156 2228 2338 
Q 2531 2678 2651 2914 
Q 2772 3150 2772 3378 
Q 2772 3750 2511 3984 
Q 2250 4219 1831 4219 
Q 1534 4219 1204 4116 
Q 875 4013 500 3803 
L 500 4441 
Q 881 4594 1212 4672 
Q 1544 4750 1819 4750 
Q 2544 4750 2975 4387 
Q 3406 4025 3406 3419 
Q 3406 3131 3298 2873 
Q 3191 2616 2906 2266 
Q 2828 2175 2409 1742 
Q 1991 1309 1228 531 
z
" id="DejaVuSans-32" transform="scale(0.015625)"/>
       </defs>
       <use xlink:href="#DejaVuSans-32"/>
      </g>
     </g>
    </g>
    <g id="xtick_3">
     <g id="line2d_5">
      <path clip-path="url(#p50ec59b4cb)" d="M 205.78517 288.430125 
L 205.78517 22.318125 
" style="fill:none;stroke:#b0b0b0;stroke-linecap:square;stroke-width:0.8;"/>
     </g>
     <g id="line2d_6">
      <g>
       <use style="stroke:#000000;stroke-width:0.8;" x="205.78517" xlink:href="#mea18f7fc4e" y="288.430125"/>
      </g>
     </g>
     <g id="text_3">
      <!-- 3 -->
      <g transform="translate(202.60392 303.028562)scale(0.1 -0.1)">
       <defs>
        <path d="M 2597 2516 
Q 3050 2419 3304 2112 
Q 3559 1806 3559 1356 
Q 3559 666 3084 287 
Q 2609 -91 1734 -91 
Q 1441 -91 1130 -33 
Q 819 25 488 141 
L 488 750 
Q 750 597 1062 519 
Q 1375 441 1716 441 
Q 2309 441 2620 675 
Q 2931 909 2931 1356 
Q 2931 1769 2642 2001 
Q 2353 2234 1838 2234 
L 1294 2234 
L 1294 2753 
L 1863 2753 
Q 2328 2753 2575 2939 
Q 2822 3125 2822 3475 
Q 2822 3834 2567 4026 
Q 2313 4219 1838 4219 
Q 1578 4219 1281 4162 
Q 984 4106 628 3988 
L 628 4550 
Q 988 4650 1302 4700 
Q 1616 4750 1894 4750 
Q 2613 4750 3031 4423 
Q 3450 4097 3450 3541 
Q 3450 3153 3228 2886 
Q 3006 2619 2597 2516 
z
" id="DejaVuSans-33" transform="scale(0.015625)"/>
       </defs>
       <use xlink:href="#DejaVuSans-33"/>
      </g>
     </g>
    </g>
    <g id="xtick_4">
     <g id="line2d_7">
      <path clip-path="url(#p50ec59b4cb)" d="M 270.71608 288.430125 
L 270.71608 22.318125 
" style="fill:none;stroke:#b0b0b0;stroke-linecap:square;stroke-width:0.8;"/>
     </g>
     <g id="line2d_8">
      <g>
       <use style="stroke:#000000;stroke-width:0.8;" x="270.71608" xlink:href="#mea18f7fc4e" y="288.430125"/>
      </g>
     </g>
     <g id="text_4">
      <!-- 4 -->
      <g transform="translate(267.53483 303.028562)scale(0.1 -0.1)">
       <defs>
        <path d="M 2419 4116 
L 825 1625 
L 2419 1625 
L 2419 4116 
z
M 2253 4666 
L 3047 4666 
L 3047 1625 
L 3713 1625 
L 3713 1100 
L 3047 1100 
L 3047 0 
L 2419 0 
L 2419 1100 
L 313 1100 
L 313 1709 
L 2253 4666 
z
" id="DejaVuSans-34" transform="scale(0.015625)"/>
       </defs>
       <use xlink:href="#DejaVuSans-34"/>
      </g>
     </g>
    </g>
    <g id="xtick_5">
     <g id="line2d_9">
      <path clip-path="url(#p50ec59b4cb)" d="M 335.646989 288.430125 
L 335.646989 22.318125 
" style="fill:none;stroke:#b0b0b0;stroke-linecap:square;stroke-width:0.8;"/>
     </g>
     <g id="line2d_10">
      <g>
       <use style="stroke:#000000;stroke-width:0.8;" x="335.646989" xlink:href="#mea18f7fc4e" y="288.430125"/>
      </g>
     </g>
     <g id="text_5">
      <!-- 5 -->
      <g transform="translate(332.465739 303.028562)scale(0.1 -0.1)">
       <defs>
        <path d="M 691 4666 
L 3169 4666 
L 3169 4134 
L 1269 4134 
L 1269 2991 
Q 1406 3038 1543 3061 
Q 1681 3084 1819 3084 
Q 2600 3084 3056 2656 
Q 3513 2228 3513 1497 
Q 3513 744 3044 326 
Q 2575 -91 1722 -91 
Q 1428 -91 1123 -41 
Q 819 9 494 109 
L 494 744 
Q 775 591 1075 516 
Q 1375 441 1709 441 
Q 2250 441 2565 725 
Q 2881 1009 2881 1497 
Q 2881 1984 2565 2268 
Q 2250 2553 1709 2553 
Q 1456 2553 1204 2497 
Q 953 2441 691 2322 
L 691 4666 
z
" id="DejaVuSans-35" transform="scale(0.015625)"/>
       </defs>
       <use xlink:href="#DejaVuSans-35"/>
      </g>
     </g>
    </g>
    <g id="xtick_6">
     <g id="line2d_11">
      <path clip-path="url(#p50ec59b4cb)" d="M 400.577898 288.430125 
L 400.577898 22.318125 
" style="fill:none;stroke:#b0b0b0;stroke-linecap:square;stroke-width:0.8;"/>
     </g>
     <g id="line2d_12">
      <g>
       <use style="stroke:#000000;stroke-width:0.8;" x="400.577898" xlink:href="#mea18f7fc4e" y="288.430125"/>
      </g>
     </g>
     <g id="text_6">
      <!-- 6 -->
      <g transform="translate(397.396648 303.028562)scale(0.1 -0.1)">
       <defs>
        <path d="M 2113 2584 
Q 1688 2584 1439 2293 
Q 1191 2003 1191 1497 
Q 1191 994 1439 701 
Q 1688 409 2113 409 
Q 2538 409 2786 701 
Q 3034 994 3034 1497 
Q 3034 2003 2786 2293 
Q 2538 2584 2113 2584 
z
M 3366 4563 
L 3366 3988 
Q 3128 4100 2886 4159 
Q 2644 4219 2406 4219 
Q 1781 4219 1451 3797 
Q 1122 3375 1075 2522 
Q 1259 2794 1537 2939 
Q 1816 3084 2150 3084 
Q 2853 3084 3261 2657 
Q 3669 2231 3669 1497 
Q 3669 778 3244 343 
Q 2819 -91 2113 -91 
Q 1303 -91 875 529 
Q 447 1150 447 2328 
Q 447 3434 972 4092 
Q 1497 4750 2381 4750 
Q 2619 4750 2861 4703 
Q 3103 4656 3366 4563 
z
" id="DejaVuSans-36" transform="scale(0.015625)"/>
       </defs>
       <use xlink:href="#DejaVuSans-36"/>
      </g>
     </g>
    </g>
    <g id="text_7">
     <!-- Dimension Number -->
     <g transform="translate(189.999063 316.706687)scale(0.1 -0.1)">
      <defs>
       <path d="M 1259 4147 
L 1259 519 
L 2022 519 
Q 2988 519 3436 956 
Q 3884 1394 3884 2338 
Q 3884 3275 3436 3711 
Q 2988 4147 2022 4147 
L 1259 4147 
z
M 628 4666 
L 1925 4666 
Q 3281 4666 3915 4102 
Q 4550 3538 4550 2338 
Q 4550 1131 3912 565 
Q 3275 0 1925 0 
L 628 0 
L 628 4666 
z
" id="DejaVuSans-44" transform="scale(0.015625)"/>
       <path d="M 603 3500 
L 1178 3500 
L 1178 0 
L 603 0 
L 603 3500 
z
M 603 4863 
L 1178 4863 
L 1178 4134 
L 603 4134 
L 603 4863 
z
" id="DejaVuSans-69" transform="scale(0.015625)"/>
       <path d="M 3328 2828 
Q 3544 3216 3844 3400 
Q 4144 3584 4550 3584 
Q 5097 3584 5394 3201 
Q 5691 2819 5691 2113 
L 5691 0 
L 5113 0 
L 5113 2094 
Q 5113 2597 4934 2840 
Q 4756 3084 4391 3084 
Q 3944 3084 3684 2787 
Q 3425 2491 3425 1978 
L 3425 0 
L 2847 0 
L 2847 2094 
Q 2847 2600 2669 2842 
Q 2491 3084 2119 3084 
Q 1678 3084 1418 2786 
Q 1159 2488 1159 1978 
L 1159 0 
L 581 0 
L 581 3500 
L 1159 3500 
L 1159 2956 
Q 1356 3278 1631 3431 
Q 1906 3584 2284 3584 
Q 2666 3584 2933 3390 
Q 3200 3197 3328 2828 
z
" id="DejaVuSans-6d" transform="scale(0.015625)"/>
       <path d="M 3597 1894 
L 3597 1613 
L 953 1613 
Q 991 1019 1311 708 
Q 1631 397 2203 397 
Q 2534 397 2845 478 
Q 3156 559 3463 722 
L 3463 178 
Q 3153 47 2828 -22 
Q 2503 -91 2169 -91 
Q 1331 -91 842 396 
Q 353 884 353 1716 
Q 353 2575 817 3079 
Q 1281 3584 2069 3584 
Q 2775 3584 3186 3129 
Q 3597 2675 3597 1894 
z
M 3022 2063 
Q 3016 2534 2758 2815 
Q 2500 3097 2075 3097 
Q 1594 3097 1305 2825 
Q 1016 2553 972 2059 
L 3022 2063 
z
" id="DejaVuSans-65" transform="scale(0.015625)"/>
       <path d="M 3513 2113 
L 3513 0 
L 2938 0 
L 2938 2094 
Q 2938 2591 2744 2837 
Q 2550 3084 2163 3084 
Q 1697 3084 1428 2787 
Q 1159 2491 1159 1978 
L 1159 0 
L 581 0 
L 581 3500 
L 1159 3500 
L 1159 2956 
Q 1366 3272 1645 3428 
Q 1925 3584 2291 3584 
Q 2894 3584 3203 3211 
Q 3513 2838 3513 2113 
z
" id="DejaVuSans-6e" transform="scale(0.015625)"/>
       <path d="M 2834 3397 
L 2834 2853 
Q 2591 2978 2328 3040 
Q 2066 3103 1784 3103 
Q 1356 3103 1142 2972 
Q 928 2841 928 2578 
Q 928 2378 1081 2264 
Q 1234 2150 1697 2047 
L 1894 2003 
Q 2506 1872 2764 1633 
Q 3022 1394 3022 966 
Q 3022 478 2636 193 
Q 2250 -91 1575 -91 
Q 1294 -91 989 -36 
Q 684 19 347 128 
L 347 722 
Q 666 556 975 473 
Q 1284 391 1588 391 
Q 1994 391 2212 530 
Q 2431 669 2431 922 
Q 2431 1156 2273 1281 
Q 2116 1406 1581 1522 
L 1381 1569 
Q 847 1681 609 1914 
Q 372 2147 372 2553 
Q 372 3047 722 3315 
Q 1072 3584 1716 3584 
Q 2034 3584 2315 3537 
Q 2597 3491 2834 3397 
z
" id="DejaVuSans-73" transform="scale(0.015625)"/>
       <path d="M 1959 3097 
Q 1497 3097 1228 2736 
Q 959 2375 959 1747 
Q 959 1119 1226 758 
Q 1494 397 1959 397 
Q 2419 397 2687 759 
Q 2956 1122 2956 1747 
Q 2956 2369 2687 2733 
Q 2419 3097 1959 3097 
z
M 1959 3584 
Q 2709 3584 3137 3096 
Q 3566 2609 3566 1747 
Q 3566 888 3137 398 
Q 2709 -91 1959 -91 
Q 1206 -91 779 398 
Q 353 888 353 1747 
Q 353 2609 779 3096 
Q 1206 3584 1959 3584 
z
" id="DejaVuSans-6f" transform="scale(0.015625)"/>
       <path id="DejaVuSans-20" transform="scale(0.015625)"/>
       <path d="M 628 4666 
L 1478 4666 
L 3547 763 
L 3547 4666 
L 4159 4666 
L 4159 0 
L 3309 0 
L 1241 3903 
L 1241 0 
L 628 0 
L 628 4666 
z
" id="DejaVuSans-4e" transform="scale(0.015625)"/>
       <path d="M 544 1381 
L 544 3500 
L 1119 3500 
L 1119 1403 
Q 1119 906 1312 657 
Q 1506 409 1894 409 
Q 2359 409 2629 706 
Q 2900 1003 2900 1516 
L 2900 3500 
L 3475 3500 
L 3475 0 
L 2900 0 
L 2900 538 
Q 2691 219 2414 64 
Q 2138 -91 1772 -91 
Q 1169 -91 856 284 
Q 544 659 544 1381 
z
M 1991 3584 
L 1991 3584 
z
" id="DejaVuSans-75" transform="scale(0.015625)"/>
       <path d="M 3116 1747 
Q 3116 2381 2855 2742 
Q 2594 3103 2138 3103 
Q 1681 3103 1420 2742 
Q 1159 2381 1159 1747 
Q 1159 1113 1420 752 
Q 1681 391 2138 391 
Q 2594 391 2855 752 
Q 3116 1113 3116 1747 
z
M 1159 2969 
Q 1341 3281 1617 3432 
Q 1894 3584 2278 3584 
Q 2916 3584 3314 3078 
Q 3713 2572 3713 1747 
Q 3713 922 3314 415 
Q 2916 -91 2278 -91 
Q 1894 -91 1617 61 
Q 1341 213 1159 525 
L 1159 0 
L 581 0 
L 581 4863 
L 1159 4863 
L 1159 2969 
z
" id="DejaVuSans-62" transform="scale(0.015625)"/>
       <path d="M 2631 2963 
Q 2534 3019 2420 3045 
Q 2306 3072 2169 3072 
Q 1681 3072 1420 2755 
Q 1159 2438 1159 1844 
L 1159 0 
L 581 0 
L 581 3500 
L 1159 3500 
L 1159 2956 
Q 1341 3275 1631 3429 
Q 1922 3584 2338 3584 
Q 2397 3584 2469 3576 
Q 2541 3569 2628 3553 
L 2631 2963 
z
" id="DejaVuSans-72" transform="scale(0.015625)"/>
      </defs>
      <use xlink:href="#DejaVuSans-44"/>
      <use x="77.001953" xlink:href="#DejaVuSans-69"/>
      <use x="104.785156" xlink:href="#DejaVuSans-6d"/>
      <use x="202.197266" xlink:href="#DejaVuSans-65"/>
      <use x="263.720703" xlink:href="#DejaVuSans-6e"/>
      <use x="327.099609" xlink:href="#DejaVuSans-73"/>
      <use x="379.199219" xlink:href="#DejaVuSans-69"/>
      <use x="406.982422" xlink:href="#DejaVuSans-6f"/>
      <use x="468.164062" xlink:href="#DejaVuSans-6e"/>
      <use x="531.542969" xlink:href="#DejaVuSans-20"/>
      <use x="563.330078" xlink:href="#DejaVuSans-4e"/>
      <use x="638.134766" xlink:href="#DejaVuSans-75"/>
      <use x="701.513672" xlink:href="#DejaVuSans-6d"/>
      <use x="798.925781" xlink:href="#DejaVuSans-62"/>
      <use x="862.402344" xlink:href="#DejaVuSans-65"/>
      <use x="923.925781" xlink:href="#DejaVuSans-72"/>
     </g>
    </g>
   </g>
   <g id="matplotlib.axis_2">
    <g id="ytick_1">
     <g id="line2d_13">
      <path clip-path="url(#p50ec59b4cb)" d="M 59.690625 266.288979 
L 416.810625 266.288979 
" style="fill:none;stroke:#b0b0b0;stroke-linecap:square;stroke-width:0.8;"/>
     </g>
     <g id="line2d_14">
      <defs>
       <path d="M 0 0 
L -3.5 0 
" id="m110f1f0492" style="stroke:#000000;stroke-width:0.8;"/>
      </defs>
      <g>
       <use style="stroke:#000000;stroke-width:0.8;" x="59.690625" xlink:href="#m110f1f0492" y="266.288979"/>
      </g>
     </g>
     <g id="text_8">
      <!-- 0 -->
      <g transform="translate(46.328125 270.088198)scale(0.1 -0.1)">
       <defs>
        <path d="M 2034 4250 
Q 1547 4250 1301 3770 
Q 1056 3291 1056 2328 
Q 1056 1369 1301 889 
Q 1547 409 2034 409 
Q 2525 409 2770 889 
Q 3016 1369 3016 2328 
Q 3016 3291 2770 3770 
Q 2525 4250 2034 4250 
z
M 2034 4750 
Q 2819 4750 3233 4129 
Q 3647 3509 3647 2328 
Q 3647 1150 3233 529 
Q 2819 -91 2034 -91 
Q 1250 -91 836 529 
Q 422 1150 422 2328 
Q 422 3509 836 4129 
Q 1250 4750 2034 4750 
z
" id="DejaVuSans-30" transform="scale(0.015625)"/>
       </defs>
       <use xlink:href="#DejaVuSans-30"/>
      </g>
     </g>
    </g>
    <g id="ytick_2">
     <g id="line2d_15">
      <path clip-path="url(#p50ec59b4cb)" d="M 59.690625 221.699376 
L 416.810625 221.699376 
" style="fill:none;stroke:#b0b0b0;stroke-linecap:square;stroke-width:0.8;"/>
     </g>
     <g id="line2d_16">
      <g>
       <use style="stroke:#000000;stroke-width:0.8;" x="59.690625" xlink:href="#m110f1f0492" y="221.699376"/>
      </g>
     </g>
     <g id="text_9">
      <!-- 2000 -->
      <g transform="translate(27.240625 225.498595)scale(0.1 -0.1)">
       <use xlink:href="#DejaVuSans-32"/>
       <use x="63.623047" xlink:href="#DejaVuSans-30"/>
       <use x="127.246094" xlink:href="#DejaVuSans-30"/>
       <use x="190.869141" xlink:href="#DejaVuSans-30"/>
      </g>
     </g>
    </g>
    <g id="ytick_3">
     <g id="line2d_17">
      <path clip-path="url(#p50ec59b4cb)" d="M 59.690625 177.109773 
L 416.810625 177.109773 
" style="fill:none;stroke:#b0b0b0;stroke-linecap:square;stroke-width:0.8;"/>
     </g>
     <g id="line2d_18">
      <g>
       <use style="stroke:#000000;stroke-width:0.8;" x="59.690625" xlink:href="#m110f1f0492" y="177.109773"/>
      </g>
     </g>
     <g id="text_10">
      <!-- 4000 -->
      <g transform="translate(27.240625 180.908992)scale(0.1 -0.1)">
       <use xlink:href="#DejaVuSans-34"/>
       <use x="63.623047" xlink:href="#DejaVuSans-30"/>
       <use x="127.246094" xlink:href="#DejaVuSans-30"/>
       <use x="190.869141" xlink:href="#DejaVuSans-30"/>
      </g>
     </g>
    </g>
    <g id="ytick_4">
     <g id="line2d_19">
      <path clip-path="url(#p50ec59b4cb)" d="M 59.690625 132.52017 
L 416.810625 132.52017 
" style="fill:none;stroke:#b0b0b0;stroke-linecap:square;stroke-width:0.8;"/>
     </g>
     <g id="line2d_20">
      <g>
       <use style="stroke:#000000;stroke-width:0.8;" x="59.690625" xlink:href="#m110f1f0492" y="132.52017"/>
      </g>
     </g>
     <g id="text_11">
      <!-- 6000 -->
      <g transform="translate(27.240625 136.319389)scale(0.1 -0.1)">
       <use xlink:href="#DejaVuSans-36"/>
       <use x="63.623047" xlink:href="#DejaVuSans-30"/>
       <use x="127.246094" xlink:href="#DejaVuSans-30"/>
       <use x="190.869141" xlink:href="#DejaVuSans-30"/>
      </g>
     </g>
    </g>
    <g id="ytick_5">
     <g id="line2d_21">
      <path clip-path="url(#p50ec59b4cb)" d="M 59.690625 87.930567 
L 416.810625 87.930567 
" style="fill:none;stroke:#b0b0b0;stroke-linecap:square;stroke-width:0.8;"/>
     </g>
     <g id="line2d_22">
      <g>
       <use style="stroke:#000000;stroke-width:0.8;" x="59.690625" xlink:href="#m110f1f0492" y="87.930567"/>
      </g>
     </g>
     <g id="text_12">
      <!-- 8000 -->
      <g transform="translate(27.240625 91.729785)scale(0.1 -0.1)">
       <defs>
        <path d="M 2034 2216 
Q 1584 2216 1326 1975 
Q 1069 1734 1069 1313 
Q 1069 891 1326 650 
Q 1584 409 2034 409 
Q 2484 409 2743 651 
Q 3003 894 3003 1313 
Q 3003 1734 2745 1975 
Q 2488 2216 2034 2216 
z
M 1403 2484 
Q 997 2584 770 2862 
Q 544 3141 544 3541 
Q 544 4100 942 4425 
Q 1341 4750 2034 4750 
Q 2731 4750 3128 4425 
Q 3525 4100 3525 3541 
Q 3525 3141 3298 2862 
Q 3072 2584 2669 2484 
Q 3125 2378 3379 2068 
Q 3634 1759 3634 1313 
Q 3634 634 3220 271 
Q 2806 -91 2034 -91 
Q 1263 -91 848 271 
Q 434 634 434 1313 
Q 434 1759 690 2068 
Q 947 2378 1403 2484 
z
M 1172 3481 
Q 1172 3119 1398 2916 
Q 1625 2713 2034 2713 
Q 2441 2713 2670 2916 
Q 2900 3119 2900 3481 
Q 2900 3844 2670 4047 
Q 2441 4250 2034 4250 
Q 1625 4250 1398 4047 
Q 1172 3844 1172 3481 
z
" id="DejaVuSans-38" transform="scale(0.015625)"/>
       </defs>
       <use xlink:href="#DejaVuSans-38"/>
       <use x="63.623047" xlink:href="#DejaVuSans-30"/>
       <use x="127.246094" xlink:href="#DejaVuSans-30"/>
       <use x="190.869141" xlink:href="#DejaVuSans-30"/>
      </g>
     </g>
    </g>
    <g id="ytick_6">
     <g id="line2d_23">
      <path clip-path="url(#p50ec59b4cb)" d="M 59.690625 43.340964 
L 416.810625 43.340964 
" style="fill:none;stroke:#b0b0b0;stroke-linecap:square;stroke-width:0.8;"/>
     </g>
     <g id="line2d_24">
      <g>
       <use style="stroke:#000000;stroke-width:0.8;" x="59.690625" xlink:href="#m110f1f0492" y="43.340964"/>
      </g>
     </g>
     <g id="text_13">
      <!-- 10000 -->
      <g transform="translate(20.878125 47.140182)scale(0.1 -0.1)">
       <use xlink:href="#DejaVuSans-31"/>
       <use x="63.623047" xlink:href="#DejaVuSans-30"/>
       <use x="127.246094" xlink:href="#DejaVuSans-30"/>
       <use x="190.869141" xlink:href="#DejaVuSans-30"/>
       <use x="254.492188" xlink:href="#DejaVuSans-30"/>
      </g>
     </g>
    </g>
    <g id="text_14">
     <!-- Value -->
     <g transform="translate(14.798438 169.105375)rotate(-90)scale(0.1 -0.1)">
      <defs>
       <path d="M 1831 0 
L 50 4666 
L 709 4666 
L 2188 738 
L 3669 4666 
L 4325 4666 
L 2547 0 
L 1831 0 
z
" id="DejaVuSans-56" transform="scale(0.015625)"/>
       <path d="M 2194 1759 
Q 1497 1759 1228 1600 
Q 959 1441 959 1056 
Q 959 750 1161 570 
Q 1363 391 1709 391 
Q 2188 391 2477 730 
Q 2766 1069 2766 1631 
L 2766 1759 
L 2194 1759 
z
M 3341 1997 
L 3341 0 
L 2766 0 
L 2766 531 
Q 2569 213 2275 61 
Q 1981 -91 1556 -91 
Q 1019 -91 701 211 
Q 384 513 384 1019 
Q 384 1609 779 1909 
Q 1175 2209 1959 2209 
L 2766 2209 
L 2766 2266 
Q 2766 2663 2505 2880 
Q 2244 3097 1772 3097 
Q 1472 3097 1187 3025 
Q 903 2953 641 2809 
L 641 3341 
Q 956 3463 1253 3523 
Q 1550 3584 1831 3584 
Q 2591 3584 2966 3190 
Q 3341 2797 3341 1997 
z
" id="DejaVuSans-61" transform="scale(0.015625)"/>
       <path d="M 603 4863 
L 1178 4863 
L 1178 0 
L 603 0 
L 603 4863 
z
" id="DejaVuSans-6c" transform="scale(0.015625)"/>
      </defs>
      <use xlink:href="#DejaVuSans-56"/>
      <use x="60.658203" xlink:href="#DejaVuSans-61"/>
      <use x="121.9375" xlink:href="#DejaVuSans-6c"/>
      <use x="149.720703" xlink:href="#DejaVuSans-75"/>
      <use x="213.099609" xlink:href="#DejaVuSans-65"/>
     </g>
    </g>
   </g>
   <g id="line2d_25">
    <path clip-path="url(#p50ec59b4cb)" d="M 75.923352 265.613042 
L 140.854261 210.968276 
L 205.78517 261.639127 
L 270.71608 262.104038 
L 335.646989 261.42401 
L 400.577898 200.108619 
" style="fill:none;stroke:#ff0000;stroke-linecap:square;stroke-width:2;"/>
   </g>
   <g id="line2d_26">
    <path clip-path="url(#p50ec59b4cb)" d="M 75.923352 265.613042 
L 140.854261 210.968276 
L 205.78517 261.639127 
L 270.71608 262.104038 
L 335.646989 261.42401 
L 400.577898 200.108619 
" style="fill:none;stroke:#ff0000;stroke-linecap:square;stroke-width:2;"/>
   </g>
   <g id="line2d_27">
    <path clip-path="url(#p50ec59b4cb)" d="M 75.923352 113.112839 
L 140.854261 259.344141 
L 205.78517 261.093961 
L 270.71608 250.796689 
L 335.646989 265.794566 
L 400.577898 256.985611 
" style="fill:none;stroke:#ff0000;stroke-linecap:square;stroke-width:2;"/>
   </g>
   <g id="line2d_28">
    <path clip-path="url(#p50ec59b4cb)" d="M 75.923352 257.368571 
L 140.854261 259.291129 
L 205.78517 99.794113 
L 270.71608 255.16299 
L 335.646989 266.229793 
L 400.577898 265.366098 
" style="fill:none;stroke:#ff0000;stroke-linecap:square;stroke-width:2;"/>
   </g>
   <g id="line2d_29">
    <path clip-path="url(#p50ec59b4cb)" d="M 75.923352 216.292873 
L 140.854261 274.393912 
L 205.78517 265.251427 
L 270.71608 223.306909 
L 335.646989 155.947138 
L 400.577898 249.158079 
" style="fill:none;stroke:#ff0000;stroke-linecap:square;stroke-width:2;"/>
   </g>
   <g id="line2d_30">
    <path clip-path="url(#p50ec59b4cb)" d="M 75.923352 269.858682 
L 140.854261 269.676916 
L 205.78517 61.488986 
L 270.71608 257.861303 
L 335.646989 266.61679 
L 400.577898 261.883001 
" style="fill:none;stroke:#ff0000;stroke-linecap:square;stroke-width:2;"/>
   </g>
   <g id="line2d_31">
    <path clip-path="url(#p50ec59b4cb)" d="M 75.923352 242.926774 
L 140.854261 269.42815 
L 205.78517 108.252206 
L 270.71608 258.870467 
L 335.646989 259.419739 
L 400.577898 260.671823 
" style="fill:none;stroke:#ff0000;stroke-linecap:square;stroke-width:2;"/>
   </g>
   <g id="line2d_32">
    <path clip-path="url(#p50ec59b4cb)" d="M 75.923352 258.147954 
L 140.854261 259.291129 
L 205.78517 88.854018 
L 270.71608 268.738603 
L 335.646989 266.229793 
L 400.577898 249.668411 
" style="fill:none;stroke:#ff0000;stroke-linecap:square;stroke-width:2;"/>
   </g>
   <g id="line2d_33">
    <path clip-path="url(#p50ec59b4cb)" d="M 75.923352 266.841182 
L 140.854261 230.061354 
L 205.78517 243.992049 
L 270.71608 250.791796 
L 335.646989 262.694013 
L 400.577898 169.695569 
" style="fill:none;stroke:#ff0000;stroke-linecap:square;stroke-width:2;"/>
   </g>
   <g id="line2d_34">
    <path clip-path="url(#p50ec59b4cb)" d="M 75.923352 185.888763 
L 140.854261 245.999288 
L 205.78517 257.35995 
L 270.71608 226.738416 
L 335.646989 226.392164 
L 400.577898 258.071041 
" style="fill:none;stroke:#ff0000;stroke-linecap:square;stroke-width:2;"/>
   </g>
   <g id="line2d_35">
    <path clip-path="url(#p50ec59b4cb)" d="M 75.923352 269.879331 
L 140.854261 272.410943 
L 205.78517 45.641961 
L 270.71608 269.467326 
L 335.646989 266.605343 
L 400.577898 267.75493 
" style="fill:none;stroke:#ff0000;stroke-linecap:square;stroke-width:2;"/>
   </g>
   <g id="line2d_36">
    <path clip-path="url(#p50ec59b4cb)" d="M 75.923352 260.929261 
L 140.854261 244.42425 
L 205.78517 240.889729 
L 270.71608 147.194729 
L 335.646989 251.889615 
L 400.577898 254.142704 
" style="fill:none;stroke:#ff0000;stroke-linecap:square;stroke-width:2;"/>
   </g>
   <g id="line2d_37">
    <path clip-path="url(#p50ec59b4cb)" d="M 75.923352 269.879334 
L 140.854261 165.647216 
L 205.78517 265.298586 
L 270.71608 252.375369 
L 335.646989 182.122699 
L 400.577898 253.983939 
" style="fill:none;stroke:#ff0000;stroke-linecap:square;stroke-width:2;"/>
   </g>
   <g id="line2d_38">
    <path clip-path="url(#p50ec59b4cb)" d="M 75.923352 149.982565 
L 140.854261 272.224796 
L 205.78517 266.926611 
L 270.71608 252.469033 
L 335.646989 230.300431 
L 400.577898 260.188965 
" style="fill:none;stroke:#ff0000;stroke-linecap:square;stroke-width:2;"/>
   </g>
   <g id="line2d_39">
    <path clip-path="url(#p50ec59b4cb)" d="M 75.923352 258.745432 
L 140.854261 273.53561 
L 205.78517 247.520286 
L 270.71608 267.124693 
L 335.646989 259.774339 
L 400.577898 115.812477 
" style="fill:none;stroke:#ff0000;stroke-linecap:square;stroke-width:2;"/>
   </g>
   <g id="line2d_40">
    <path clip-path="url(#p50ec59b4cb)" d="M 75.923352 256.876092 
L 140.854261 194.272956 
L 205.78517 255.703426 
L 270.71608 255.610277 
L 335.646989 236.576147 
L 400.577898 259.681003 
" style="fill:none;stroke:#ff0000;stroke-linecap:square;stroke-width:2;"/>
   </g>
   <g id="line2d_41">
    <path clip-path="url(#p50ec59b4cb)" d="M 75.923352 269.879253 
L 140.854261 151.550007 
L 205.78517 266.922627 
L 270.71608 203.216238 
L 335.646989 236.972161 
L 400.577898 263.717932 
" style="fill:none;stroke:#ff0000;stroke-linecap:square;stroke-width:2;"/>
   </g>
   <g id="line2d_42">
    <path clip-path="url(#p50ec59b4cb)" d="M 75.923352 269.210508 
L 140.854261 241.079883 
L 205.78517 221.963488 
L 270.71608 269.084926 
L 335.646989 206.433526 
L 400.577898 259.187526 
" style="fill:none;stroke:#ff0000;stroke-linecap:square;stroke-width:2;"/>
   </g>
   <g id="line2d_43">
    <path clip-path="url(#p50ec59b4cb)" d="M 75.923352 198.148214 
L 140.854261 241.231598 
L 205.78517 264.733841 
L 270.71608 211.635622 
L 335.646989 247.862337 
L 400.577898 238.846596 
" style="fill:none;stroke:#ff0000;stroke-linecap:square;stroke-width:2;"/>
   </g>
   <g id="line2d_44">
    <path clip-path="url(#p50ec59b4cb)" d="M 75.923352 166.402878 
L 140.854261 238.403389 
L 205.78517 264.170753 
L 270.71608 228.771964 
L 335.646989 264.71889 
L 400.577898 267.044683 
" style="fill:none;stroke:#ff0000;stroke-linecap:square;stroke-width:2;"/>
   </g>
   <g id="line2d_45">
    <path clip-path="url(#p50ec59b4cb)" d="M 75.923352 269.879334 
L 140.854261 275.659238 
L 205.78517 266.873159 
L 270.71608 260.060911 
L 335.646989 67.952586 
L 400.577898 232.581399 
" style="fill:none;stroke:#ff0000;stroke-linecap:square;stroke-width:2;"/>
   </g>
   <g id="line2d_46">
    <path clip-path="url(#p50ec59b4cb)" d="M 75.923352 155.694605 
L 140.854261 260.556524 
L 205.78517 260.475014 
L 270.71608 269.467326 
L 335.646989 217.28616 
L 400.577898 247.729067 
" style="fill:none;stroke:#ff0000;stroke-linecap:square;stroke-width:2;"/>
   </g>
   <g id="line2d_47">
    <path clip-path="url(#p50ec59b4cb)" d="M 75.923352 255.273475 
L 140.854261 244.42425 
L 205.78517 266.780693 
L 270.71608 123.560142 
L 335.646989 258.493743 
L 400.577898 255.122427 
" style="fill:none;stroke:#ff0000;stroke-linecap:square;stroke-width:2;"/>
   </g>
   <g id="line2d_48">
    <path clip-path="url(#p50ec59b4cb)" d="M 75.923352 258.970461 
L 140.854261 269.605746 
L 205.78517 150.646616 
L 270.71608 261.920038 
L 335.646989 228.756385 
L 400.577898 248.936561 
" style="fill:none;stroke:#ff0000;stroke-linecap:square;stroke-width:2;"/>
   </g>
   <g id="line2d_49">
    <path clip-path="url(#p50ec59b4cb)" d="M 75.923352 193.692445 
L 140.854261 242.044886 
L 205.78517 263.24421 
L 270.71608 262.122688 
L 335.646989 208.362818 
L 400.577898 233.645261 
" style="fill:none;stroke:#ff0000;stroke-linecap:square;stroke-width:2;"/>
   </g>
   <g id="line2d_50">
    <path clip-path="url(#p50ec59b4cb)" d="M 75.923352 269.879334 
L 140.854261 185.189831 
L 205.78517 235.162829 
L 270.71608 216.056425 
L 335.646989 224.159323 
L 400.577898 260.90014 
" style="fill:none;stroke:#ff0000;stroke-linecap:square;stroke-width:2;"/>
   </g>
   <g id="line2d_51">
    <path clip-path="url(#p50ec59b4cb)" d="M 75.923352 267.426238 
L 140.854261 276.047037 
L 205.78517 266.447311 
L 270.71608 72.722144 
L 335.646989 256.7718 
L 400.577898 253.673458 
" style="fill:none;stroke:#ff0000;stroke-linecap:square;stroke-width:2;"/>
   </g>
   <g id="line2d_52">
    <path clip-path="url(#p50ec59b4cb)" d="M 75.923352 247.991889 
L 140.854261 119.22524 
L 205.78517 259.578411 
L 270.71608 258.238518 
L 335.646989 266.525448 
L 400.577898 255.448941 
" style="fill:none;stroke:#ff0000;stroke-linecap:square;stroke-width:2;"/>
   </g>
   <g id="line2d_53">
    <path clip-path="url(#p50ec59b4cb)" d="M 75.923352 255.559818 
L 140.854261 244.42425 
L 205.78517 240.889729 
L 270.71608 140.667604 
L 335.646989 259.293098 
L 400.577898 255.241011 
" style="fill:none;stroke:#ff0000;stroke-linecap:square;stroke-width:2;"/>
   </g>
   <g id="line2d_54">
    <path clip-path="url(#p50ec59b4cb)" d="M 75.923352 134.239275 
L 140.854261 262.899397 
L 205.78517 263.252297 
L 270.71608 262.122688 
L 335.646989 234.549257 
L 400.577898 263.002698 
" style="fill:none;stroke:#ff0000;stroke-linecap:square;stroke-width:2;"/>
   </g>
   <g id="line2d_55">
    <path clip-path="url(#p50ec59b4cb)" d="M 75.923352 269.558295 
L 140.854261 268.387339 
L 205.78517 250.227058 
L 270.71608 254.91481 
L 335.646989 123.736549 
L 400.577898 211.725106 
" style="fill:none;stroke:#ff0000;stroke-linecap:square;stroke-width:2;"/>
   </g>
   <g id="line2d_56">
    <path clip-path="url(#p50ec59b4cb)" d="M 75.923352 201.609712 
L 140.854261 252.441028 
L 205.78517 208.01864 
L 270.71608 269.467326 
L 335.646989 237.754397 
L 400.577898 263.381671 
" style="fill:none;stroke:#ff0000;stroke-linecap:square;stroke-width:2;"/>
   </g>
   <g id="line2d_57">
    <path clip-path="url(#p50ec59b4cb)" d="M 75.923352 245.712604 
L 140.854261 123.541982 
L 205.78517 260.462195 
L 270.71608 267.164099 
L 335.646989 250.966915 
L 400.577898 256.502044 
" style="fill:none;stroke:#ff0000;stroke-linecap:square;stroke-width:2;"/>
   </g>
   <g id="line2d_58">
    <path clip-path="url(#p50ec59b4cb)" d="M 75.923352 243.716343 
L 140.854261 276.334125 
L 205.78517 75.511766 
L 270.71608 269.346054 
L 335.646989 266.62022 
L 400.577898 268.055741 
" style="fill:none;stroke:#ff0000;stroke-linecap:square;stroke-width:2;"/>
   </g>
   <g id="line2d_59">
    <path clip-path="url(#p50ec59b4cb)" d="M 75.923352 268.382319 
L 140.854261 265.872146 
L 205.78517 261.950535 
L 270.71608 116.229749 
L 335.646989 264.501543 
L 400.577898 263.520093 
" style="fill:none;stroke:#ff0000;stroke-linecap:square;stroke-width:2;"/>
   </g>
   <g id="line2d_60">
    <path clip-path="url(#p50ec59b4cb)" d="M 75.923352 269.210513 
L 140.854261 241.068447 
L 205.78517 245.765017 
L 270.71608 269.084926 
L 335.646989 206.433526 
L 400.577898 175.053395 
" style="fill:none;stroke:#ff0000;stroke-linecap:square;stroke-width:2;"/>
   </g>
   <g id="line2d_61">
    <path clip-path="url(#p50ec59b4cb)" d="M 75.923352 267.969524 
L 140.854261 267.498472 
L 205.78517 265.525289 
L 270.71608 241.982206 
L 335.646989 166.711701 
L 400.577898 229.65632 
" style="fill:none;stroke:#ff0000;stroke-linecap:square;stroke-width:2;"/>
   </g>
   <g id="line2d_62">
    <path clip-path="url(#p50ec59b4cb)" d="M 75.923352 267.397408 
L 140.854261 269.33906 
L 205.78517 263.564499 
L 270.71608 261.41781 
L 335.646989 106.85526 
L 400.577898 231.433341 
" style="fill:none;stroke:#ff0000;stroke-linecap:square;stroke-width:2;"/>
   </g>
   <g id="line2d_63">
    <path clip-path="url(#p50ec59b4cb)" d="M 75.923352 267.397408 
L 140.854261 258.849342 
L 205.78517 266.437352 
L 270.71608 263.140777 
L 335.646989 114.567516 
L 400.577898 245.559205 
" style="fill:none;stroke:#ff0000;stroke-linecap:square;stroke-width:2;"/>
   </g>
   <g id="line2d_64">
    <path clip-path="url(#p50ec59b4cb)" d="M 75.923352 269.225582 
L 140.854261 276.334125 
L 205.78517 266.922772 
L 270.71608 44.543521 
L 335.646989 266.605373 
L 400.577898 268.11283 
" style="fill:none;stroke:#ff0000;stroke-linecap:square;stroke-width:2;"/>
   </g>
   <g id="line2d_65">
    <path clip-path="url(#p50ec59b4cb)" d="M 75.923352 222.914091 
L 140.854261 220.816109 
L 205.78517 259.059804 
L 270.71608 231.474509 
L 335.646989 217.857719 
L 400.577898 256.808397 
" style="fill:none;stroke:#ff0000;stroke-linecap:square;stroke-width:2;"/>
   </g>
   <g id="line2d_66">
    <path clip-path="url(#p50ec59b4cb)" d="M 75.923352 266.413506 
L 140.854261 257.450607 
L 205.78517 235.500049 
L 270.71608 260.012761 
L 335.646989 130.732832 
L 400.577898 247.040322 
" style="fill:none;stroke:#ff0000;stroke-linecap:square;stroke-width:2;"/>
   </g>
   <g id="line2d_67">
    <path clip-path="url(#p50ec59b4cb)" d="M 75.923352 269.746156 
L 140.854261 276.055611 
L 205.78517 166.833421 
L 270.71608 186.89625 
L 335.646989 263.872222 
L 400.577898 262.162754 
" style="fill:none;stroke:#ff0000;stroke-linecap:square;stroke-width:2;"/>
   </g>
   <g id="line2d_68">
    <path clip-path="url(#p50ec59b4cb)" d="M 75.923352 111.852975 
L 140.854261 272.757701 
L 205.78517 253.247677 
L 270.71608 253.964232 
L 335.646989 263.268978 
L 400.577898 256.520663 
" style="fill:none;stroke:#ff0000;stroke-linecap:square;stroke-width:2;"/>
   </g>
   <g id="line2d_69">
    <path clip-path="url(#p50ec59b4cb)" d="M 75.923352 268.799512 
L 140.854261 226.456785 
L 205.78517 183.150604 
L 270.71608 268.680647 
L 335.646989 263.178618 
L 400.577898 260.737403 
" style="fill:none;stroke:#ff0000;stroke-linecap:square;stroke-width:2;"/>
   </g>
   <g id="line2d_70">
    <path clip-path="url(#p50ec59b4cb)" d="M 75.923352 76.23434 
L 140.854261 268.393551 
L 205.78517 263.030323 
L 270.71608 269.069097 
L 335.646989 263.374398 
L 400.577898 267.107513 
" style="fill:none;stroke:#ff0000;stroke-linecap:square;stroke-width:2;"/>
   </g>
   <g id="line2d_71">
    <path clip-path="url(#p50ec59b4cb)" d="M 75.923352 269.879334 
L 140.854261 270.412661 
L 205.78517 266.4554 
L 270.71608 184.841846 
L 335.646989 196.637227 
L 400.577898 205.473277 
" style="fill:none;stroke:#ff0000;stroke-linecap:square;stroke-width:2;"/>
   </g>
   <g id="line2d_72">
    <path clip-path="url(#p50ec59b4cb)" d="M 75.923352 262.458475 
L 140.854261 272.224796 
L 205.78517 261.678105 
L 270.71608 252.469033 
L 335.646989 180.727576 
L 400.577898 165.396738 
" style="fill:none;stroke:#ff0000;stroke-linecap:square;stroke-width:2;"/>
   </g>
   <g id="line2d_73">
    <path clip-path="url(#p50ec59b4cb)" d="M 75.923352 209.251616 
L 140.854261 275.602535 
L 205.78517 265.251427 
L 270.71608 205.016395 
L 335.646989 180.866641 
L 400.577898 251.211968 
" style="fill:none;stroke:#ff0000;stroke-linecap:square;stroke-width:2;"/>
   </g>
   <g id="line2d_74">
    <path clip-path="url(#p50ec59b4cb)" d="M 75.923352 269.879334 
L 140.854261 274.974703 
L 205.78517 262.701045 
L 270.71608 258.676298 
L 335.646989 69.543063 
L 400.577898 236.720697 
" style="fill:none;stroke:#ff0000;stroke-linecap:square;stroke-width:2;"/>
   </g>
   <g id="line2d_75">
    <path clip-path="url(#p50ec59b4cb)" d="M 75.923352 258.980144 
L 140.854261 260.590247 
L 205.78517 266.926566 
L 270.71608 264.226667 
L 335.646989 246.226848 
L 400.577898 135.116488 
" style="fill:none;stroke:#ff0000;stroke-linecap:square;stroke-width:2;"/>
   </g>
   <g id="line2d_76">
    <path clip-path="url(#p50ec59b4cb)" d="M 75.923352 265.493509 
L 140.854261 274.033789 
L 205.78517 261.519577 
L 270.71608 268.670256 
L 335.646989 263.374398 
L 400.577898 99.904771 
" style="fill:none;stroke:#ff0000;stroke-linecap:square;stroke-width:2;"/>
   </g>
   <g id="line2d_77">
    <path clip-path="url(#p50ec59b4cb)" d="M 75.923352 268.792556 
L 140.854261 214.22939 
L 205.78517 196.851513 
L 270.71608 219.576744 
L 335.646989 265.341013 
L 400.577898 244.742761 
" style="fill:none;stroke:#ff0000;stroke-linecap:square;stroke-width:2;"/>
   </g>
   <g id="line2d_78">
    <path clip-path="url(#p50ec59b4cb)" d="M 75.923352 258.745432 
L 140.854261 270.935993 
L 205.78517 261.305577 
L 270.71608 267.124693 
L 335.646989 250.788615 
L 400.577898 114.479445 
" style="fill:none;stroke:#ff0000;stroke-linecap:square;stroke-width:2;"/>
   </g>
   <g id="line2d_79">
    <path clip-path="url(#p50ec59b4cb)" d="M 75.923352 269.879334 
L 140.854261 276.334125 
L 205.78517 34.414125 
L 270.71608 269.467326 
L 335.646989 266.642129 
L 400.577898 268.119472 
" style="fill:none;stroke:#ff0000;stroke-linecap:square;stroke-width:2;"/>
   </g>
   <g id="line2d_80">
    <path clip-path="url(#p50ec59b4cb)" d="M 75.923352 96.900121 
L 140.854261 271.39762 
L 205.78517 263.198092 
L 270.71608 268.122102 
L 335.646989 264.509643 
L 400.577898 263.643219 
" style="fill:none;stroke:#ff0000;stroke-linecap:square;stroke-width:2;"/>
   </g>
   <g id="line2d_81">
    <path clip-path="url(#p50ec59b4cb)" d="M 75.923352 248.176617 
L 140.854261 260.308791 
L 205.78517 266.926566 
L 270.71608 264.226667 
L 335.646989 248.973469 
L 400.577898 130.087584 
" style="fill:none;stroke:#ff0000;stroke-linecap:square;stroke-width:2;"/>
   </g>
   <g id="line2d_82">
    <path clip-path="url(#p50ec59b4cb)" d="M 75.923352 259.68718 
L 140.854261 231.117403 
L 205.78517 266.842573 
L 270.71608 252.12077 
L 335.646989 262.695027 
L 400.577898 220.903197 
" style="fill:none;stroke:#ff0000;stroke-linecap:square;stroke-width:2;"/>
   </g>
   <g id="line2d_83">
    <path clip-path="url(#p50ec59b4cb)" d="M 75.923352 269.164842 
L 140.854261 268.334327 
L 205.78517 250.227058 
L 270.71608 268.210526 
L 335.646989 143.00371 
L 400.577898 214.583389 
" style="fill:none;stroke:#ff0000;stroke-linecap:square;stroke-width:2;"/>
   </g>
   <g id="line2d_84">
    <path clip-path="url(#p50ec59b4cb)" d="M 75.923352 268.716778 
L 140.854261 276.319511 
L 205.78517 266.926611 
L 270.71608 232.049141 
L 335.646989 231.920786 
L 400.577898 145.401767 
" style="fill:none;stroke:#ff0000;stroke-linecap:square;stroke-width:2;"/>
   </g>
   <g id="line2d_85">
    <path clip-path="url(#p50ec59b4cb)" d="M 75.923352 261.009374 
L 140.854261 136.458622 
L 205.78517 209.472932 
L 270.71608 269.281508 
L 335.646989 251.219659 
L 400.577898 264.822383 
" style="fill:none;stroke:#ff0000;stroke-linecap:square;stroke-width:2;"/>
   </g>
   <g id="line2d_86">
    <path clip-path="url(#p50ec59b4cb)" d="M 75.923352 269.876358 
L 140.854261 276.334125 
L 205.78517 266.922772 
L 270.71608 43.448848 
L 335.646989 266.605373 
L 400.577898 268.109942 
" style="fill:none;stroke:#ff0000;stroke-linecap:square;stroke-width:2;"/>
   </g>
   <g id="line2d_87">
    <path clip-path="url(#p50ec59b4cb)" d="M 75.923352 269.123955 
L 140.854261 241.068447 
L 205.78517 245.765017 
L 270.71608 268.541349 
L 335.646989 261.950467 
L 400.577898 183.289332 
" style="fill:none;stroke:#ff0000;stroke-linecap:square;stroke-width:2;"/>
   </g>
   <g id="line2d_88">
    <path clip-path="url(#p50ec59b4cb)" d="M 75.923352 54.773705 
L 140.854261 276.223565 
L 205.78517 266.923016 
L 270.71608 269.372857 
L 335.646989 266.598062 
L 400.577898 268.112934 
" style="fill:none;stroke:#ff0000;stroke-linecap:square;stroke-width:2;"/>
   </g>
   <g id="line2d_89">
    <path clip-path="url(#p50ec59b4cb)" d="M 75.923352 75.345955 
L 140.854261 276.334125 
L 205.78517 263.282845 
L 270.71608 269.466672 
L 335.646989 263.345414 
L 400.577898 267.630404 
" style="fill:none;stroke:#ff0000;stroke-linecap:square;stroke-width:2;"/>
   </g>
   <g id="line2d_90">
    <path clip-path="url(#p50ec59b4cb)" d="M 75.923352 177.086978 
L 140.854261 262.012345 
L 205.78517 266.820222 
L 270.71608 235.630781 
L 335.646989 242.084614 
L 400.577898 262.612954 
" style="fill:none;stroke:#ff0000;stroke-linecap:square;stroke-width:2;"/>
   </g>
   <g id="line2d_91">
    <path clip-path="url(#p50ec59b4cb)" d="M 75.923352 265.613042 
L 140.854261 211.56538 
L 205.78517 261.639127 
L 270.71608 240.139229 
L 335.646989 253.676061 
L 400.577898 199.30097 
" style="fill:none;stroke:#ff0000;stroke-linecap:square;stroke-width:2;"/>
   </g>
   <g id="line2d_92">
    <path clip-path="url(#p50ec59b4cb)" d="M 75.923352 269.87908 
L 140.854261 276.334125 
L 205.78517 266.920197 
L 270.71608 269.449317 
L 335.646989 45.79312 
L 400.577898 235.356524 
" style="fill:none;stroke:#ff0000;stroke-linecap:square;stroke-width:2;"/>
   </g>
   <g id="line2d_93">
    <path clip-path="url(#p50ec59b4cb)" d="M 75.923352 259.68718 
L 140.854261 184.313048 
L 205.78517 265.985892 
L 270.71608 252.120183 
L 335.646989 262.842816 
L 400.577898 228.340633 
" style="fill:none;stroke:#ff0000;stroke-linecap:square;stroke-width:2;"/>
   </g>
   <g id="line2d_94">
    <path clip-path="url(#p50ec59b4cb)" d="M 75.923352 269.879334 
L 140.854261 69.134832 
L 205.78517 261.558256 
L 270.71608 268.223004 
L 335.646989 259.454411 
L 400.577898 267.025824 
" style="fill:none;stroke:#ff0000;stroke-linecap:square;stroke-width:2;"/>
   </g>
   <g id="line2d_95">
    <path clip-path="url(#p50ec59b4cb)" d="M 75.923352 157.484545 
L 140.854261 260.556524 
L 205.78517 261.134 
L 270.71608 187.970966 
L 335.646989 262.244272 
L 400.577898 267.449094 
" style="fill:none;stroke:#ff0000;stroke-linecap:square;stroke-width:2;"/>
   </g>
   <g id="line2d_96">
    <path clip-path="url(#p50ec59b4cb)" d="M 75.923352 54.558962 
L 140.854261 276.334125 
L 205.78517 266.926611 
L 270.71608 269.466672 
L 335.646989 266.598062 
L 400.577898 268.112934 
" style="fill:none;stroke:#ff0000;stroke-linecap:square;stroke-width:2;"/>
   </g>
   <g id="line2d_97">
    <path clip-path="url(#p50ec59b4cb)" d="M 75.923352 266.188648 
L 140.854261 107.358812 
L 205.78517 260.165218 
L 270.71608 256.829429 
L 335.646989 263.127826 
L 400.577898 251.795106 
" style="fill:none;stroke:#ff0000;stroke-linecap:square;stroke-width:2;"/>
   </g>
   <g id="line2d_98">
    <path clip-path="url(#p50ec59b4cb)" d="M 75.923352 269.318884 
L 140.854261 263.275263 
L 205.78517 178.291671 
L 270.71608 200.413458 
L 335.646989 245.290901 
L 400.577898 250.033574 
" style="fill:none;stroke:#ff0000;stroke-linecap:square;stroke-width:2;"/>
   </g>
   <g id="line2d_99">
    <path clip-path="url(#p50ec59b4cb)" d="M 75.923352 263.575645 
L 140.854261 273.864361 
L 205.78517 246.702952 
L 270.71608 109.924325 
L 335.646989 232.334638 
L 400.577898 262.441894 
" style="fill:none;stroke:#ff0000;stroke-linecap:square;stroke-width:2;"/>
   </g>
   <g id="line2d_100">
    <path clip-path="url(#p50ec59b4cb)" d="M 75.923352 256.507385 
L 140.854261 197.393899 
L 205.78517 255.703426 
L 270.71608 260.974851 
L 335.646989 266.642129 
L 400.577898 265.536614 
" style="fill:none;stroke:#ff0000;stroke-linecap:square;stroke-width:2;"/>
   </g>
   <g id="line2d_101">
    <path clip-path="url(#p50ec59b4cb)" d="M 75.923352 269.879334 
L 140.854261 276.334125 
L 205.78517 34.414125 
L 270.71608 269.467326 
L 335.646989 266.642129 
L 400.577898 268.119472 
" style="fill:none;stroke:#ff0000;stroke-linecap:square;stroke-width:2;"/>
   </g>
   <g id="line2d_102">
    <path clip-path="url(#p50ec59b4cb)" d="M 75.923352 268.382319 
L 140.854261 268.138282 
L 205.78517 230.582632 
L 270.71608 94.520058 
L 335.646989 266.281544 
L 400.577898 267.301344 
" style="fill:none;stroke:#ff0000;stroke-linecap:square;stroke-width:2;"/>
   </g>
   <g id="line2d_103">
    <path clip-path="url(#p50ec59b4cb)" d="M 75.923352 131.340477 
L 140.854261 264.41318 
L 205.78517 239.5032 
L 270.71608 269.467326 
L 335.646989 242.183932 
L 400.577898 263.946766 
" style="fill:none;stroke:#ff0000;stroke-linecap:square;stroke-width:2;"/>
   </g>
   <g id="line2d_104">
    <path clip-path="url(#p50ec59b4cb)" d="M 75.923352 96.900121 
L 140.854261 271.373694 
L 205.78517 265.549139 
L 270.71608 268.122102 
L 335.646989 265.37325 
L 400.577898 244.868778 
" style="fill:none;stroke:#ff0000;stroke-linecap:square;stroke-width:2;"/>
   </g>
   <g id="line2d_105">
    <path clip-path="url(#p50ec59b4cb)" d="M 75.923352 268.803672 
L 140.854261 226.340886 
L 205.78517 138.41824 
L 270.71608 266.976708 
L 335.646989 228.026024 
L 400.577898 262.118557 
" style="fill:none;stroke:#ff0000;stroke-linecap:square;stroke-width:2;"/>
   </g>
   <g id="line2d_106">
    <path clip-path="url(#p50ec59b4cb)" d="M 75.923352 269.879334 
L 140.854261 165.860128 
L 205.78517 264.559285 
L 270.71608 269.325866 
L 335.646989 237.544116 
L 400.577898 263.802782 
" style="fill:none;stroke:#ff0000;stroke-linecap:square;stroke-width:2;"/>
   </g>
   <g id="line2d_107">
    <path clip-path="url(#p50ec59b4cb)" d="M 75.923352 257.535322 
L 140.854261 82.934237 
L 205.78517 262.477418 
L 270.71608 264.897629 
L 335.646989 266.615082 
L 400.577898 268.110311 
" style="fill:none;stroke:#ff0000;stroke-linecap:square;stroke-width:2;"/>
   </g>
   <g id="line2d_108">
    <path clip-path="url(#p50ec59b4cb)" d="M 75.923352 269.865899 
L 140.854261 276.334125 
L 205.78517 266.926611 
L 270.71608 269.463964 
L 335.646989 266.642129 
L 400.577898 71.950695 
" style="fill:none;stroke:#ff0000;stroke-linecap:square;stroke-width:2;"/>
   </g>
   <g id="line2d_109">
    <path clip-path="url(#p50ec59b4cb)" d="M 75.923352 269.879334 
L 140.854261 185.835922 
L 205.78517 262.119617 
L 270.71608 269.261557 
L 335.646989 262.667045 
L 400.577898 161.86334 
" style="fill:none;stroke:#ff0000;stroke-linecap:square;stroke-width:2;"/>
   </g>
   <g id="line2d_110">
    <path clip-path="url(#p50ec59b4cb)" d="M 75.923352 258.970461 
L 140.854261 259.116029 
L 205.78517 151.490905 
L 270.71608 261.920038 
L 335.646989 236.589443 
L 400.577898 263.661156 
" style="fill:none;stroke:#ff0000;stroke-linecap:square;stroke-width:2;"/>
   </g>
   <g id="line2d_111">
    <path clip-path="url(#p50ec59b4cb)" d="M 75.923352 269.879324 
L 140.854261 54.371838 
L 205.78517 266.922773 
L 270.71608 269.413563 
L 335.646989 266.605234 
L 400.577898 267.945326 
" style="fill:none;stroke:#ff0000;stroke-linecap:square;stroke-width:2;"/>
   </g>
   <g id="line2d_112">
    <path clip-path="url(#p50ec59b4cb)" d="M 75.923352 223.517915 
L 140.854261 267.411547 
L 205.78517 202.241521 
L 270.71608 181.165182 
L 335.646989 257.177457 
L 400.577898 264.628566 
" style="fill:none;stroke:#ff0000;stroke-linecap:square;stroke-width:2;"/>
   </g>
   <g id="line2d_113">
    <path clip-path="url(#p50ec59b4cb)" d="M 75.923352 166.743584 
L 140.854261 238.437089 
L 205.78517 264.17066 
L 270.71608 228.771964 
L 335.646989 264.71889 
L 400.577898 256.7258 
" style="fill:none;stroke:#ff0000;stroke-linecap:square;stroke-width:2;"/>
   </g>
   <g id="line2d_114">
    <path clip-path="url(#p50ec59b4cb)" d="M 75.923352 228.481802 
L 140.854261 276.263365 
L 205.78517 227.23122 
L 270.71608 170.255319 
L 335.646989 266.614364 
L 400.577898 267.930687 
" style="fill:none;stroke:#ff0000;stroke-linecap:square;stroke-width:2;"/>
   </g>
   <g id="line2d_115">
    <path clip-path="url(#p50ec59b4cb)" d="M 75.923352 268.792556 
L 140.854261 225.457267 
L 205.78517 193.435421 
L 270.71608 198.248295 
L 335.646989 266.383974 
L 400.577898 265.790835 
" style="fill:none;stroke:#ff0000;stroke-linecap:square;stroke-width:2;"/>
   </g>
   <g id="line2d_116">
    <path clip-path="url(#p50ec59b4cb)" d="M 75.923352 249.442916 
L 140.854261 107.358812 
L 205.78517 260.165218 
L 270.71608 258.185849 
L 335.646989 266.525448 
L 400.577898 255.448941 
" style="fill:none;stroke:#ff0000;stroke-linecap:square;stroke-width:2;"/>
   </g>
   <g id="line2d_117">
    <path clip-path="url(#p50ec59b4cb)" d="M 75.923352 229.055556 
L 140.854261 267.445144 
L 205.78517 227.23122 
L 270.71608 170.255319 
L 335.646989 266.614364 
L 400.577898 266.82763 
" style="fill:none;stroke:#ff0000;stroke-linecap:square;stroke-width:2;"/>
   </g>
   <g id="line2d_118">
    <path clip-path="url(#p50ec59b4cb)" d="M 75.923352 263.568178 
L 140.854261 273.571555 
L 205.78517 255.049082 
L 270.71608 79.141918 
L 335.646989 257.131085 
L 400.577898 266.708508 
" style="fill:none;stroke:#ff0000;stroke-linecap:square;stroke-width:2;"/>
   </g>
   <g id="line2d_119">
    <path clip-path="url(#p50ec59b4cb)" d="M 75.923352 269.309316 
L 140.854261 267.359375 
L 205.78517 266.926611 
L 270.71608 269.303308 
L 335.646989 94.51373 
L 400.577898 224.318008 
" style="fill:none;stroke:#ff0000;stroke-linecap:square;stroke-width:2;"/>
   </g>
   <g id="line2d_120">
    <path clip-path="url(#p50ec59b4cb)" d="M 75.923352 258.970461 
L 140.854261 258.565612 
L 205.78517 119.880172 
L 270.71608 266.820387 
L 335.646989 259.476213 
L 400.577898 267.056408 
" style="fill:none;stroke:#ff0000;stroke-linecap:square;stroke-width:2;"/>
   </g>
   <g id="line2d_121">
    <path clip-path="url(#p50ec59b4cb)" d="M 75.923352 269.558295 
L 140.854261 268.387339 
L 205.78517 255.573953 
L 270.71608 254.463075 
L 335.646989 119.301168 
L 400.577898 211.067117 
" style="fill:none;stroke:#ff0000;stroke-linecap:square;stroke-width:2;"/>
   </g>
   <g id="line2d_122">
    <path clip-path="url(#p50ec59b4cb)" d="M 75.923352 261.751314 
L 140.854261 276.291232 
L 205.78517 266.926611 
L 270.71608 268.617186 
L 335.646989 265.498436 
L 400.577898 84.362667 
" style="fill:none;stroke:#ff0000;stroke-linecap:square;stroke-width:2;"/>
   </g>
   <g id="line2d_123">
    <path clip-path="url(#p50ec59b4cb)" d="M 75.923352 269.863525 
L 140.854261 276.298021 
L 205.78517 266.920197 
L 270.71608 264.987169 
L 335.646989 51.234185 
L 400.577898 236.163706 
" style="fill:none;stroke:#ff0000;stroke-linecap:square;stroke-width:2;"/>
   </g>
   <g id="line2d_124">
    <path clip-path="url(#p50ec59b4cb)" d="M 75.923352 131.340477 
L 140.854261 276.334125 
L 205.78517 264.221933 
L 270.71608 269.467326 
L 335.646989 242.183932 
L 400.577898 263.93831 
" style="fill:none;stroke:#ff0000;stroke-linecap:square;stroke-width:2;"/>
   </g>
   <g id="line2d_125">
    <path clip-path="url(#p50ec59b4cb)" d="M 75.923352 265.074174 
L 140.854261 269.718443 
L 205.78517 225.409211 
L 270.71608 129.917775 
L 335.646989 235.68946 
L 400.577898 263.310188 
" style="fill:none;stroke:#ff0000;stroke-linecap:square;stroke-width:2;"/>
   </g>
   <g id="patch_3">
    <path d="M 59.690625 288.430125 
L 59.690625 22.318125 
" style="fill:none;stroke:#000000;stroke-linecap:square;stroke-linejoin:miter;stroke-width:0.8;"/>
   </g>
   <g id="patch_4">
    <path d="M 416.810625 288.430125 
L 416.810625 22.318125 
" style="fill:none;stroke:#000000;stroke-linecap:square;stroke-linejoin:miter;stroke-width:0.8;"/>
   </g>
   <g id="patch_5">
    <path d="M 59.690625 288.430125 
L 416.810625 288.430125 
" style="fill:none;stroke:#000000;stroke-linecap:square;stroke-linejoin:miter;stroke-width:0.8;"/>
   </g>
   <g id="patch_6">
    <path d="M 59.690625 22.318125 
L 416.810625 22.318125 
" style="fill:none;stroke:#000000;stroke-linecap:square;stroke-linejoin:miter;stroke-width:0.8;"/>
   </g>
   <g id="text_15">
    <!-- Parallel Coordinate Plot -->
    <g transform="translate(168.375 16.318125)scale(0.12 -0.12)">
     <defs>
      <path d="M 1259 4147 
L 1259 2394 
L 2053 2394 
Q 2494 2394 2734 2622 
Q 2975 2850 2975 3272 
Q 2975 3691 2734 3919 
Q 2494 4147 2053 4147 
L 1259 4147 
z
M 628 4666 
L 2053 4666 
Q 2838 4666 3239 4311 
Q 3641 3956 3641 3272 
Q 3641 2581 3239 2228 
Q 2838 1875 2053 1875 
L 1259 1875 
L 1259 0 
L 628 0 
L 628 4666 
z
" id="DejaVuSans-50" transform="scale(0.015625)"/>
      <path d="M 4122 4306 
L 4122 3641 
Q 3803 3938 3442 4084 
Q 3081 4231 2675 4231 
Q 1875 4231 1450 3742 
Q 1025 3253 1025 2328 
Q 1025 1406 1450 917 
Q 1875 428 2675 428 
Q 3081 428 3442 575 
Q 3803 722 4122 1019 
L 4122 359 
Q 3791 134 3420 21 
Q 3050 -91 2638 -91 
Q 1578 -91 968 557 
Q 359 1206 359 2328 
Q 359 3453 968 4101 
Q 1578 4750 2638 4750 
Q 3056 4750 3426 4639 
Q 3797 4528 4122 4306 
z
" id="DejaVuSans-43" transform="scale(0.015625)"/>
      <path d="M 2906 2969 
L 2906 4863 
L 3481 4863 
L 3481 0 
L 2906 0 
L 2906 525 
Q 2725 213 2448 61 
Q 2172 -91 1784 -91 
Q 1150 -91 751 415 
Q 353 922 353 1747 
Q 353 2572 751 3078 
Q 1150 3584 1784 3584 
Q 2172 3584 2448 3432 
Q 2725 3281 2906 2969 
z
M 947 1747 
Q 947 1113 1208 752 
Q 1469 391 1925 391 
Q 2381 391 2643 752 
Q 2906 1113 2906 1747 
Q 2906 2381 2643 2742 
Q 2381 3103 1925 3103 
Q 1469 3103 1208 2742 
Q 947 2381 947 1747 
z
" id="DejaVuSans-64" transform="scale(0.015625)"/>
      <path d="M 1172 4494 
L 1172 3500 
L 2356 3500 
L 2356 3053 
L 1172 3053 
L 1172 1153 
Q 1172 725 1289 603 
Q 1406 481 1766 481 
L 2356 481 
L 2356 0 
L 1766 0 
Q 1100 0 847 248 
Q 594 497 594 1153 
L 594 3053 
L 172 3053 
L 172 3500 
L 594 3500 
L 594 4494 
L 1172 4494 
z
" id="DejaVuSans-74" transform="scale(0.015625)"/>
     </defs>
     <use xlink:href="#DejaVuSans-50"/>
     <use x="55.802734" xlink:href="#DejaVuSans-61"/>
     <use x="117.082031" xlink:href="#DejaVuSans-72"/>
     <use x="158.195312" xlink:href="#DejaVuSans-61"/>
     <use x="219.474609" xlink:href="#DejaVuSans-6c"/>
     <use x="247.257812" xlink:href="#DejaVuSans-6c"/>
     <use x="275.041016" xlink:href="#DejaVuSans-65"/>
     <use x="336.564453" xlink:href="#DejaVuSans-6c"/>
     <use x="364.347656" xlink:href="#DejaVuSans-20"/>
     <use x="396.134766" xlink:href="#DejaVuSans-43"/>
     <use x="465.958984" xlink:href="#DejaVuSans-6f"/>
     <use x="527.140625" xlink:href="#DejaVuSans-6f"/>
     <use x="588.322266" xlink:href="#DejaVuSans-72"/>
     <use x="627.685547" xlink:href="#DejaVuSans-64"/>
     <use x="691.162109" xlink:href="#DejaVuSans-69"/>
     <use x="718.945312" xlink:href="#DejaVuSans-6e"/>
     <use x="782.324219" xlink:href="#DejaVuSans-61"/>
     <use x="843.603516" xlink:href="#DejaVuSans-74"/>
     <use x="882.8125" xlink:href="#DejaVuSans-65"/>
     <use x="944.335938" xlink:href="#DejaVuSans-20"/>
     <use x="976.123047" xlink:href="#DejaVuSans-50"/>
     <use x="1036.425781" xlink:href="#DejaVuSans-6c"/>
     <use x="1064.208984" xlink:href="#DejaVuSans-6f"/>
     <use x="1125.390625" xlink:href="#DejaVuSans-74"/>
    </g>
   </g>
   <g id="legend_1">
    <g id="patch_7">
     <path d="M 266.912188 44.99625 
L 409.810625 44.99625 
Q 411.810625 44.99625 411.810625 42.99625 
L 411.810625 29.318125 
Q 411.810625 27.318125 409.810625 27.318125 
L 266.912188 27.318125 
Q 264.912188 27.318125 264.912188 29.318125 
L 264.912188 42.99625 
Q 264.912188 44.99625 266.912188 44.99625 
z
" style="fill:#ffffff;opacity:0.8;stroke:#cccccc;stroke-linejoin:miter;"/>
    </g>
    <g id="line2d_126">
     <path d="M 268.912188 35.416562 
L 288.912188 35.416562 
" style="fill:none;stroke:#ff0000;stroke-linecap:square;stroke-width:2;"/>
    </g>
    <g id="line2d_127"/>
    <g id="text_16">
     <!-- MOEA Objective Value -->
     <g transform="translate(296.912188 38.916562)scale(0.1 -0.1)">
      <defs>
       <path d="M 628 4666 
L 1569 4666 
L 2759 1491 
L 3956 4666 
L 4897 4666 
L 4897 0 
L 4281 0 
L 4281 4097 
L 3078 897 
L 2444 897 
L 1241 4097 
L 1241 0 
L 628 0 
L 628 4666 
z
" id="DejaVuSans-4d" transform="scale(0.015625)"/>
       <path d="M 2522 4238 
Q 1834 4238 1429 3725 
Q 1025 3213 1025 2328 
Q 1025 1447 1429 934 
Q 1834 422 2522 422 
Q 3209 422 3611 934 
Q 4013 1447 4013 2328 
Q 4013 3213 3611 3725 
Q 3209 4238 2522 4238 
z
M 2522 4750 
Q 3503 4750 4090 4092 
Q 4678 3434 4678 2328 
Q 4678 1225 4090 567 
Q 3503 -91 2522 -91 
Q 1538 -91 948 565 
Q 359 1222 359 2328 
Q 359 3434 948 4092 
Q 1538 4750 2522 4750 
z
" id="DejaVuSans-4f" transform="scale(0.015625)"/>
       <path d="M 628 4666 
L 3578 4666 
L 3578 4134 
L 1259 4134 
L 1259 2753 
L 3481 2753 
L 3481 2222 
L 1259 2222 
L 1259 531 
L 3634 531 
L 3634 0 
L 628 0 
L 628 4666 
z
" id="DejaVuSans-45" transform="scale(0.015625)"/>
       <path d="M 2188 4044 
L 1331 1722 
L 3047 1722 
L 2188 4044 
z
M 1831 4666 
L 2547 4666 
L 4325 0 
L 3669 0 
L 3244 1197 
L 1141 1197 
L 716 0 
L 50 0 
L 1831 4666 
z
" id="DejaVuSans-41" transform="scale(0.015625)"/>
       <path d="M 603 3500 
L 1178 3500 
L 1178 -63 
Q 1178 -731 923 -1031 
Q 669 -1331 103 -1331 
L -116 -1331 
L -116 -844 
L 38 -844 
Q 366 -844 484 -692 
Q 603 -541 603 -63 
L 603 3500 
z
M 603 4863 
L 1178 4863 
L 1178 4134 
L 603 4134 
L 603 4863 
z
" id="DejaVuSans-6a" transform="scale(0.015625)"/>
       <path d="M 3122 3366 
L 3122 2828 
Q 2878 2963 2633 3030 
Q 2388 3097 2138 3097 
Q 1578 3097 1268 2742 
Q 959 2388 959 1747 
Q 959 1106 1268 751 
Q 1578 397 2138 397 
Q 2388 397 2633 464 
Q 2878 531 3122 666 
L 3122 134 
Q 2881 22 2623 -34 
Q 2366 -91 2075 -91 
Q 1284 -91 818 406 
Q 353 903 353 1747 
Q 353 2603 823 3093 
Q 1294 3584 2113 3584 
Q 2378 3584 2631 3529 
Q 2884 3475 3122 3366 
z
" id="DejaVuSans-63" transform="scale(0.015625)"/>
       <path d="M 191 3500 
L 800 3500 
L 1894 563 
L 2988 3500 
L 3597 3500 
L 2284 0 
L 1503 0 
L 191 3500 
z
" id="DejaVuSans-76" transform="scale(0.015625)"/>
      </defs>
      <use xlink:href="#DejaVuSans-4d"/>
      <use x="86.279297" xlink:href="#DejaVuSans-4f"/>
      <use x="164.990234" xlink:href="#DejaVuSans-45"/>
      <use x="228.173828" xlink:href="#DejaVuSans-41"/>
      <use x="296.582031" xlink:href="#DejaVuSans-20"/>
      <use x="328.369141" xlink:href="#DejaVuSans-4f"/>
      <use x="407.080078" xlink:href="#DejaVuSans-62"/>
      <use x="470.556641" xlink:href="#DejaVuSans-6a"/>
      <use x="498.339844" xlink:href="#DejaVuSans-65"/>
      <use x="559.863281" xlink:href="#DejaVuSans-63"/>
      <use x="614.84375" xlink:href="#DejaVuSans-74"/>
      <use x="654.052734" xlink:href="#DejaVuSans-69"/>
      <use x="681.835938" xlink:href="#DejaVuSans-76"/>
      <use x="741.015625" xlink:href="#DejaVuSans-65"/>
      <use x="802.539062" xlink:href="#DejaVuSans-20"/>
      <use x="834.326172" xlink:href="#DejaVuSans-56"/>
      <use x="894.984375" xlink:href="#DejaVuSans-61"/>
      <use x="956.263672" xlink:href="#DejaVuSans-6c"/>
      <use x="984.046875" xlink:href="#DejaVuSans-75"/>
      <use x="1047.425781" xlink:href="#DejaVuSans-65"/>
     </g>
    </g>
   </g>
  </g>
 </g>
 <defs>
  <clipPath id="p50ec59b4cb">
   <rect height="266.112" width="357.12" x="59.690625" y="22.318125"/>
  </clipPath>
 </defs>
</svg>
