<?xml version="1.0" encoding="utf-8" standalone="no"?>
<!DOCTYPE svg PUBLIC "-//W3C//DTD SVG 1.1//EN"
  "http://www.w3.org/Graphics/SVG/1.1/DTD/svg11.dtd">
<svg height="325.986375pt" version="1.1" viewBox="0 0 417.648125 325.986375" width="417.648125pt" xmlns="http://www.w3.org/2000/svg" xmlns:xlink="http://www.w3.org/1999/xlink">
 <metadata>
  <rdf:RDF xmlns:cc="http://creativecommons.org/ns#" xmlns:dc="http://purl.org/dc/elements/1.1/" xmlns:rdf="http://www.w3.org/1999/02/22-rdf-syntax-ns#">
   <cc:Work>
    <dc:type rdf:resource="http://purl.org/dc/dcmitype/StillImage"/>
    <dc:date>2022-02-21T16:50:47.716222</dc:date>
    <dc:format>image/svg+xml</dc:format>
    <dc:creator>
     <cc:Agent>
      <dc:title>Matplotlib v3.4.1, https://matplotlib.org/</dc:title>
     </cc:Agent>
    </dc:creator>
   </cc:Work>
  </rdf:RDF>
 </metadata>
 <defs>
  <style type="text/css">*{stroke-linecap:butt;stroke-linejoin:round;}</style>
 </defs>
 <g id="figure_1">
  <g id="patch_1">
   <path d="M 0 325.986375 
L 417.648125 325.986375 
L 417.648125 0 
L 0 0 
z
" style="fill:#ffffff;"/>
  </g>
  <g id="axes_1">
   <g id="patch_2">
    <path d="M 53.328125 288.430125 
L 410.448125 288.430125 
L 410.448125 22.318125 
L 53.328125 22.318125 
z
" style="fill:#ffffff;"/>
   </g>
   <g id="matplotlib.axis_1">
    <g id="xtick_1">
     <g id="line2d_1">
      <defs>
       <path d="M 0 0 
L 0 3.5 
" id="mfff85381cc" style="stroke:#000000;stroke-width:0.8;"/>
      </defs>
      <g>
       <use style="stroke:#000000;stroke-width:0.8;" x="69.560852" xlink:href="#mfff85381cc" y="288.430125"/>
      </g>
     </g>
     <g id="text_1">
      <!-- 0 -->
      <g transform="translate(66.379602 303.028562)scale(0.1 -0.1)">
       <defs>
        <path d="M 2034 4250 
Q 1547 4250 1301 3770 
Q 1056 3291 1056 2328 
Q 1056 1369 1301 889 
Q 1547 409 2034 409 
Q 2525 409 2770 889 
Q 3016 1369 3016 2328 
Q 3016 3291 2770 3770 
Q 2525 4250 2034 4250 
z
M 2034 4750 
Q 2819 4750 3233 4129 
Q 3647 3509 3647 2328 
Q 3647 1150 3233 529 
Q 2819 -91 2034 -91 
Q 1250 -91 836 529 
Q 422 1150 422 2328 
Q 422 3509 836 4129 
Q 1250 4750 2034 4750 
z
" id="DejaVuSans-30" transform="scale(0.015625)"/>
       </defs>
       <use xlink:href="#DejaVuSans-30"/>
      </g>
     </g>
    </g>
    <g id="xtick_2">
     <g id="line2d_2">
      <g>
       <use style="stroke:#000000;stroke-width:0.8;" x="134.68714" xlink:href="#mfff85381cc" y="288.430125"/>
      </g>
     </g>
     <g id="text_2">
      <!-- 200 -->
      <g transform="translate(125.14339 303.028562)scale(0.1 -0.1)">
       <defs>
        <path d="M 1228 531 
L 3431 531 
L 3431 0 
L 469 0 
L 469 531 
Q 828 903 1448 1529 
Q 2069 2156 2228 2338 
Q 2531 2678 2651 2914 
Q 2772 3150 2772 3378 
Q 2772 3750 2511 3984 
Q 2250 4219 1831 4219 
Q 1534 4219 1204 4116 
Q 875 4013 500 3803 
L 500 4441 
Q 881 4594 1212 4672 
Q 1544 4750 1819 4750 
Q 2544 4750 2975 4387 
Q 3406 4025 3406 3419 
Q 3406 3131 3298 2873 
Q 3191 2616 2906 2266 
Q 2828 2175 2409 1742 
Q 1991 1309 1228 531 
z
" id="DejaVuSans-32" transform="scale(0.015625)"/>
       </defs>
       <use xlink:href="#DejaVuSans-32"/>
       <use x="63.623047" xlink:href="#DejaVuSans-30"/>
       <use x="127.246094" xlink:href="#DejaVuSans-30"/>
      </g>
     </g>
    </g>
    <g id="xtick_3">
     <g id="line2d_3">
      <g>
       <use style="stroke:#000000;stroke-width:0.8;" x="199.813428" xlink:href="#mfff85381cc" y="288.430125"/>
      </g>
     </g>
     <g id="text_3">
      <!-- 400 -->
      <g transform="translate(190.269678 303.028562)scale(0.1 -0.1)">
       <defs>
        <path d="M 2419 4116 
L 825 1625 
L 2419 1625 
L 2419 4116 
z
M 2253 4666 
L 3047 4666 
L 3047 1625 
L 3713 1625 
L 3713 1100 
L 3047 1100 
L 3047 0 
L 2419 0 
L 2419 1100 
L 313 1100 
L 313 1709 
L 2253 4666 
z
" id="DejaVuSans-34" transform="scale(0.015625)"/>
       </defs>
       <use xlink:href="#DejaVuSans-34"/>
       <use x="63.623047" xlink:href="#DejaVuSans-30"/>
       <use x="127.246094" xlink:href="#DejaVuSans-30"/>
      </g>
     </g>
    </g>
    <g id="xtick_4">
     <g id="line2d_4">
      <g>
       <use style="stroke:#000000;stroke-width:0.8;" x="264.939716" xlink:href="#mfff85381cc" y="288.430125"/>
      </g>
     </g>
     <g id="text_4">
      <!-- 600 -->
      <g transform="translate(255.395966 303.028562)scale(0.1 -0.1)">
       <defs>
        <path d="M 2113 2584 
Q 1688 2584 1439 2293 
Q 1191 2003 1191 1497 
Q 1191 994 1439 701 
Q 1688 409 2113 409 
Q 2538 409 2786 701 
Q 3034 994 3034 1497 
Q 3034 2003 2786 2293 
Q 2538 2584 2113 2584 
z
M 3366 4563 
L 3366 3988 
Q 3128 4100 2886 4159 
Q 2644 4219 2406 4219 
Q 1781 4219 1451 3797 
Q 1122 3375 1075 2522 
Q 1259 2794 1537 2939 
Q 1816 3084 2150 3084 
Q 2853 3084 3261 2657 
Q 3669 2231 3669 1497 
Q 3669 778 3244 343 
Q 2819 -91 2113 -91 
Q 1303 -91 875 529 
Q 447 1150 447 2328 
Q 447 3434 972 4092 
Q 1497 4750 2381 4750 
Q 2619 4750 2861 4703 
Q 3103 4656 3366 4563 
z
" id="DejaVuSans-36" transform="scale(0.015625)"/>
       </defs>
       <use xlink:href="#DejaVuSans-36"/>
       <use x="63.623047" xlink:href="#DejaVuSans-30"/>
       <use x="127.246094" xlink:href="#DejaVuSans-30"/>
      </g>
     </g>
    </g>
    <g id="xtick_5">
     <g id="line2d_5">
      <g>
       <use style="stroke:#000000;stroke-width:0.8;" x="330.066004" xlink:href="#mfff85381cc" y="288.430125"/>
      </g>
     </g>
     <g id="text_5">
      <!-- 800 -->
      <g transform="translate(320.522254 303.028562)scale(0.1 -0.1)">
       <defs>
        <path d="M 2034 2216 
Q 1584 2216 1326 1975 
Q 1069 1734 1069 1313 
Q 1069 891 1326 650 
Q 1584 409 2034 409 
Q 2484 409 2743 651 
Q 3003 894 3003 1313 
Q 3003 1734 2745 1975 
Q 2488 2216 2034 2216 
z
M 1403 2484 
Q 997 2584 770 2862 
Q 544 3141 544 3541 
Q 544 4100 942 4425 
Q 1341 4750 2034 4750 
Q 2731 4750 3128 4425 
Q 3525 4100 3525 3541 
Q 3525 3141 3298 2862 
Q 3072 2584 2669 2484 
Q 3125 2378 3379 2068 
Q 3634 1759 3634 1313 
Q 3634 634 3220 271 
Q 2806 -91 2034 -91 
Q 1263 -91 848 271 
Q 434 634 434 1313 
Q 434 1759 690 2068 
Q 947 2378 1403 2484 
z
M 1172 3481 
Q 1172 3119 1398 2916 
Q 1625 2713 2034 2713 
Q 2441 2713 2670 2916 
Q 2900 3119 2900 3481 
Q 2900 3844 2670 4047 
Q 2441 4250 2034 4250 
Q 1625 4250 1398 4047 
Q 1172 3844 1172 3481 
z
" id="DejaVuSans-38" transform="scale(0.015625)"/>
       </defs>
       <use xlink:href="#DejaVuSans-38"/>
       <use x="63.623047" xlink:href="#DejaVuSans-30"/>
       <use x="127.246094" xlink:href="#DejaVuSans-30"/>
      </g>
     </g>
    </g>
    <g id="xtick_6">
     <g id="line2d_6">
      <g>
       <use style="stroke:#000000;stroke-width:0.8;" x="395.192292" xlink:href="#mfff85381cc" y="288.430125"/>
      </g>
     </g>
     <g id="text_6">
      <!-- 1000 -->
      <g transform="translate(382.467292 303.028562)scale(0.1 -0.1)">
       <defs>
        <path d="M 794 531 
L 1825 531 
L 1825 4091 
L 703 3866 
L 703 4441 
L 1819 4666 
L 2450 4666 
L 2450 531 
L 3481 531 
L 3481 0 
L 794 0 
L 794 531 
z
" id="DejaVuSans-31" transform="scale(0.015625)"/>
       </defs>
       <use xlink:href="#DejaVuSans-31"/>
       <use x="63.623047" xlink:href="#DejaVuSans-30"/>
       <use x="127.246094" xlink:href="#DejaVuSans-30"/>
       <use x="190.869141" xlink:href="#DejaVuSans-30"/>
      </g>
     </g>
    </g>
    <g id="text_7">
     <!-- Number of Generation -->
     <g transform="translate(175.911563 316.706687)scale(0.1 -0.1)">
      <defs>
       <path d="M 628 4666 
L 1478 4666 
L 3547 763 
L 3547 4666 
L 4159 4666 
L 4159 0 
L 3309 0 
L 1241 3903 
L 1241 0 
L 628 0 
L 628 4666 
z
" id="DejaVuSans-4e" transform="scale(0.015625)"/>
       <path d="M 544 1381 
L 544 3500 
L 1119 3500 
L 1119 1403 
Q 1119 906 1312 657 
Q 1506 409 1894 409 
Q 2359 409 2629 706 
Q 2900 1003 2900 1516 
L 2900 3500 
L 3475 3500 
L 3475 0 
L 2900 0 
L 2900 538 
Q 2691 219 2414 64 
Q 2138 -91 1772 -91 
Q 1169 -91 856 284 
Q 544 659 544 1381 
z
M 1991 3584 
L 1991 3584 
z
" id="DejaVuSans-75" transform="scale(0.015625)"/>
       <path d="M 3328 2828 
Q 3544 3216 3844 3400 
Q 4144 3584 4550 3584 
Q 5097 3584 5394 3201 
Q 5691 2819 5691 2113 
L 5691 0 
L 5113 0 
L 5113 2094 
Q 5113 2597 4934 2840 
Q 4756 3084 4391 3084 
Q 3944 3084 3684 2787 
Q 3425 2491 3425 1978 
L 3425 0 
L 2847 0 
L 2847 2094 
Q 2847 2600 2669 2842 
Q 2491 3084 2119 3084 
Q 1678 3084 1418 2786 
Q 1159 2488 1159 1978 
L 1159 0 
L 581 0 
L 581 3500 
L 1159 3500 
L 1159 2956 
Q 1356 3278 1631 3431 
Q 1906 3584 2284 3584 
Q 2666 3584 2933 3390 
Q 3200 3197 3328 2828 
z
" id="DejaVuSans-6d" transform="scale(0.015625)"/>
       <path d="M 3116 1747 
Q 3116 2381 2855 2742 
Q 2594 3103 2138 3103 
Q 1681 3103 1420 2742 
Q 1159 2381 1159 1747 
Q 1159 1113 1420 752 
Q 1681 391 2138 391 
Q 2594 391 2855 752 
Q 3116 1113 3116 1747 
z
M 1159 2969 
Q 1341 3281 1617 3432 
Q 1894 3584 2278 3584 
Q 2916 3584 3314 3078 
Q 3713 2572 3713 1747 
Q 3713 922 3314 415 
Q 2916 -91 2278 -91 
Q 1894 -91 1617 61 
Q 1341 213 1159 525 
L 1159 0 
L 581 0 
L 581 4863 
L 1159 4863 
L 1159 2969 
z
" id="DejaVuSans-62" transform="scale(0.015625)"/>
       <path d="M 3597 1894 
L 3597 1613 
L 953 1613 
Q 991 1019 1311 708 
Q 1631 397 2203 397 
Q 2534 397 2845 478 
Q 3156 559 3463 722 
L 3463 178 
Q 3153 47 2828 -22 
Q 2503 -91 2169 -91 
Q 1331 -91 842 396 
Q 353 884 353 1716 
Q 353 2575 817 3079 
Q 1281 3584 2069 3584 
Q 2775 3584 3186 3129 
Q 3597 2675 3597 1894 
z
M 3022 2063 
Q 3016 2534 2758 2815 
Q 2500 3097 2075 3097 
Q 1594 3097 1305 2825 
Q 1016 2553 972 2059 
L 3022 2063 
z
" id="DejaVuSans-65" transform="scale(0.015625)"/>
       <path d="M 2631 2963 
Q 2534 3019 2420 3045 
Q 2306 3072 2169 3072 
Q 1681 3072 1420 2755 
Q 1159 2438 1159 1844 
L 1159 0 
L 581 0 
L 581 3500 
L 1159 3500 
L 1159 2956 
Q 1341 3275 1631 3429 
Q 1922 3584 2338 3584 
Q 2397 3584 2469 3576 
Q 2541 3569 2628 3553 
L 2631 2963 
z
" id="DejaVuSans-72" transform="scale(0.015625)"/>
       <path id="DejaVuSans-20" transform="scale(0.015625)"/>
       <path d="M 1959 3097 
Q 1497 3097 1228 2736 
Q 959 2375 959 1747 
Q 959 1119 1226 758 
Q 1494 397 1959 397 
Q 2419 397 2687 759 
Q 2956 1122 2956 1747 
Q 2956 2369 2687 2733 
Q 2419 3097 1959 3097 
z
M 1959 3584 
Q 2709 3584 3137 3096 
Q 3566 2609 3566 1747 
Q 3566 888 3137 398 
Q 2709 -91 1959 -91 
Q 1206 -91 779 398 
Q 353 888 353 1747 
Q 353 2609 779 3096 
Q 1206 3584 1959 3584 
z
" id="DejaVuSans-6f" transform="scale(0.015625)"/>
       <path d="M 2375 4863 
L 2375 4384 
L 1825 4384 
Q 1516 4384 1395 4259 
Q 1275 4134 1275 3809 
L 1275 3500 
L 2222 3500 
L 2222 3053 
L 1275 3053 
L 1275 0 
L 697 0 
L 697 3053 
L 147 3053 
L 147 3500 
L 697 3500 
L 697 3744 
Q 697 4328 969 4595 
Q 1241 4863 1831 4863 
L 2375 4863 
z
" id="DejaVuSans-66" transform="scale(0.015625)"/>
       <path d="M 3809 666 
L 3809 1919 
L 2778 1919 
L 2778 2438 
L 4434 2438 
L 4434 434 
Q 4069 175 3628 42 
Q 3188 -91 2688 -91 
Q 1594 -91 976 548 
Q 359 1188 359 2328 
Q 359 3472 976 4111 
Q 1594 4750 2688 4750 
Q 3144 4750 3555 4637 
Q 3966 4525 4313 4306 
L 4313 3634 
Q 3963 3931 3569 4081 
Q 3175 4231 2741 4231 
Q 1884 4231 1454 3753 
Q 1025 3275 1025 2328 
Q 1025 1384 1454 906 
Q 1884 428 2741 428 
Q 3075 428 3337 486 
Q 3600 544 3809 666 
z
" id="DejaVuSans-47" transform="scale(0.015625)"/>
       <path d="M 3513 2113 
L 3513 0 
L 2938 0 
L 2938 2094 
Q 2938 2591 2744 2837 
Q 2550 3084 2163 3084 
Q 1697 3084 1428 2787 
Q 1159 2491 1159 1978 
L 1159 0 
L 581 0 
L 581 3500 
L 1159 3500 
L 1159 2956 
Q 1366 3272 1645 3428 
Q 1925 3584 2291 3584 
Q 2894 3584 3203 3211 
Q 3513 2838 3513 2113 
z
" id="DejaVuSans-6e" transform="scale(0.015625)"/>
       <path d="M 2194 1759 
Q 1497 1759 1228 1600 
Q 959 1441 959 1056 
Q 959 750 1161 570 
Q 1363 391 1709 391 
Q 2188 391 2477 730 
Q 2766 1069 2766 1631 
L 2766 1759 
L 2194 1759 
z
M 3341 1997 
L 3341 0 
L 2766 0 
L 2766 531 
Q 2569 213 2275 61 
Q 1981 -91 1556 -91 
Q 1019 -91 701 211 
Q 384 513 384 1019 
Q 384 1609 779 1909 
Q 1175 2209 1959 2209 
L 2766 2209 
L 2766 2266 
Q 2766 2663 2505 2880 
Q 2244 3097 1772 3097 
Q 1472 3097 1187 3025 
Q 903 2953 641 2809 
L 641 3341 
Q 956 3463 1253 3523 
Q 1550 3584 1831 3584 
Q 2591 3584 2966 3190 
Q 3341 2797 3341 1997 
z
" id="DejaVuSans-61" transform="scale(0.015625)"/>
       <path d="M 1172 4494 
L 1172 3500 
L 2356 3500 
L 2356 3053 
L 1172 3053 
L 1172 1153 
Q 1172 725 1289 603 
Q 1406 481 1766 481 
L 2356 481 
L 2356 0 
L 1766 0 
Q 1100 0 847 248 
Q 594 497 594 1153 
L 594 3053 
L 172 3053 
L 172 3500 
L 594 3500 
L 594 4494 
L 1172 4494 
z
" id="DejaVuSans-74" transform="scale(0.015625)"/>
       <path d="M 603 3500 
L 1178 3500 
L 1178 0 
L 603 0 
L 603 3500 
z
M 603 4863 
L 1178 4863 
L 1178 4134 
L 603 4134 
L 603 4863 
z
" id="DejaVuSans-69" transform="scale(0.015625)"/>
      </defs>
      <use xlink:href="#DejaVuSans-4e"/>
      <use x="74.804688" xlink:href="#DejaVuSans-75"/>
      <use x="138.183594" xlink:href="#DejaVuSans-6d"/>
      <use x="235.595703" xlink:href="#DejaVuSans-62"/>
      <use x="299.072266" xlink:href="#DejaVuSans-65"/>
      <use x="360.595703" xlink:href="#DejaVuSans-72"/>
      <use x="401.708984" xlink:href="#DejaVuSans-20"/>
      <use x="433.496094" xlink:href="#DejaVuSans-6f"/>
      <use x="494.677734" xlink:href="#DejaVuSans-66"/>
      <use x="529.882812" xlink:href="#DejaVuSans-20"/>
      <use x="561.669922" xlink:href="#DejaVuSans-47"/>
      <use x="639.160156" xlink:href="#DejaVuSans-65"/>
      <use x="700.683594" xlink:href="#DejaVuSans-6e"/>
      <use x="764.0625" xlink:href="#DejaVuSans-65"/>
      <use x="825.585938" xlink:href="#DejaVuSans-72"/>
      <use x="866.699219" xlink:href="#DejaVuSans-61"/>
      <use x="927.978516" xlink:href="#DejaVuSans-74"/>
      <use x="967.1875" xlink:href="#DejaVuSans-69"/>
      <use x="994.970703" xlink:href="#DejaVuSans-6f"/>
      <use x="1056.152344" xlink:href="#DejaVuSans-6e"/>
     </g>
    </g>
   </g>
   <g id="matplotlib.axis_2">
    <g id="ytick_1">
     <g id="line2d_7">
      <defs>
       <path d="M 0 0 
L -3.5 0 
" id="mb84151594c" style="stroke:#000000;stroke-width:0.8;"/>
      </defs>
      <g>
       <use style="stroke:#000000;stroke-width:0.8;" x="53.328125" xlink:href="#mb84151594c" y="247.872237"/>
      </g>
     </g>
     <g id="text_8">
      <!-- 2500 -->
      <g transform="translate(20.878125 251.671456)scale(0.1 -0.1)">
       <defs>
        <path d="M 691 4666 
L 3169 4666 
L 3169 4134 
L 1269 4134 
L 1269 2991 
Q 1406 3038 1543 3061 
Q 1681 3084 1819 3084 
Q 2600 3084 3056 2656 
Q 3513 2228 3513 1497 
Q 3513 744 3044 326 
Q 2575 -91 1722 -91 
Q 1428 -91 1123 -41 
Q 819 9 494 109 
L 494 744 
Q 775 591 1075 516 
Q 1375 441 1709 441 
Q 2250 441 2565 725 
Q 2881 1009 2881 1497 
Q 2881 1984 2565 2268 
Q 2250 2553 1709 2553 
Q 1456 2553 1204 2497 
Q 953 2441 691 2322 
L 691 4666 
z
" id="DejaVuSans-35" transform="scale(0.015625)"/>
       </defs>
       <use xlink:href="#DejaVuSans-32"/>
       <use x="63.623047" xlink:href="#DejaVuSans-35"/>
       <use x="127.246094" xlink:href="#DejaVuSans-30"/>
       <use x="190.869141" xlink:href="#DejaVuSans-30"/>
      </g>
     </g>
    </g>
    <g id="ytick_2">
     <g id="line2d_8">
      <g>
       <use style="stroke:#000000;stroke-width:0.8;" x="53.328125" xlink:href="#mb84151594c" y="197.943578"/>
      </g>
     </g>
     <g id="text_9">
      <!-- 3000 -->
      <g transform="translate(20.878125 201.742796)scale(0.1 -0.1)">
       <defs>
        <path d="M 2597 2516 
Q 3050 2419 3304 2112 
Q 3559 1806 3559 1356 
Q 3559 666 3084 287 
Q 2609 -91 1734 -91 
Q 1441 -91 1130 -33 
Q 819 25 488 141 
L 488 750 
Q 750 597 1062 519 
Q 1375 441 1716 441 
Q 2309 441 2620 675 
Q 2931 909 2931 1356 
Q 2931 1769 2642 2001 
Q 2353 2234 1838 2234 
L 1294 2234 
L 1294 2753 
L 1863 2753 
Q 2328 2753 2575 2939 
Q 2822 3125 2822 3475 
Q 2822 3834 2567 4026 
Q 2313 4219 1838 4219 
Q 1578 4219 1281 4162 
Q 984 4106 628 3988 
L 628 4550 
Q 988 4650 1302 4700 
Q 1616 4750 1894 4750 
Q 2613 4750 3031 4423 
Q 3450 4097 3450 3541 
Q 3450 3153 3228 2886 
Q 3006 2619 2597 2516 
z
" id="DejaVuSans-33" transform="scale(0.015625)"/>
       </defs>
       <use xlink:href="#DejaVuSans-33"/>
       <use x="63.623047" xlink:href="#DejaVuSans-30"/>
       <use x="127.246094" xlink:href="#DejaVuSans-30"/>
       <use x="190.869141" xlink:href="#DejaVuSans-30"/>
      </g>
     </g>
    </g>
    <g id="ytick_3">
     <g id="line2d_9">
      <g>
       <use style="stroke:#000000;stroke-width:0.8;" x="53.328125" xlink:href="#mb84151594c" y="148.014918"/>
      </g>
     </g>
     <g id="text_10">
      <!-- 3500 -->
      <g transform="translate(20.878125 151.814137)scale(0.1 -0.1)">
       <use xlink:href="#DejaVuSans-33"/>
       <use x="63.623047" xlink:href="#DejaVuSans-35"/>
       <use x="127.246094" xlink:href="#DejaVuSans-30"/>
       <use x="190.869141" xlink:href="#DejaVuSans-30"/>
      </g>
     </g>
    </g>
    <g id="ytick_4">
     <g id="line2d_10">
      <g>
       <use style="stroke:#000000;stroke-width:0.8;" x="53.328125" xlink:href="#mb84151594c" y="98.086259"/>
      </g>
     </g>
     <g id="text_11">
      <!-- 4000 -->
      <g transform="translate(20.878125 101.885477)scale(0.1 -0.1)">
       <use xlink:href="#DejaVuSans-34"/>
       <use x="63.623047" xlink:href="#DejaVuSans-30"/>
       <use x="127.246094" xlink:href="#DejaVuSans-30"/>
       <use x="190.869141" xlink:href="#DejaVuSans-30"/>
      </g>
     </g>
    </g>
    <g id="ytick_5">
     <g id="line2d_11">
      <g>
       <use style="stroke:#000000;stroke-width:0.8;" x="53.328125" xlink:href="#mb84151594c" y="48.157599"/>
      </g>
     </g>
     <g id="text_12">
      <!-- 4500 -->
      <g transform="translate(20.878125 51.956818)scale(0.1 -0.1)">
       <use xlink:href="#DejaVuSans-34"/>
       <use x="63.623047" xlink:href="#DejaVuSans-35"/>
       <use x="127.246094" xlink:href="#DejaVuSans-30"/>
       <use x="190.869141" xlink:href="#DejaVuSans-30"/>
      </g>
     </g>
    </g>
    <g id="text_13">
     <!-- Value -->
     <g transform="translate(14.798438 169.105375)rotate(-90)scale(0.1 -0.1)">
      <defs>
       <path d="M 1831 0 
L 50 4666 
L 709 4666 
L 2188 738 
L 3669 4666 
L 4325 4666 
L 2547 0 
L 1831 0 
z
" id="DejaVuSans-56" transform="scale(0.015625)"/>
       <path d="M 603 4863 
L 1178 4863 
L 1178 0 
L 603 0 
L 603 4863 
z
" id="DejaVuSans-6c" transform="scale(0.015625)"/>
      </defs>
      <use xlink:href="#DejaVuSans-56"/>
      <use x="60.658203" xlink:href="#DejaVuSans-61"/>
      <use x="121.9375" xlink:href="#DejaVuSans-6c"/>
      <use x="149.720703" xlink:href="#DejaVuSans-75"/>
      <use x="213.099609" xlink:href="#DejaVuSans-65"/>
     </g>
    </g>
   </g>
   <g id="line2d_12">
    <path clip-path="url(#p00b73192b6)" d="M 69.560852 34.414125 
L 69.886484 276.334125 
L 70.212115 110.555142 
L 70.537747 161.898779 
L 70.863378 237.376695 
L 71.189009 271.376691 
L 71.840272 246.912715 
L 72.165904 229.682754 
L 72.817167 237.796477 
L 73.46843 211.996488 
L 73.794061 237.548703 
L 74.119692 222.824696 
L 74.445324 221.858512 
L 74.770955 224.898028 
L 75.096587 233.106562 
L 75.422218 261.554819 
L 75.74785 245.560402 
L 76.073481 248.046093 
L 76.399113 229.194974 
L 76.724744 226.249978 
L 77.050375 236.900988 
L 77.376007 229.7549 
L 77.701638 210.099014 
L 78.02727 236.973393 
L 78.352901 213.484511 
L 78.678533 226.134725 
L 79.004164 209.380467 
L 79.655427 192.380276 
L 79.981058 231.691138 
L 80.30669 211.499815 
L 80.632321 211.576439 
L 80.957953 196.292658 
L 81.283584 212.105771 
L 81.609216 201.325083 
L 81.934847 245.324238 
L 82.260478 239.676999 
L 82.58611 199.271895 
L 82.911741 198.165427 
L 83.237373 198.893582 
L 83.563004 188.38657 
L 83.888636 184.837457 
L 84.214267 194.458702 
L 84.539899 207.448163 
L 84.86553 204.409586 
L 85.191161 229.140626 
L 85.842424 186.129279 
L 86.168056 175.747023 
L 86.493687 185.509295 
L 86.819319 175.426963 
L 87.14495 173.070021 
L 87.470581 165.012847 
L 87.796213 161.539831 
L 88.447476 195.184259 
L 88.773107 197.951153 
L 89.098739 203.566539 
L 89.42437 156.085397 
L 89.750002 170.616199 
L 90.075633 176.222993 
L 90.401264 177.601576 
L 90.726896 197.30494 
L 91.052527 187.501651 
L 91.378159 185.974078 
L 91.70379 149.835138 
L 92.029422 140.163286 
L 92.355053 161.144047 
L 92.680684 157.377702 
L 93.006316 155.39144 
L 93.331947 167.963276 
L 93.657579 142.495073 
L 93.98321 156.734328 
L 94.308842 141.5202 
L 94.634473 176.750448 
L 94.960105 189.291923 
L 95.285736 216.555942 
L 95.936999 189.572261 
L 96.26263 188.260852 
L 96.588262 138.821174 
L 96.913893 161.360736 
L 97.239525 153.663091 
L 97.565156 171.562779 
L 97.890788 175.608527 
L 98.54205 144.466183 
L 98.867682 145.365869 
L 99.193313 141.174879 
L 99.518945 149.207707 
L 99.844576 127.170837 
L 100.170208 135.293963 
L 100.495839 165.874815 
L 101.147102 167.785616 
L 101.472733 173.602147 
L 101.798365 164.929047 
L 102.123996 121.877856 
L 102.449628 101.621479 
L 102.775259 113.955793 
L 103.100891 97.921119 
L 103.426522 119.680179 
L 103.752153 162.555467 
L 104.403416 133.758009 
L 104.729048 137.121543 
L 105.054679 129.469777 
L 105.380311 133.409692 
L 105.705942 163.394427 
L 106.031574 160.527011 
L 106.357205 150.167046 
L 106.682836 172.002758 
L 107.008468 145.275523 
L 107.334099 136.407673 
L 107.985362 96.198369 
L 108.310994 93.361488 
L 108.636625 77.150789 
L 108.962256 82.738509 
L 109.287888 90.69903 
L 109.613519 128.844404 
L 109.939151 115.849989 
L 110.264782 110.089296 
L 110.590414 100.129142 
L 110.916045 95.832035 
L 111.241677 115.502352 
L 111.567308 98.129281 
L 111.892939 96.980241 
L 112.218571 114.587208 
L 112.544202 118.649183 
L 112.869834 114.835177 
L 113.195465 96.051532 
L 113.521097 120.866384 
L 113.846728 99.964834 
L 114.17236 126.572553 
L 114.497991 136.614925 
L 114.823622 131.378712 
L 115.149254 121.409234 
L 115.474885 106.594271 
L 115.800517 120.723062 
L 116.126148 123.809378 
L 116.45178 110.385165 
L 116.777411 105.464721 
L 117.754305 113.854223 
L 118.079937 107.649408 
L 118.405568 137.006979 
L 118.7312 120.174505 
L 119.056831 131.670261 
L 119.382463 149.139616 
L 119.708094 153.787631 
L 120.033725 147.695207 
L 120.359357 161.114552 
L 120.684988 161.634865 
L 121.01062 154.465531 
L 121.336251 135.269786 
L 121.661883 136.547691 
L 121.987514 163.240387 
L 122.313146 141.674626 
L 122.638777 147.355343 
L 122.964408 159.192432 
L 123.29004 147.415019 
L 123.615671 150.832644 
L 123.941303 146.172291 
L 124.266934 136.429209 
L 124.592566 130.098331 
L 124.918197 133.630036 
L 125.243828 152.649291 
L 125.56946 160.215372 
L 125.895091 140.694068 
L 126.220723 102.78279 
L 126.546354 129.141758 
L 126.871986 141.104766 
L 127.523249 107.54801 
L 128.500143 162.979679 
L 128.825774 151.164144 
L 129.151406 146.805535 
L 129.802669 109.550281 
L 130.1283 116.487711 
L 130.453932 80.084946 
L 130.779563 95.566839 
L 131.105194 101.174062 
L 131.430826 111.378059 
L 131.756457 107.549684 
L 132.082089 135.460208 
L 132.40772 135.88312 
L 132.733352 143.267932 
L 133.058983 141.759423 
L 133.384614 112.010516 
L 133.710246 138.879878 
L 134.035877 110.14998 
L 134.361509 107.633446 
L 134.68714 96.260644 
L 135.012772 75.061529 
L 135.338403 69.633739 
L 135.664035 106.289693 
L 135.989666 100.599457 
L 136.315297 119.656033 
L 136.640929 121.776337 
L 136.96656 90.039315 
L 137.292192 104.420627 
L 137.617823 98.622308 
L 137.943455 127.009052 
L 138.269086 124.137146 
L 138.920349 149.261606 
L 139.24598 146.679171 
L 139.571612 148.762258 
L 139.897243 139.277404 
L 140.222875 118.846884 
L 140.548506 111.654591 
L 140.874138 114.408438 
L 141.199769 110.596378 
L 141.5254 120.792323 
L 141.851032 143.266741 
L 142.176663 128.628004 
L 142.502295 107.931108 
L 142.827926 126.061546 
L 143.479189 106.399806 
L 144.130452 73.916574 
L 144.456083 70.938038 
L 144.781715 107.737348 
L 145.107346 101.655477 
L 145.432978 91.792986 
L 146.084241 143.853235 
L 146.735503 117.197958 
L 147.061135 148.397233 
L 147.386766 133.798317 
L 147.712398 142.90404 
L 148.038029 129.745789 
L 148.363661 103.890378 
L 148.689292 114.87015 
L 149.014924 96.961543 
L 149.340555 100.552716 
L 149.666186 89.90656 
L 150.317449 59.626316 
L 150.968712 81.611318 
L 151.294344 98.840816 
L 151.619975 109.007864 
L 151.945607 107.775729 
L 152.271238 96.6339 
L 152.596869 89.789668 
L 152.922501 96.972824 
L 153.248132 81.94366 
L 153.573764 114.968609 
L 153.899395 81.819462 
L 154.225027 72.605677 
L 154.876289 64.898461 
L 155.201921 66.701236 
L 155.527552 89.278797 
L 155.853184 88.296165 
L 156.178815 112.31562 
L 156.504447 95.437091 
L 156.830078 72.040657 
L 157.15571 66.619639 
L 157.481341 90.492289 
L 157.806972 102.58354 
L 158.132604 102.981973 
L 158.783867 78.000659 
L 159.109498 101.842997 
L 159.43513 85.392276 
L 159.760761 98.34081 
L 160.086393 96.599523 
L 160.412024 119.303321 
L 160.737655 116.890685 
L 161.063287 118.053182 
L 161.388918 107.789756 
L 161.71455 131.777995 
L 162.040181 131.595731 
L 162.365813 129.445685 
L 162.691444 151.655151 
L 163.017075 161.608188 
L 163.342707 133.439986 
L 163.668338 130.590189 
L 163.99397 118.963617 
L 164.319601 129.204945 
L 164.645233 112.391294 
L 164.970864 134.472466 
L 165.296496 126.065538 
L 165.622127 153.865116 
L 165.947758 156.540335 
L 166.27339 154.578425 
L 166.599021 133.105432 
L 166.924653 158.504519 
L 167.250284 150.706202 
L 167.575916 174.097608 
L 167.901547 153.49635 
L 168.227179 170.609836 
L 168.55281 163.837104 
L 169.204073 128.476391 
L 169.529704 148.985113 
L 169.855336 129.001045 
L 170.180967 118.987395 
L 170.506599 118.367528 
L 170.83223 114.652781 
L 171.157861 92.89436 
L 171.483493 108.231523 
L 171.809124 106.859715 
L 172.134756 119.540857 
L 172.460387 148.50357 
L 172.786019 143.36722 
L 173.11165 111.075669 
L 173.437282 105.061226 
L 173.762913 144.813936 
L 174.088544 129.513505 
L 174.414176 143.788504 
L 174.739807 136.744008 
L 175.065439 125.004023 
L 175.39107 121.348336 
L 175.716702 112.365277 
L 176.367965 135.760187 
L 176.693596 110.550667 
L 177.344859 122.096398 
L 177.67049 113.222879 
L 178.321753 85.071386 
L 178.647385 78.146311 
L 178.973016 68.189029 
L 179.624279 115.825506 
L 179.94991 92.611785 
L 180.275542 89.851264 
L 180.926805 112.751945 
L 181.252436 90.556349 
L 181.578068 99.246689 
L 181.903699 76.715345 
L 182.22933 87.915027 
L 182.554962 75.600834 
L 182.880593 76.944033 
L 183.206225 78.78444 
L 183.531856 75.278035 
L 183.857488 99.907384 
L 184.183119 90.400283 
L 184.508751 97.731419 
L 184.834382 121.201063 
L 185.160013 122.419787 
L 185.485645 114.025846 
L 185.811276 112.238043 
L 186.462539 95.93525 
L 186.788171 90.26518 
L 187.113802 87.722481 
L 187.439433 112.740572 
L 187.765065 104.819366 
L 188.090696 85.707757 
L 188.416328 49.918313 
L 188.741959 90.238334 
L 189.393222 74.319221 
L 189.718854 91.238705 
L 190.044485 99.365768 
L 190.370116 72.17523 
L 190.695748 76.561963 
L 191.021379 98.661709 
L 191.672642 110.832408 
L 191.998274 100.309959 
L 192.323905 123.113879 
L 192.649537 120.139987 
L 192.975168 146.097401 
L 193.300799 143.618082 
L 194.603325 118.390951 
L 195.254588 88.11959 
L 195.580219 115.977101 
L 195.905851 105.388248 
L 196.231482 90.150404 
L 196.882745 138.504182 
L 197.208377 93.962683 
L 197.534008 140.185128 
L 197.85964 135.276193 
L 198.185271 146.830674 
L 198.510902 147.574161 
L 199.162165 165.904939 
L 199.487797 133.25003 
L 199.813428 126.27443 
L 200.13906 107.42109 
L 200.464691 126.739501 
L 200.790323 123.326079 
L 201.115954 101.647955 
L 201.441585 93.358122 
L 201.767217 114.927679 
L 202.092848 117.787422 
L 202.41848 99.23491 
L 202.744111 94.687629 
L 203.395374 126.025608 
L 203.721005 112.142289 
L 204.046637 142.013673 
L 204.372268 134.816943 
L 205.023531 160.310624 
L 205.349163 151.462306 
L 205.674794 136.051184 
L 206.000426 153.149869 
L 206.326057 159.102144 
L 206.651688 134.886647 
L 206.97732 148.215334 
L 207.302951 121.894441 
L 207.628583 107.490366 
L 207.954214 106.604026 
L 208.279846 109.891697 
L 208.605477 135.604652 
L 208.931108 138.628741 
L 209.25674 130.601865 
L 209.582371 127.006255 
L 209.908003 133.52673 
L 210.233634 136.821786 
L 210.559266 150.5331 
L 210.884897 137.564125 
L 211.210529 118.747462 
L 211.53616 118.40448 
L 211.861791 132.267366 
L 212.187423 131.92529 
L 212.513054 128.371838 
L 212.838686 133.655735 
L 213.164317 105.301844 
L 213.489949 115.721688 
L 213.81558 139.462532 
L 214.141212 132.564635 
L 214.466843 121.215144 
L 214.792474 137.842078 
L 215.118106 177.802546 
L 215.443737 162.897179 
L 215.769369 138.769869 
L 216.095 131.662395 
L 216.420632 102.892488 
L 216.746263 114.027746 
L 217.071894 86.003727 
L 217.397526 121.128141 
L 218.048789 104.182512 
L 218.37442 102.846853 
L 218.700052 110.201175 
L 219.025683 122.507958 
L 219.351315 106.258286 
L 219.676946 110.950235 
L 220.002577 119.358969 
L 220.328209 120.219431 
L 220.65384 115.819822 
L 220.979472 93.707878 
L 221.305103 88.958892 
L 221.630735 106.460294 
L 221.956366 143.143256 
L 222.281998 139.614037 
L 222.607629 124.21484 
L 222.93326 118.572015 
L 223.258892 134.616397 
L 223.584523 92.598107 
L 223.910155 85.261199 
L 224.235786 106.152885 
L 224.561418 77.896482 
L 225.21268 114.254843 
L 225.538312 116.076833 
L 225.863943 105.787749 
L 226.189575 102.155136 
L 226.515206 122.001782 
L 226.840838 108.912205 
L 227.166469 111.78259 
L 227.492101 102.840137 
L 227.817732 116.95035 
L 228.143363 105.567024 
L 228.468995 103.467199 
L 228.794626 82.606281 
L 229.120258 125.399476 
L 229.445889 131.782196 
L 229.771521 123.182486 
L 230.097152 100.011669 
L 230.748415 136.31943 
L 231.074046 143.888795 
L 231.399678 111.014688 
L 231.725309 97.970565 
L 232.050941 103.066955 
L 232.376572 127.050709 
L 232.702204 98.304872 
L 233.027835 101.107335 
L 233.353466 106.755615 
L 233.679098 124.827709 
L 234.004729 99.96301 
L 234.330361 87.984901 
L 234.655992 96.760647 
L 234.981624 132.325584 
L 235.307255 135.557698 
L 235.958518 105.306967 
L 236.284149 127.828745 
L 236.609781 130.239858 
L 236.935412 140.588842 
L 237.261044 139.810299 
L 237.586675 124.002052 
L 238.237938 169.627849 
L 238.56357 162.969795 
L 238.889201 120.46827 
L 239.214832 132.734393 
L 239.540464 130.679034 
L 239.866095 160.819881 
L 240.191727 158.119586 
L 240.517358 159.102503 
L 240.84299 160.802493 
L 241.168621 127.327989 
L 241.494252 121.526748 
L 241.819884 119.049541 
L 242.145515 121.339081 
L 242.471147 112.254621 
L 243.12241 139.218547 
L 243.448041 125.9289 
L 243.773673 129.562979 
L 244.424935 102.808386 
L 244.750567 123.404296 
L 245.076198 111.960107 
L 245.40183 126.608169 
L 245.727461 120.643046 
L 246.053093 119.726405 
L 246.378724 134.410518 
L 246.704356 138.465341 
L 247.029987 116.27614 
L 247.355618 113.390805 
L 247.68125 129.451603 
L 248.006881 123.028185 
L 248.332513 96.477989 
L 248.658144 96.568165 
L 248.983776 81.846562 
L 249.309407 86.224584 
L 249.635038 112.377321 
L 249.96067 124.1461 
L 250.286301 147.734615 
L 250.611933 132.800491 
L 250.937564 139.418671 
L 251.263196 135.413864 
L 251.588827 138.176643 
L 251.914459 120.229261 
L 252.24009 156.85516 
L 252.565721 159.301071 
L 252.891353 139.191555 
L 253.216984 140.126333 
L 253.542616 110.682038 
L 253.868247 94.615795 
L 254.193879 120.438766 
L 254.51951 100.113827 
L 254.845142 106.448507 
L 255.170773 117.34865 
L 255.496404 115.929842 
L 255.822036 126.021766 
L 256.147667 110.507945 
L 256.473299 146.280571 
L 256.79893 150.479828 
L 257.124562 147.604642 
L 257.775824 130.929135 
L 258.101456 132.181127 
L 258.427087 120.933391 
L 258.752719 154.056278 
L 259.07835 137.032535 
L 259.403982 133.826355 
L 259.729613 136.940868 
L 260.055245 132.070339 
L 260.380876 131.688492 
L 260.706507 153.594593 
L 261.032139 160.070655 
L 261.683402 120.664266 
L 262.009033 128.97156 
L 262.334665 124.646649 
L 262.660296 138.441592 
L 262.985927 121.25974 
L 263.63719 124.785708 
L 264.288453 120.396042 
L 264.614085 120.378428 
L 264.939716 122.749208 
L 265.590979 98.821719 
L 265.91661 120.402625 
L 266.242242 96.784725 
L 266.567873 119.488572 
L 266.893505 109.36202 
L 267.219136 81.216388 
L 267.544768 102.624244 
L 268.196031 68.304278 
L 268.521662 66.973191 
L 268.847293 84.934184 
L 269.498556 73.171058 
L 269.824188 102.730023 
L 270.149819 88.157439 
L 270.475451 94.59932 
L 270.801082 120.274072 
L 271.126713 123.910606 
L 271.452345 112.612876 
L 271.777976 109.532717 
L 272.103608 118.06906 
L 272.429239 131.133644 
L 272.754871 117.338399 
L 273.080502 138.768185 
L 273.406134 123.429843 
L 274.057396 72.112273 
L 274.383028 105.184045 
L 274.708659 107.876761 
L 275.034291 103.613332 
L 275.359922 122.548059 
L 275.685554 117.407424 
L 276.336817 70.644955 
L 276.662448 70.95442 
L 276.988079 77.24543 
L 277.313711 110.240512 
L 277.639342 91.365955 
L 277.964974 108.1892 
L 278.290605 86.19997 
L 278.616237 74.804035 
L 278.941868 97.161285 
L 279.267499 96.980241 
L 279.593131 106.880742 
L 279.918762 92.243275 
L 280.244394 93.656054 
L 280.570025 97.837024 
L 280.895657 130.885678 
L 281.221288 147.610852 
L 281.54692 140.271984 
L 281.872551 138.683369 
L 282.523814 140.201006 
L 282.849445 130.162739 
L 283.175077 134.70254 
L 283.500708 135.761411 
L 283.82634 110.970701 
L 284.151971 116.012591 
L 284.477603 104.587376 
L 284.803234 73.024926 
L 285.454497 56.459875 
L 285.780128 75.33602 
L 286.10576 46.536878 
L 286.431391 51.262851 
L 286.757023 64.227394 
L 287.082654 93.338608 
L 287.408285 107.430524 
L 287.733917 112.807289 
L 288.059548 129.970838 
L 288.38518 125.438969 
L 289.036443 140.737039 
L 289.362074 127.839466 
L 289.687706 124.561961 
L 290.013337 127.702954 
L 290.338968 123.833749 
L 290.6646 107.347139 
L 290.990231 114.019206 
L 291.315863 113.274137 
L 291.641494 119.84527 
L 291.967126 116.646002 
L 292.292757 124.072003 
L 292.618389 140.120024 
L 292.94402 162.983459 
L 293.269651 139.410244 
L 293.595283 147.516507 
L 293.920914 158.520287 
L 294.246546 122.830047 
L 294.572177 146.750259 
L 294.897809 135.055478 
L 295.22344 133.208855 
L 295.549071 95.159884 
L 295.874703 79.793051 
L 296.200334 109.518906 
L 296.525966 100.909397 
L 296.851597 129.236437 
L 297.177229 130.302259 
L 297.50286 133.559537 
L 297.828492 106.009247 
L 298.154123 130.044435 
L 298.479754 99.758602 
L 299.131017 126.519949 
L 299.456649 99.742628 
L 299.78228 107.006982 
L 300.107912 92.29878 
L 300.433543 95.728191 
L 300.759175 89.711386 
L 301.084806 92.130231 
L 301.736069 122.748686 
L 302.0617 132.639444 
L 302.387332 150.725213 
L 302.712963 131.18072 
L 303.038595 142.789602 
L 303.364226 146.258459 
L 303.689857 123.521421 
L 304.015489 112.063653 
L 304.34112 117.206002 
L 304.666752 105.902328 
L 304.992383 104.565131 
L 305.643646 134.327635 
L 305.969278 145.804763 
L 306.62054 149.226358 
L 306.946172 113.114712 
L 307.271803 96.983014 
L 307.597435 73.450072 
L 308.248698 57.03915 
L 308.574329 90.704936 
L 308.899961 92.492231 
L 309.225592 105.958807 
L 309.551223 103.619893 
L 309.876855 96.382923 
L 310.202486 98.013647 
L 310.853749 96.759036 
L 311.179381 88.237577 
L 311.505012 68.398643 
L 311.830643 73.395569 
L 312.156275 58.506849 
L 312.481906 71.524777 
L 312.807538 105.621067 
L 313.133169 82.675483 
L 313.458801 83.284389 
L 313.784432 105.091008 
L 314.110064 96.912624 
L 314.435695 101.962165 
L 314.761326 103.462918 
L 315.738221 71.148792 
L 316.063852 68.795145 
L 316.389484 94.761022 
L 316.715115 88.715737 
L 317.040747 99.556903 
L 317.366378 119.990405 
L 317.692009 119.513319 
L 318.017641 118.818809 
L 318.343272 105.425127 
L 318.994535 117.273031 
L 319.320167 105.114367 
L 319.645798 114.907497 
L 320.297061 143.274898 
L 320.622692 143.389372 
L 320.948324 158.777611 
L 321.599587 99.014744 
L 322.25085 80.489884 
L 322.576481 97.460174 
L 322.902112 92.211411 
L 323.227744 116.264869 
L 323.553375 118.530521 
L 323.879007 103.052725 
L 324.53027 113.539631 
L 324.855901 129.598857 
L 325.181532 93.48198 
L 325.507164 117.573566 
L 325.832795 110.891641 
L 326.158427 109.003892 
L 326.484058 118.36263 
L 326.80969 102.463104 
L 327.135321 110.941061 
L 327.460953 105.408632 
L 327.786584 128.065145 
L 328.112215 142.977019 
L 328.437847 125.00888 
L 328.763478 147.060371 
L 329.414741 107.542398 
L 329.740373 101.670004 
L 330.066004 102.472625 
L 330.717267 130.012684 
L 331.042898 102.973667 
L 331.36853 99.72019 
L 331.694161 106.146334 
L 332.019793 118.069495 
L 332.345424 89.742802 
L 332.671056 93.941623 
L 332.996687 81.694738 
L 333.322318 94.215903 
L 333.64795 113.313457 
L 333.973581 105.074107 
L 334.299213 110.134463 
L 334.624844 119.779956 
L 334.950476 133.659819 
L 335.276107 136.896047 
L 335.601739 131.528807 
L 335.92737 144.516376 
L 336.253001 125.250172 
L 336.578633 115.398346 
L 336.904264 114.178132 
L 337.229896 111.520808 
L 337.555527 105.528433 
L 338.20679 72.849275 
L 338.532422 65.07934 
L 338.858053 97.867388 
L 339.183684 69.865927 
L 339.509316 64.72854 
L 339.834947 79.106603 
L 340.160579 73.727554 
L 340.48621 85.959204 
L 340.811842 116.36431 
L 341.137473 115.246036 
L 341.463104 91.385379 
L 341.788736 96.743179 
L 342.114367 96.855202 
L 342.439999 79.400661 
L 342.76563 89.162319 
L 343.091262 83.989141 
L 343.416893 53.567247 
L 343.742525 84.700308 
L 344.393787 100.84939 
L 344.719419 97.595284 
L 345.04505 91.82802 
L 345.370682 111.614873 
L 345.696313 122.125297 
L 346.021945 99.499443 
L 346.347576 94.946325 
L 346.673208 86.529034 
L 346.998839 92.021369 
L 347.32447 103.742618 
L 347.650102 107.281666 
L 347.975733 107.33608 
L 348.301365 97.242974 
L 348.626996 104.508054 
L 348.952628 102.257298 
L 349.278259 96.369541 
L 349.929522 100.453118 
L 350.255153 105.049923 
L 350.580785 97.409097 
L 350.906416 102.323111 
L 351.232048 95.061328 
L 351.557679 101.050503 
L 351.883311 112.939378 
L 352.208942 106.825285 
L 352.534573 117.152743 
L 352.860205 117.860473 
L 353.185836 121.920199 
L 353.511468 99.528382 
L 353.837099 99.498059 
L 354.162731 100.845632 
L 354.488362 113.988778 
L 355.139625 97.26709 
L 355.465256 102.678127 
L 356.116519 100.15895 
L 356.442151 102.831873 
L 356.767782 107.686196 
L 357.093414 119.996716 
L 357.419045 107.027636 
L 357.744676 88.732264 
L 358.070308 118.910171 
L 358.721571 133.718664 
L 359.047202 119.841671 
L 359.372834 121.320905 
L 359.698465 138.022337 
L 360.024097 133.277736 
L 360.349728 139.584772 
L 360.675359 111.120269 
L 361.000991 120.993551 
L 361.326622 113.282091 
L 361.652254 113.78142 
L 361.977885 129.871921 
L 362.303517 127.102963 
L 362.629148 130.096887 
L 362.95478 126.457501 
L 363.280411 146.564478 
L 364.257305 100.811784 
L 364.582937 120.460863 
L 364.908568 125.031651 
L 365.2342 96.4615 
L 365.559831 94.526055 
L 365.885462 107.23086 
L 366.211094 93.512481 
L 366.536725 99.436437 
L 366.862357 88.480884 
L 367.187988 89.665841 
L 367.839251 68.832405 
L 368.164883 84.905082 
L 368.490514 47.988763 
L 368.816145 64.621851 
L 369.141777 73.855843 
L 369.467408 57.935106 
L 369.79304 55.315616 
L 371.095566 105.251847 
L 371.421197 106.749521 
L 371.746828 135.321602 
L 372.07246 123.104727 
L 372.398091 131.549458 
L 372.723723 118.303097 
L 373.049354 115.665797 
L 373.374986 105.055746 
L 373.700617 117.771237 
L 374.026248 118.668029 
L 374.35188 128.156216 
L 374.677511 144.402296 
L 375.003143 128.347581 
L 375.328774 119.410031 
L 375.980037 91.539139 
L 376.6313 109.941355 
L 376.956931 101.147537 
L 377.282563 103.345661 
L 377.933826 75.381163 
L 378.259457 89.961157 
L 378.585089 78.214655 
L 378.91072 75.671084 
L 379.236351 82.757176 
L 379.561983 112.24626 
L 379.887614 107.589511 
L 380.213246 88.73696 
L 380.538877 77.851987 
L 380.864509 111.492021 
L 381.19014 92.737742 
L 381.515772 101.165169 
L 381.841403 98.312496 
L 382.167034 87.319404 
L 382.492666 99.219649 
L 382.818297 126.488371 
L 383.143929 97.589121 
L 383.46956 99.082891 
L 383.795192 133.107369 
L 384.120823 129.528341 
L 384.446455 89.742065 
L 384.772086 99.228168 
L 385.423349 124.919654 
L 386.074612 116.034157 
L 386.400243 120.754531 
L 386.725875 132.97107 
L 387.051506 109.213977 
L 387.377137 127.395988 
L 387.702769 154.609247 
L 388.0284 164.638873 
L 388.354032 153.64157 
L 388.679663 161.916924 
L 389.005295 163.684843 
L 389.656558 183.846142 
L 389.982189 155.283017 
L 390.30782 137.861722 
L 390.633452 129.484099 
L 390.959083 146.144155 
L 391.284715 105.013752 
L 391.610346 134.939355 
L 391.935978 132.055762 
L 392.261609 148.229791 
L 392.587241 181.440747 
L 392.912872 172.141725 
L 393.238503 146.760562 
L 393.564135 179.127559 
L 393.889766 163.553937 
L 394.215398 184.977507 
L 394.215398 184.977507 
" style="fill:none;stroke:#1f77b4;stroke-linecap:square;stroke-width:1.5;"/>
   </g>
   <g id="patch_3">
    <path d="M 53.328125 288.430125 
L 53.328125 22.318125 
" style="fill:none;stroke:#000000;stroke-linecap:square;stroke-linejoin:miter;stroke-width:0.8;"/>
   </g>
   <g id="patch_4">
    <path d="M 410.448125 288.430125 
L 410.448125 22.318125 
" style="fill:none;stroke:#000000;stroke-linecap:square;stroke-linejoin:miter;stroke-width:0.8;"/>
   </g>
   <g id="patch_5">
    <path d="M 53.328125 288.430125 
L 410.448125 288.430125 
" style="fill:none;stroke:#000000;stroke-linecap:square;stroke-linejoin:miter;stroke-width:0.8;"/>
   </g>
   <g id="patch_6">
    <path d="M 53.328125 22.318125 
L 410.448125 22.318125 
" style="fill:none;stroke:#000000;stroke-linecap:square;stroke-linejoin:miter;stroke-width:0.8;"/>
   </g>
   <g id="text_14">
    <!-- spacing -->
    <g transform="translate(208.699062 16.318125)scale(0.12 -0.12)">
     <defs>
      <path d="M 2834 3397 
L 2834 2853 
Q 2591 2978 2328 3040 
Q 2066 3103 1784 3103 
Q 1356 3103 1142 2972 
Q 928 2841 928 2578 
Q 928 2378 1081 2264 
Q 1234 2150 1697 2047 
L 1894 2003 
Q 2506 1872 2764 1633 
Q 3022 1394 3022 966 
Q 3022 478 2636 193 
Q 2250 -91 1575 -91 
Q 1294 -91 989 -36 
Q 684 19 347 128 
L 347 722 
Q 666 556 975 473 
Q 1284 391 1588 391 
Q 1994 391 2212 530 
Q 2431 669 2431 922 
Q 2431 1156 2273 1281 
Q 2116 1406 1581 1522 
L 1381 1569 
Q 847 1681 609 1914 
Q 372 2147 372 2553 
Q 372 3047 722 3315 
Q 1072 3584 1716 3584 
Q 2034 3584 2315 3537 
Q 2597 3491 2834 3397 
z
" id="DejaVuSans-73" transform="scale(0.015625)"/>
      <path d="M 1159 525 
L 1159 -1331 
L 581 -1331 
L 581 3500 
L 1159 3500 
L 1159 2969 
Q 1341 3281 1617 3432 
Q 1894 3584 2278 3584 
Q 2916 3584 3314 3078 
Q 3713 2572 3713 1747 
Q 3713 922 3314 415 
Q 2916 -91 2278 -91 
Q 1894 -91 1617 61 
Q 1341 213 1159 525 
z
M 3116 1747 
Q 3116 2381 2855 2742 
Q 2594 3103 2138 3103 
Q 1681 3103 1420 2742 
Q 1159 2381 1159 1747 
Q 1159 1113 1420 752 
Q 1681 391 2138 391 
Q 2594 391 2855 752 
Q 3116 1113 3116 1747 
z
" id="DejaVuSans-70" transform="scale(0.015625)"/>
      <path d="M 3122 3366 
L 3122 2828 
Q 2878 2963 2633 3030 
Q 2388 3097 2138 3097 
Q 1578 3097 1268 2742 
Q 959 2388 959 1747 
Q 959 1106 1268 751 
Q 1578 397 2138 397 
Q 2388 397 2633 464 
Q 2878 531 3122 666 
L 3122 134 
Q 2881 22 2623 -34 
Q 2366 -91 2075 -91 
Q 1284 -91 818 406 
Q 353 903 353 1747 
Q 353 2603 823 3093 
Q 1294 3584 2113 3584 
Q 2378 3584 2631 3529 
Q 2884 3475 3122 3366 
z
" id="DejaVuSans-63" transform="scale(0.015625)"/>
      <path d="M 2906 1791 
Q 2906 2416 2648 2759 
Q 2391 3103 1925 3103 
Q 1463 3103 1205 2759 
Q 947 2416 947 1791 
Q 947 1169 1205 825 
Q 1463 481 1925 481 
Q 2391 481 2648 825 
Q 2906 1169 2906 1791 
z
M 3481 434 
Q 3481 -459 3084 -895 
Q 2688 -1331 1869 -1331 
Q 1566 -1331 1297 -1286 
Q 1028 -1241 775 -1147 
L 775 -588 
Q 1028 -725 1275 -790 
Q 1522 -856 1778 -856 
Q 2344 -856 2625 -561 
Q 2906 -266 2906 331 
L 2906 616 
Q 2728 306 2450 153 
Q 2172 0 1784 0 
Q 1141 0 747 490 
Q 353 981 353 1791 
Q 353 2603 747 3093 
Q 1141 3584 1784 3584 
Q 2172 3584 2450 3431 
Q 2728 3278 2906 2969 
L 2906 3500 
L 3481 3500 
L 3481 434 
z
" id="DejaVuSans-67" transform="scale(0.015625)"/>
     </defs>
     <use xlink:href="#DejaVuSans-73"/>
     <use x="52.099609" xlink:href="#DejaVuSans-70"/>
     <use x="115.576172" xlink:href="#DejaVuSans-61"/>
     <use x="176.855469" xlink:href="#DejaVuSans-63"/>
     <use x="231.835938" xlink:href="#DejaVuSans-69"/>
     <use x="259.619141" xlink:href="#DejaVuSans-6e"/>
     <use x="322.998047" xlink:href="#DejaVuSans-67"/>
    </g>
   </g>
   <g id="legend_1">
    <g id="patch_7">
     <path d="M 332.799688 44.99625 
L 403.448125 44.99625 
Q 405.448125 44.99625 405.448125 42.99625 
L 405.448125 29.318125 
Q 405.448125 27.318125 403.448125 27.318125 
L 332.799688 27.318125 
Q 330.799688 27.318125 330.799688 29.318125 
L 330.799688 42.99625 
Q 330.799688 44.99625 332.799688 44.99625 
z
" style="fill:#ffffff;opacity:0.8;stroke:#cccccc;stroke-linejoin:miter;"/>
    </g>
    <g id="line2d_13">
     <path d="M 334.799688 35.416562 
L 354.799688 35.416562 
" style="fill:none;stroke:#1f77b4;stroke-linecap:square;stroke-width:1.5;"/>
    </g>
    <g id="line2d_14"/>
    <g id="text_15">
     <!-- spacing -->
     <g transform="translate(362.799688 38.916562)scale(0.1 -0.1)">
      <use xlink:href="#DejaVuSans-73"/>
      <use x="52.099609" xlink:href="#DejaVuSans-70"/>
      <use x="115.576172" xlink:href="#DejaVuSans-61"/>
      <use x="176.855469" xlink:href="#DejaVuSans-63"/>
      <use x="231.835938" xlink:href="#DejaVuSans-69"/>
      <use x="259.619141" xlink:href="#DejaVuSans-6e"/>
      <use x="322.998047" xlink:href="#DejaVuSans-67"/>
     </g>
    </g>
   </g>
  </g>
 </g>
 <defs>
  <clipPath id="p00b73192b6">
   <rect height="266.112" width="357.12" x="53.328125" y="22.318125"/>
  </clipPath>
 </defs>
</svg>
